%TF.GenerationSoftware,KiCad,Pcbnew,8.0.9-8.0.9-0~ubuntu22.04.1*%
%TF.CreationDate,2025-11-15T02:19:11+01:00*%
%TF.ProjectId,GLITCHING_FMAW,474c4954-4348-4494-9e47-5f464d41572e,rev?*%
%TF.SameCoordinates,Original*%
%TF.FileFunction,Legend,Bot*%
%TF.FilePolarity,Positive*%
%FSLAX46Y46*%
G04 Gerber Fmt 4.6, Leading zero omitted, Abs format (unit mm)*
G04 Created by KiCad (PCBNEW 8.0.9-8.0.9-0~ubuntu22.04.1) date 2025-11-15 02:19:11*
%MOMM*%
%LPD*%
G01*
G04 APERTURE LIST*
%ADD10C,0.200000*%
G04 APERTURE END LIST*
D10*
G36*
X41726478Y-64347500D02*
G01*
X41846385Y-64467406D01*
X41971428Y-64717492D01*
X41971428Y-65527421D01*
X41846385Y-65777506D01*
X41726476Y-65897414D01*
X41476392Y-66022457D01*
X40952178Y-66022457D01*
X40742856Y-65917796D01*
X40742856Y-64327117D01*
X40952178Y-64222457D01*
X41476392Y-64222457D01*
X41726478Y-64347500D01*
G37*
G36*
X56282605Y-64339849D02*
G01*
X56400000Y-64574635D01*
X56400000Y-64754761D01*
X55171428Y-65000476D01*
X55171428Y-64574635D01*
X55288820Y-64339849D01*
X55523607Y-64222457D01*
X56047821Y-64222457D01*
X56282605Y-64339849D01*
G37*
G36*
X62854034Y-64339849D02*
G01*
X62971429Y-64574635D01*
X62971429Y-64754761D01*
X61742857Y-65000476D01*
X61742857Y-64574635D01*
X61860249Y-64339849D01*
X62095036Y-64222457D01*
X62619250Y-64222457D01*
X62854034Y-64339849D01*
G37*
G36*
X63114286Y-59497285D02*
G01*
X63114286Y-61087964D01*
X62904964Y-61192625D01*
X62380750Y-61192625D01*
X62130663Y-61067582D01*
X62010757Y-60947675D01*
X61885714Y-60697589D01*
X61885714Y-59887660D01*
X62010756Y-59637575D01*
X62130663Y-59517667D01*
X62380750Y-59392625D01*
X62904964Y-59392625D01*
X63114286Y-59497285D01*
G37*
G36*
X43297906Y-53687835D02*
G01*
X43552560Y-53942488D01*
X43685714Y-54475102D01*
X43685714Y-55450483D01*
X43552560Y-55983096D01*
X43297906Y-56237750D01*
X43047821Y-56362793D01*
X42523607Y-56362793D01*
X42273523Y-56237751D01*
X42018866Y-55983094D01*
X41885714Y-55450483D01*
X41885714Y-54475102D01*
X42018867Y-53942489D01*
X42273521Y-53687836D01*
X42523607Y-53562793D01*
X43047821Y-53562793D01*
X43297906Y-53687835D01*
G37*
G36*
X54012193Y-54687836D02*
G01*
X54132100Y-54807742D01*
X54257143Y-55057828D01*
X54257143Y-55867757D01*
X54132100Y-56117842D01*
X54012191Y-56237750D01*
X53762107Y-56362793D01*
X53380750Y-56362793D01*
X53130663Y-56237750D01*
X53010757Y-56117843D01*
X52885714Y-55867757D01*
X52885714Y-55057828D01*
X53010756Y-54807743D01*
X53130663Y-54687835D01*
X53380750Y-54562793D01*
X53762107Y-54562793D01*
X54012193Y-54687836D01*
G37*
G36*
X61017409Y-55121623D02*
G01*
X61132100Y-55236313D01*
X61257143Y-55486399D01*
X61257143Y-55867757D01*
X61132099Y-56117843D01*
X61012193Y-56237750D01*
X60762107Y-56362793D01*
X59742857Y-56362793D01*
X59742857Y-54991364D01*
X60626630Y-54991364D01*
X61017409Y-55121623D01*
G37*
G36*
X60869335Y-53687835D02*
G01*
X60989243Y-53807742D01*
X61114286Y-54057828D01*
X61114286Y-54296329D01*
X60989243Y-54546414D01*
X60869335Y-54666321D01*
X60619250Y-54791364D01*
X59742857Y-54791364D01*
X59742857Y-53562793D01*
X60619250Y-53562793D01*
X60869335Y-53687835D01*
G37*
G36*
X64012192Y-53687835D02*
G01*
X64266846Y-53942488D01*
X64400000Y-54475102D01*
X64400000Y-55450483D01*
X64266846Y-55983096D01*
X64012192Y-56237750D01*
X63762107Y-56362793D01*
X63237893Y-56362793D01*
X62987809Y-56237751D01*
X62733152Y-55983094D01*
X62600000Y-55450483D01*
X62600000Y-54475102D01*
X62733153Y-53942489D01*
X62987807Y-53687836D01*
X63237893Y-53562793D01*
X63762107Y-53562793D01*
X64012192Y-53687835D01*
G37*
G36*
X46440763Y-53687835D02*
G01*
X46560671Y-53807742D01*
X46685714Y-54057828D01*
X46685714Y-54439186D01*
X46560671Y-54689271D01*
X46440763Y-54809178D01*
X46190678Y-54934221D01*
X45171428Y-54934221D01*
X45171428Y-53562793D01*
X46190678Y-53562793D01*
X46440763Y-53687835D01*
G37*
G36*
X69931412Y-67555790D02*
G01*
X38352381Y-67555790D01*
X38352381Y-67109950D01*
X42972213Y-67109950D01*
X42974979Y-67148870D01*
X42992428Y-67183769D01*
X43021905Y-67209333D01*
X43058921Y-67221672D01*
X43097841Y-67218906D01*
X43116149Y-67211900D01*
X43334053Y-67102948D01*
X48973349Y-67102948D01*
X48973349Y-67141966D01*
X48988281Y-67178014D01*
X49015871Y-67205604D01*
X49051919Y-67220536D01*
X49071428Y-67222457D01*
X49214285Y-67222457D01*
X49233794Y-67220536D01*
X49237114Y-67219160D01*
X49240698Y-67218906D01*
X49259006Y-67211900D01*
X49544720Y-67069043D01*
X49547983Y-67066988D01*
X49549522Y-67066476D01*
X49551437Y-67064814D01*
X49561311Y-67058600D01*
X49569526Y-67049127D01*
X49578999Y-67040912D01*
X49585213Y-67031038D01*
X49586875Y-67029123D01*
X49587387Y-67027584D01*
X49589442Y-67024321D01*
X49732299Y-66738606D01*
X49739305Y-66720298D01*
X49739559Y-66716714D01*
X49740935Y-66713394D01*
X49742856Y-66693885D01*
X49742856Y-64693885D01*
X50828570Y-64693885D01*
X50828570Y-65551028D01*
X50830491Y-65570537D01*
X50831866Y-65573857D01*
X50832121Y-65577441D01*
X50839127Y-65595749D01*
X50981984Y-65881463D01*
X50987270Y-65889861D01*
X50988280Y-65892299D01*
X50990531Y-65895041D01*
X50992427Y-65898054D01*
X50994425Y-65899787D01*
X51000716Y-65907452D01*
X51143573Y-66050310D01*
X51151239Y-66056602D01*
X51152972Y-66058600D01*
X51155980Y-66060493D01*
X51158726Y-66062747D01*
X51161166Y-66063757D01*
X51169563Y-66069043D01*
X51455278Y-66211900D01*
X51473586Y-66218906D01*
X51477169Y-66219160D01*
X51480490Y-66220536D01*
X51499999Y-66222457D01*
X52071427Y-66222457D01*
X52090936Y-66220536D01*
X52094256Y-66219160D01*
X52097840Y-66218906D01*
X52116148Y-66211900D01*
X52401863Y-66069043D01*
X52418454Y-66058600D01*
X52444018Y-66029123D01*
X52456357Y-65992107D01*
X52453591Y-65953187D01*
X52436142Y-65918288D01*
X52406665Y-65892724D01*
X52369649Y-65880385D01*
X52330729Y-65883151D01*
X52312421Y-65890157D01*
X52047820Y-66022457D01*
X51523606Y-66022457D01*
X51273519Y-65897414D01*
X51153613Y-65777507D01*
X51028570Y-65527421D01*
X51028570Y-64717492D01*
X51153612Y-64467407D01*
X51273519Y-64347499D01*
X51523606Y-64222457D01*
X52047820Y-64222457D01*
X52312421Y-64354757D01*
X52330729Y-64361763D01*
X52369649Y-64364529D01*
X52406665Y-64352190D01*
X52436142Y-64326626D01*
X52453591Y-64291727D01*
X52456357Y-64252807D01*
X52444018Y-64215791D01*
X52418454Y-64186314D01*
X52401863Y-64175871D01*
X52116148Y-64033014D01*
X52097840Y-64026008D01*
X52094256Y-64025753D01*
X52090936Y-64024378D01*
X52071427Y-64022457D01*
X51499999Y-64022457D01*
X51480490Y-64024378D01*
X51477169Y-64025753D01*
X51473586Y-64026008D01*
X51455278Y-64033014D01*
X51169563Y-64175871D01*
X51161166Y-64181156D01*
X51158726Y-64182167D01*
X51155980Y-64184420D01*
X51152972Y-64186314D01*
X51151239Y-64188311D01*
X51143573Y-64194604D01*
X51000716Y-64337460D01*
X50994424Y-64345126D01*
X50992427Y-64346859D01*
X50990531Y-64349870D01*
X50988280Y-64352614D01*
X50987270Y-64355051D01*
X50981984Y-64363450D01*
X50839127Y-64649164D01*
X50832121Y-64667472D01*
X50831866Y-64671055D01*
X50830491Y-64674376D01*
X50828570Y-64693885D01*
X49742856Y-64693885D01*
X49742856Y-64122457D01*
X49740935Y-64102948D01*
X49726003Y-64066900D01*
X49698413Y-64039310D01*
X49662365Y-64024378D01*
X49623347Y-64024378D01*
X49587299Y-64039310D01*
X49559709Y-64066900D01*
X49544777Y-64102948D01*
X49542856Y-64122457D01*
X49542856Y-66670278D01*
X49425463Y-66905064D01*
X49190678Y-67022457D01*
X49071428Y-67022457D01*
X49051919Y-67024378D01*
X49015871Y-67039310D01*
X48988281Y-67066900D01*
X48973349Y-67102948D01*
X43334053Y-67102948D01*
X43401863Y-67069043D01*
X43410259Y-67063757D01*
X43412700Y-67062747D01*
X43415445Y-67060493D01*
X43418454Y-67058600D01*
X43420186Y-67056602D01*
X43427853Y-67050310D01*
X43570710Y-66907452D01*
X43583146Y-66892299D01*
X43583383Y-66891726D01*
X43583818Y-66891281D01*
X43592847Y-66873881D01*
X43878562Y-66159596D01*
X43879086Y-66157788D01*
X43879888Y-66156091D01*
X44594173Y-64156090D01*
X44598926Y-64137072D01*
X44597229Y-64102948D01*
X47401920Y-64102948D01*
X47401920Y-64141966D01*
X47416852Y-64178014D01*
X47444442Y-64205604D01*
X47480490Y-64220536D01*
X47499999Y-64222457D01*
X47828570Y-64222457D01*
X47828570Y-65693885D01*
X47830491Y-65713394D01*
X47831866Y-65716714D01*
X47832121Y-65720298D01*
X47839127Y-65738606D01*
X47981984Y-66024321D01*
X47984038Y-66027584D01*
X47984551Y-66029123D01*
X47986212Y-66031038D01*
X47992427Y-66040912D01*
X48001899Y-66049127D01*
X48010115Y-66058600D01*
X48019988Y-66064814D01*
X48021904Y-66066476D01*
X48023442Y-66066988D01*
X48026706Y-66069043D01*
X48312421Y-66211900D01*
X48330729Y-66218906D01*
X48334312Y-66219160D01*
X48337633Y-66220536D01*
X48357142Y-66222457D01*
X48642856Y-66222457D01*
X48662365Y-66220536D01*
X48698413Y-66205604D01*
X48726003Y-66178014D01*
X48740935Y-66141966D01*
X48740935Y-66102948D01*
X48726003Y-66066900D01*
X48698413Y-66039310D01*
X48662365Y-66024378D01*
X48642856Y-66022457D01*
X48380749Y-66022457D01*
X48145962Y-65905064D01*
X48028570Y-65670278D01*
X48028570Y-64222457D01*
X48642856Y-64222457D01*
X48662365Y-64220536D01*
X48698413Y-64205604D01*
X48726003Y-64178014D01*
X48740935Y-64141966D01*
X48740935Y-64102948D01*
X48726003Y-64066900D01*
X48698413Y-64039310D01*
X48662365Y-64024378D01*
X48642856Y-64022457D01*
X48028570Y-64022457D01*
X48028570Y-63245805D01*
X49401920Y-63245805D01*
X49401920Y-63284823D01*
X49416852Y-63320871D01*
X49429288Y-63336025D01*
X49572145Y-63478881D01*
X49587298Y-63491318D01*
X49597856Y-63495691D01*
X49623347Y-63506250D01*
X49662365Y-63506250D01*
X49698413Y-63491318D01*
X49713567Y-63478882D01*
X49856423Y-63336025D01*
X49868860Y-63320872D01*
X49883791Y-63284823D01*
X49883791Y-63245805D01*
X49868860Y-63209757D01*
X49868860Y-63209756D01*
X49856423Y-63194603D01*
X49784278Y-63122457D01*
X53542856Y-63122457D01*
X53542856Y-65693885D01*
X53544777Y-65713394D01*
X53546152Y-65716714D01*
X53546407Y-65720298D01*
X53553413Y-65738606D01*
X53696270Y-66024321D01*
X53698324Y-66027584D01*
X53698837Y-66029123D01*
X53700498Y-66031038D01*
X53706713Y-66040912D01*
X53716185Y-66049127D01*
X53724401Y-66058600D01*
X53734274Y-66064814D01*
X53736190Y-66066476D01*
X53737728Y-66066988D01*
X53740992Y-66069043D01*
X54026707Y-66211900D01*
X54045015Y-66218906D01*
X54083935Y-66221672D01*
X54120951Y-66209333D01*
X54150428Y-66183769D01*
X54167877Y-66148870D01*
X54170643Y-66109950D01*
X54158304Y-66072934D01*
X54132740Y-66043457D01*
X54116149Y-66033014D01*
X53860248Y-65905064D01*
X53742856Y-65670278D01*
X53742856Y-64551028D01*
X54971428Y-64551028D01*
X54971428Y-65693885D01*
X54973349Y-65713394D01*
X54974724Y-65716714D01*
X54974979Y-65720298D01*
X54981985Y-65738606D01*
X55124842Y-66024321D01*
X55126896Y-66027584D01*
X55127409Y-66029123D01*
X55129070Y-66031038D01*
X55135285Y-66040912D01*
X55144757Y-66049127D01*
X55152973Y-66058600D01*
X55162846Y-66064814D01*
X55164762Y-66066476D01*
X55166300Y-66066988D01*
X55169564Y-66069043D01*
X55455279Y-66211900D01*
X55473587Y-66218906D01*
X55477170Y-66219160D01*
X55480491Y-66220536D01*
X55500000Y-66222457D01*
X56071428Y-66222457D01*
X56090937Y-66220536D01*
X56094257Y-66219160D01*
X56097841Y-66218906D01*
X56116149Y-66211900D01*
X56401863Y-66069043D01*
X56418454Y-66058600D01*
X56444018Y-66029123D01*
X56456357Y-65992107D01*
X56453591Y-65953187D01*
X56436142Y-65918288D01*
X56406665Y-65892724D01*
X56369649Y-65880385D01*
X56330729Y-65883151D01*
X56312421Y-65890157D01*
X56047821Y-66022457D01*
X55523607Y-66022457D01*
X55288820Y-65905064D01*
X55171428Y-65670278D01*
X55171428Y-65204437D01*
X56519506Y-64934821D01*
X56519509Y-64934821D01*
X56519511Y-64934819D01*
X56519611Y-64934800D01*
X56538365Y-64929090D01*
X56546505Y-64923638D01*
X56555557Y-64919889D01*
X56562558Y-64912887D01*
X56570784Y-64907379D01*
X56576218Y-64899227D01*
X56583147Y-64892299D01*
X56586936Y-64883151D01*
X56592428Y-64874914D01*
X56594329Y-64865303D01*
X56598079Y-64856251D01*
X56600000Y-64836742D01*
X56600000Y-64551028D01*
X56598079Y-64531519D01*
X56596703Y-64528199D01*
X56596449Y-64524614D01*
X56589442Y-64506306D01*
X56446585Y-64220592D01*
X56444530Y-64217327D01*
X56444018Y-64215791D01*
X56442358Y-64213876D01*
X56436142Y-64204002D01*
X56426669Y-64195786D01*
X56418454Y-64186314D01*
X56408580Y-64180099D01*
X56406665Y-64178438D01*
X56405126Y-64177925D01*
X56401863Y-64175871D01*
X56295035Y-64122457D01*
X57685714Y-64122457D01*
X57685714Y-66122457D01*
X57687635Y-66141966D01*
X57702567Y-66178014D01*
X57730157Y-66205604D01*
X57766205Y-66220536D01*
X57805223Y-66220536D01*
X57841271Y-66205604D01*
X57868861Y-66178014D01*
X57883793Y-66141966D01*
X57885714Y-66122457D01*
X57885714Y-64449592D01*
X57987806Y-64347499D01*
X58237893Y-64222457D01*
X58619250Y-64222457D01*
X58854034Y-64339849D01*
X58971429Y-64574635D01*
X58971429Y-66122457D01*
X58973350Y-66141966D01*
X58988282Y-66178014D01*
X59015872Y-66205604D01*
X59051920Y-66220536D01*
X59090938Y-66220536D01*
X59126986Y-66205604D01*
X59154576Y-66178014D01*
X59169508Y-66141966D01*
X59171429Y-66122457D01*
X59171429Y-64574635D01*
X59288821Y-64339849D01*
X59523607Y-64222457D01*
X59904964Y-64222457D01*
X60139750Y-64339849D01*
X60257143Y-64574635D01*
X60257143Y-66122457D01*
X60259064Y-66141966D01*
X60273996Y-66178014D01*
X60301586Y-66205604D01*
X60337634Y-66220536D01*
X60376652Y-66220536D01*
X60412700Y-66205604D01*
X60440290Y-66178014D01*
X60455222Y-66141966D01*
X60457143Y-66122457D01*
X60457143Y-64551028D01*
X61542857Y-64551028D01*
X61542857Y-65693885D01*
X61544778Y-65713394D01*
X61546153Y-65716714D01*
X61546408Y-65720298D01*
X61553414Y-65738606D01*
X61696271Y-66024321D01*
X61698325Y-66027584D01*
X61698838Y-66029123D01*
X61700499Y-66031038D01*
X61706714Y-66040912D01*
X61716186Y-66049127D01*
X61724402Y-66058600D01*
X61734275Y-66064814D01*
X61736191Y-66066476D01*
X61737729Y-66066988D01*
X61740993Y-66069043D01*
X62026708Y-66211900D01*
X62045016Y-66218906D01*
X62048599Y-66219160D01*
X62051920Y-66220536D01*
X62071429Y-66222457D01*
X62642857Y-66222457D01*
X62662366Y-66220536D01*
X62665686Y-66219160D01*
X62669270Y-66218906D01*
X62687578Y-66211900D01*
X62973292Y-66069043D01*
X62989883Y-66058600D01*
X63015447Y-66029123D01*
X63027786Y-65992107D01*
X63025020Y-65953187D01*
X63007571Y-65918288D01*
X62978094Y-65892724D01*
X62941078Y-65880385D01*
X62902158Y-65883151D01*
X62883850Y-65890157D01*
X62619250Y-66022457D01*
X62095036Y-66022457D01*
X61860249Y-65905064D01*
X61742857Y-65670278D01*
X61742857Y-65204437D01*
X63090935Y-64934821D01*
X63090938Y-64934821D01*
X63090940Y-64934819D01*
X63091040Y-64934800D01*
X63109794Y-64929090D01*
X63117934Y-64923638D01*
X63126986Y-64919889D01*
X63133987Y-64912887D01*
X63142213Y-64907379D01*
X63147647Y-64899227D01*
X63154576Y-64892299D01*
X63158365Y-64883151D01*
X63163857Y-64874914D01*
X63165758Y-64865303D01*
X63169508Y-64856251D01*
X63171429Y-64836742D01*
X63171429Y-64551028D01*
X63169508Y-64531519D01*
X63168132Y-64528199D01*
X63167878Y-64524614D01*
X63160871Y-64506306D01*
X63018014Y-64220592D01*
X63015959Y-64217327D01*
X63015447Y-64215791D01*
X63013787Y-64213876D01*
X63007571Y-64204002D01*
X62998098Y-64195786D01*
X62989883Y-64186314D01*
X62980009Y-64180099D01*
X62978094Y-64178438D01*
X62976555Y-64177925D01*
X62973292Y-64175871D01*
X62866464Y-64122457D01*
X64257143Y-64122457D01*
X64257143Y-66122457D01*
X64259064Y-66141966D01*
X64273996Y-66178014D01*
X64301586Y-66205604D01*
X64337634Y-66220536D01*
X64376652Y-66220536D01*
X64412700Y-66205604D01*
X64440290Y-66178014D01*
X64455222Y-66141966D01*
X64457143Y-66122457D01*
X64457143Y-64449592D01*
X64559235Y-64347499D01*
X64809322Y-64222457D01*
X65190679Y-64222457D01*
X65425463Y-64339849D01*
X65542858Y-64574635D01*
X65542858Y-66122457D01*
X65544779Y-66141966D01*
X65559711Y-66178014D01*
X65587301Y-66205604D01*
X65623349Y-66220536D01*
X65662367Y-66220536D01*
X65698415Y-66205604D01*
X65726005Y-66178014D01*
X65740937Y-66141966D01*
X65742858Y-66122457D01*
X65742858Y-64551028D01*
X65740937Y-64531519D01*
X65739561Y-64528199D01*
X65739307Y-64524614D01*
X65732300Y-64506306D01*
X65589443Y-64220592D01*
X65587388Y-64217327D01*
X65586876Y-64215791D01*
X65585216Y-64213876D01*
X65579000Y-64204002D01*
X65569527Y-64195786D01*
X65561312Y-64186314D01*
X65551438Y-64180099D01*
X65549523Y-64178438D01*
X65547984Y-64177925D01*
X65544721Y-64175871D01*
X65398875Y-64102948D01*
X66544779Y-64102948D01*
X66544779Y-64141966D01*
X66559711Y-64178014D01*
X66587301Y-64205604D01*
X66623349Y-64220536D01*
X66642858Y-64222457D01*
X66971429Y-64222457D01*
X66971429Y-65693885D01*
X66973350Y-65713394D01*
X66974725Y-65716714D01*
X66974980Y-65720298D01*
X66981986Y-65738606D01*
X67124843Y-66024321D01*
X67126897Y-66027584D01*
X67127410Y-66029123D01*
X67129071Y-66031038D01*
X67135286Y-66040912D01*
X67144758Y-66049127D01*
X67152974Y-66058600D01*
X67162847Y-66064814D01*
X67164763Y-66066476D01*
X67166301Y-66066988D01*
X67169565Y-66069043D01*
X67455280Y-66211900D01*
X67473588Y-66218906D01*
X67477171Y-66219160D01*
X67480492Y-66220536D01*
X67500001Y-66222457D01*
X67785715Y-66222457D01*
X67805224Y-66220536D01*
X67841272Y-66205604D01*
X67868862Y-66178014D01*
X67883794Y-66141966D01*
X67883794Y-66102948D01*
X67868862Y-66066900D01*
X67841272Y-66039310D01*
X67805224Y-66024378D01*
X67785715Y-66022457D01*
X67523608Y-66022457D01*
X67288821Y-65905064D01*
X67171429Y-65670278D01*
X67171429Y-64222457D01*
X67785715Y-64222457D01*
X67805224Y-64220536D01*
X67841272Y-64205604D01*
X67868862Y-64178014D01*
X67883794Y-64141966D01*
X67883794Y-64102948D01*
X67868862Y-64066900D01*
X67841272Y-64039310D01*
X67805224Y-64024378D01*
X67785715Y-64022457D01*
X67171429Y-64022457D01*
X67171429Y-63122457D01*
X67169508Y-63102948D01*
X67154576Y-63066900D01*
X67126986Y-63039310D01*
X67090938Y-63024378D01*
X67051920Y-63024378D01*
X67015872Y-63039310D01*
X66988282Y-63066900D01*
X66973350Y-63102948D01*
X66971429Y-63122457D01*
X66971429Y-64022457D01*
X66642858Y-64022457D01*
X66623349Y-64024378D01*
X66587301Y-64039310D01*
X66559711Y-64066900D01*
X66544779Y-64102948D01*
X65398875Y-64102948D01*
X65259007Y-64033014D01*
X65240699Y-64026008D01*
X65237115Y-64025753D01*
X65233795Y-64024378D01*
X65214286Y-64022457D01*
X64785715Y-64022457D01*
X64766206Y-64024378D01*
X64762885Y-64025753D01*
X64759302Y-64026008D01*
X64740994Y-64033014D01*
X64457143Y-64174939D01*
X64457143Y-64122457D01*
X64455222Y-64102948D01*
X64440290Y-64066900D01*
X64412700Y-64039310D01*
X64376652Y-64024378D01*
X64337634Y-64024378D01*
X64301586Y-64039310D01*
X64273996Y-64066900D01*
X64259064Y-64102948D01*
X64257143Y-64122457D01*
X62866464Y-64122457D01*
X62687578Y-64033014D01*
X62669270Y-64026008D01*
X62665686Y-64025753D01*
X62662366Y-64024378D01*
X62642857Y-64022457D01*
X62071429Y-64022457D01*
X62051920Y-64024378D01*
X62048599Y-64025753D01*
X62045016Y-64026008D01*
X62026708Y-64033014D01*
X61740993Y-64175871D01*
X61737729Y-64177925D01*
X61736191Y-64178438D01*
X61734275Y-64180099D01*
X61724402Y-64186314D01*
X61716186Y-64195786D01*
X61706714Y-64204002D01*
X61700499Y-64213875D01*
X61698838Y-64215791D01*
X61698325Y-64217329D01*
X61696271Y-64220593D01*
X61553414Y-64506307D01*
X61546408Y-64524615D01*
X61546153Y-64528198D01*
X61544778Y-64531519D01*
X61542857Y-64551028D01*
X60457143Y-64551028D01*
X60455222Y-64531519D01*
X60453846Y-64528198D01*
X60453592Y-64524615D01*
X60446586Y-64506307D01*
X60303729Y-64220593D01*
X60301674Y-64217329D01*
X60301162Y-64215791D01*
X60299500Y-64213875D01*
X60293286Y-64204002D01*
X60283813Y-64195786D01*
X60275598Y-64186314D01*
X60265724Y-64180099D01*
X60263809Y-64178438D01*
X60262270Y-64177925D01*
X60259007Y-64175871D01*
X59973292Y-64033014D01*
X59954984Y-64026008D01*
X59951400Y-64025753D01*
X59948080Y-64024378D01*
X59928571Y-64022457D01*
X59500000Y-64022457D01*
X59480491Y-64024378D01*
X59477170Y-64025753D01*
X59473587Y-64026008D01*
X59455279Y-64033014D01*
X59169565Y-64175871D01*
X59166301Y-64177925D01*
X59164763Y-64178438D01*
X59162847Y-64180099D01*
X59152974Y-64186314D01*
X59144758Y-64195786D01*
X59135286Y-64204002D01*
X59129071Y-64213875D01*
X59127410Y-64215791D01*
X59126897Y-64217329D01*
X59124843Y-64220593D01*
X59071428Y-64327421D01*
X59018014Y-64220592D01*
X59015959Y-64217327D01*
X59015447Y-64215791D01*
X59013787Y-64213876D01*
X59007571Y-64204002D01*
X58998098Y-64195786D01*
X58989883Y-64186314D01*
X58980009Y-64180099D01*
X58978094Y-64178438D01*
X58976555Y-64177925D01*
X58973292Y-64175871D01*
X58687578Y-64033014D01*
X58669270Y-64026008D01*
X58665686Y-64025753D01*
X58662366Y-64024378D01*
X58642857Y-64022457D01*
X58214286Y-64022457D01*
X58194777Y-64024378D01*
X58191456Y-64025753D01*
X58187873Y-64026008D01*
X58169565Y-64033014D01*
X57885714Y-64174939D01*
X57885714Y-64122457D01*
X57883793Y-64102948D01*
X57868861Y-64066900D01*
X57841271Y-64039310D01*
X57805223Y-64024378D01*
X57766205Y-64024378D01*
X57730157Y-64039310D01*
X57702567Y-64066900D01*
X57687635Y-64102948D01*
X57685714Y-64122457D01*
X56295035Y-64122457D01*
X56116149Y-64033014D01*
X56097841Y-64026008D01*
X56094257Y-64025753D01*
X56090937Y-64024378D01*
X56071428Y-64022457D01*
X55500000Y-64022457D01*
X55480491Y-64024378D01*
X55477170Y-64025753D01*
X55473587Y-64026008D01*
X55455279Y-64033014D01*
X55169564Y-64175871D01*
X55166300Y-64177925D01*
X55164762Y-64178438D01*
X55162846Y-64180099D01*
X55152973Y-64186314D01*
X55144757Y-64195786D01*
X55135285Y-64204002D01*
X55129070Y-64213875D01*
X55127409Y-64215791D01*
X55126896Y-64217329D01*
X55124842Y-64220593D01*
X54981985Y-64506307D01*
X54974979Y-64524615D01*
X54974724Y-64528198D01*
X54973349Y-64531519D01*
X54971428Y-64551028D01*
X53742856Y-64551028D01*
X53742856Y-63122457D01*
X53740935Y-63102948D01*
X53726003Y-63066900D01*
X53698413Y-63039310D01*
X53662365Y-63024378D01*
X53623347Y-63024378D01*
X53587299Y-63039310D01*
X53559709Y-63066900D01*
X53544777Y-63102948D01*
X53542856Y-63122457D01*
X49784278Y-63122457D01*
X49713567Y-63051746D01*
X49698413Y-63039310D01*
X49662365Y-63024378D01*
X49623347Y-63024378D01*
X49597856Y-63034936D01*
X49587298Y-63039310D01*
X49572145Y-63051747D01*
X49429288Y-63194603D01*
X49416853Y-63209756D01*
X49416852Y-63209757D01*
X49401920Y-63245805D01*
X48028570Y-63245805D01*
X48028570Y-63122457D01*
X48026649Y-63102948D01*
X48011717Y-63066900D01*
X47984127Y-63039310D01*
X47948079Y-63024378D01*
X47909061Y-63024378D01*
X47873013Y-63039310D01*
X47845423Y-63066900D01*
X47830491Y-63102948D01*
X47828570Y-63122457D01*
X47828570Y-64022457D01*
X47499999Y-64022457D01*
X47480490Y-64024378D01*
X47444442Y-64039310D01*
X47416852Y-64066900D01*
X47401920Y-64102948D01*
X44597229Y-64102948D01*
X44596988Y-64098102D01*
X44580285Y-64062840D01*
X44551359Y-64036653D01*
X44514614Y-64023530D01*
X44475644Y-64025468D01*
X44440382Y-64042171D01*
X44414196Y-64071097D01*
X44405825Y-64088823D01*
X43785713Y-65825135D01*
X43165602Y-64088823D01*
X43157232Y-64071097D01*
X43131045Y-64042171D01*
X43095783Y-64025468D01*
X43056813Y-64023530D01*
X43020068Y-64036653D01*
X42991142Y-64062840D01*
X42974439Y-64098102D01*
X42972501Y-64137072D01*
X42977254Y-64156091D01*
X43678812Y-66120452D01*
X43414773Y-66780546D01*
X43297906Y-66897414D01*
X43026707Y-67033014D01*
X43010116Y-67043457D01*
X42984552Y-67072934D01*
X42972213Y-67109950D01*
X38352381Y-67109950D01*
X38352381Y-63122457D01*
X40542856Y-63122457D01*
X40542856Y-66122457D01*
X40544777Y-66141966D01*
X40559709Y-66178014D01*
X40587299Y-66205604D01*
X40623347Y-66220536D01*
X40662365Y-66220536D01*
X40698413Y-66205604D01*
X40726003Y-66178014D01*
X40740935Y-66141966D01*
X40741077Y-66140514D01*
X40883850Y-66211900D01*
X40902158Y-66218906D01*
X40905741Y-66219160D01*
X40909062Y-66220536D01*
X40928571Y-66222457D01*
X41499999Y-66222457D01*
X41519508Y-66220536D01*
X41522828Y-66219160D01*
X41526412Y-66218906D01*
X41544720Y-66211900D01*
X41830434Y-66069043D01*
X41838832Y-66063756D01*
X41841270Y-66062747D01*
X41844013Y-66060495D01*
X41847025Y-66058600D01*
X41848757Y-66056602D01*
X41856424Y-66050311D01*
X41999282Y-65907452D01*
X42005572Y-65899787D01*
X42007571Y-65898054D01*
X42009466Y-65895041D01*
X42011718Y-65892299D01*
X42012727Y-65889861D01*
X42018014Y-65881463D01*
X42160871Y-65595749D01*
X42167877Y-65577441D01*
X42168131Y-65573857D01*
X42169507Y-65570537D01*
X42171428Y-65551028D01*
X42171428Y-64693885D01*
X42169507Y-64674376D01*
X42168131Y-64671055D01*
X42167877Y-64667472D01*
X42160871Y-64649164D01*
X42018014Y-64363450D01*
X42012728Y-64355053D01*
X42011718Y-64352613D01*
X42009464Y-64349867D01*
X42007571Y-64346859D01*
X42005573Y-64345126D01*
X41999281Y-64337460D01*
X41856423Y-64194603D01*
X41848758Y-64188312D01*
X41847025Y-64186314D01*
X41844012Y-64184418D01*
X41841270Y-64182167D01*
X41838832Y-64181157D01*
X41830434Y-64175871D01*
X41544720Y-64033014D01*
X41526412Y-64026008D01*
X41522828Y-64025753D01*
X41519508Y-64024378D01*
X41499999Y-64022457D01*
X40928571Y-64022457D01*
X40909062Y-64024378D01*
X40905741Y-64025753D01*
X40902158Y-64026008D01*
X40883850Y-64033014D01*
X40742856Y-64103510D01*
X40742856Y-63122457D01*
X40740935Y-63102948D01*
X40726003Y-63066900D01*
X40698413Y-63039310D01*
X40662365Y-63024378D01*
X40623347Y-63024378D01*
X40587299Y-63039310D01*
X40559709Y-63066900D01*
X40544777Y-63102948D01*
X40542856Y-63122457D01*
X38352381Y-63122457D01*
X38352381Y-59578339D01*
X44542856Y-59578339D01*
X44542856Y-60006910D01*
X44543191Y-60010312D01*
X44542974Y-60011771D01*
X44544053Y-60019068D01*
X44544777Y-60026419D01*
X44545341Y-60027782D01*
X44545842Y-60031164D01*
X44688699Y-60602592D01*
X44689212Y-60604029D01*
X44689264Y-60604752D01*
X44692372Y-60612876D01*
X44695294Y-60621053D01*
X44695724Y-60621633D01*
X44696270Y-60623060D01*
X44839127Y-60908774D01*
X44844413Y-60917172D01*
X44845423Y-60919610D01*
X44847674Y-60922353D01*
X44849570Y-60925365D01*
X44851567Y-60927097D01*
X44857859Y-60934764D01*
X45143574Y-61220479D01*
X45158728Y-61232915D01*
X45162046Y-61234289D01*
X45164762Y-61236645D01*
X45182662Y-61244636D01*
X45611233Y-61387493D01*
X45620905Y-61389692D01*
X45623347Y-61390704D01*
X45626884Y-61391052D01*
X45630348Y-61391840D01*
X45632982Y-61391652D01*
X45642856Y-61392625D01*
X45928570Y-61392625D01*
X45938443Y-61391652D01*
X45941077Y-61391840D01*
X45944540Y-61391052D01*
X45948079Y-61390704D01*
X45950521Y-61389692D01*
X45960193Y-61387493D01*
X46388764Y-61244636D01*
X46406665Y-61236645D01*
X46409380Y-61234289D01*
X46412700Y-61232915D01*
X46427853Y-61220478D01*
X46570710Y-61077620D01*
X46583146Y-61062467D01*
X46598078Y-61026419D01*
X46599999Y-61006910D01*
X46599999Y-60006910D01*
X46598078Y-59987401D01*
X46583146Y-59951353D01*
X46555556Y-59923763D01*
X46519508Y-59908831D01*
X46499999Y-59906910D01*
X45928570Y-59906910D01*
X45909061Y-59908831D01*
X45873013Y-59923763D01*
X45845423Y-59951353D01*
X45830491Y-59987401D01*
X45830491Y-60026419D01*
X45845423Y-60062467D01*
X45873013Y-60090057D01*
X45909061Y-60104989D01*
X45928570Y-60106910D01*
X46399999Y-60106910D01*
X46399999Y-60965489D01*
X46303123Y-61062365D01*
X45912343Y-61192625D01*
X45659082Y-61192625D01*
X45268304Y-61062365D01*
X45010755Y-60804816D01*
X44880064Y-60543435D01*
X44742856Y-59994600D01*
X44742856Y-59590648D01*
X44880064Y-59041813D01*
X45010755Y-58780433D01*
X45268303Y-58522884D01*
X45659082Y-58392625D01*
X46047821Y-58392625D01*
X46312421Y-58524925D01*
X46330729Y-58531931D01*
X46369649Y-58534697D01*
X46406665Y-58522358D01*
X46436142Y-58496794D01*
X46453591Y-58461895D01*
X46456357Y-58422975D01*
X46444018Y-58385959D01*
X46418454Y-58356482D01*
X46401863Y-58346039D01*
X46295035Y-58292625D01*
X47685713Y-58292625D01*
X47685713Y-60864053D01*
X47687634Y-60883562D01*
X47689009Y-60886882D01*
X47689264Y-60890466D01*
X47696270Y-60908774D01*
X47839127Y-61194489D01*
X47841181Y-61197752D01*
X47841694Y-61199291D01*
X47843355Y-61201206D01*
X47849570Y-61211080D01*
X47859042Y-61219295D01*
X47867258Y-61228768D01*
X47877131Y-61234982D01*
X47879047Y-61236644D01*
X47880585Y-61237156D01*
X47883849Y-61239211D01*
X48169564Y-61382068D01*
X48187872Y-61389074D01*
X48226792Y-61391840D01*
X48263808Y-61379501D01*
X48293285Y-61353937D01*
X48310734Y-61319038D01*
X48313500Y-61280118D01*
X48301161Y-61243102D01*
X48275597Y-61213625D01*
X48259006Y-61203182D01*
X48003105Y-61075232D01*
X47885713Y-60840446D01*
X47885713Y-59292625D01*
X49257142Y-59292625D01*
X49257142Y-61292625D01*
X49259063Y-61312134D01*
X49273995Y-61348182D01*
X49301585Y-61375772D01*
X49337633Y-61390704D01*
X49376651Y-61390704D01*
X49412699Y-61375772D01*
X49440289Y-61348182D01*
X49455221Y-61312134D01*
X49457142Y-61292625D01*
X49457142Y-59292625D01*
X49455221Y-59273116D01*
X50259063Y-59273116D01*
X50259063Y-59312134D01*
X50273995Y-59348182D01*
X50301585Y-59375772D01*
X50337633Y-59390704D01*
X50357142Y-59392625D01*
X50685713Y-59392625D01*
X50685713Y-60864053D01*
X50687634Y-60883562D01*
X50689009Y-60886882D01*
X50689264Y-60890466D01*
X50696270Y-60908774D01*
X50839127Y-61194489D01*
X50841181Y-61197752D01*
X50841694Y-61199291D01*
X50843355Y-61201206D01*
X50849570Y-61211080D01*
X50859042Y-61219295D01*
X50867258Y-61228768D01*
X50877131Y-61234982D01*
X50879047Y-61236644D01*
X50880585Y-61237156D01*
X50883849Y-61239211D01*
X51169564Y-61382068D01*
X51187872Y-61389074D01*
X51191455Y-61389328D01*
X51194776Y-61390704D01*
X51214285Y-61392625D01*
X51499999Y-61392625D01*
X51519508Y-61390704D01*
X51555556Y-61375772D01*
X51583146Y-61348182D01*
X51598078Y-61312134D01*
X51598078Y-61273116D01*
X51583146Y-61237068D01*
X51555556Y-61209478D01*
X51519508Y-61194546D01*
X51499999Y-61192625D01*
X51237892Y-61192625D01*
X51003105Y-61075232D01*
X50885713Y-60840446D01*
X50885713Y-59864053D01*
X52257142Y-59864053D01*
X52257142Y-60721196D01*
X52259063Y-60740705D01*
X52260438Y-60744025D01*
X52260693Y-60747609D01*
X52267699Y-60765917D01*
X52410556Y-61051631D01*
X52415842Y-61060029D01*
X52416852Y-61062467D01*
X52419103Y-61065209D01*
X52420999Y-61068222D01*
X52422997Y-61069955D01*
X52429288Y-61077620D01*
X52572145Y-61220478D01*
X52579811Y-61226770D01*
X52581544Y-61228768D01*
X52584552Y-61230661D01*
X52587298Y-61232915D01*
X52589738Y-61233925D01*
X52598135Y-61239211D01*
X52883850Y-61382068D01*
X52902158Y-61389074D01*
X52905741Y-61389328D01*
X52909062Y-61390704D01*
X52928571Y-61392625D01*
X53499999Y-61392625D01*
X53519508Y-61390704D01*
X53522828Y-61389328D01*
X53526412Y-61389074D01*
X53544720Y-61382068D01*
X53830435Y-61239211D01*
X53847026Y-61228768D01*
X53872590Y-61199291D01*
X53884929Y-61162275D01*
X53882163Y-61123355D01*
X53864714Y-61088456D01*
X53835237Y-61062892D01*
X53798221Y-61050553D01*
X53759301Y-61053319D01*
X53740993Y-61060325D01*
X53476392Y-61192625D01*
X52952178Y-61192625D01*
X52702091Y-61067582D01*
X52582185Y-60947675D01*
X52457142Y-60697589D01*
X52457142Y-59887660D01*
X52582184Y-59637575D01*
X52702091Y-59517667D01*
X52952178Y-59392625D01*
X53476392Y-59392625D01*
X53740993Y-59524925D01*
X53759301Y-59531931D01*
X53798221Y-59534697D01*
X53835237Y-59522358D01*
X53864714Y-59496794D01*
X53882163Y-59461895D01*
X53884929Y-59422975D01*
X53872590Y-59385959D01*
X53847026Y-59356482D01*
X53830435Y-59346039D01*
X53544720Y-59203182D01*
X53526412Y-59196176D01*
X53522828Y-59195921D01*
X53519508Y-59194546D01*
X53499999Y-59192625D01*
X52928571Y-59192625D01*
X52909062Y-59194546D01*
X52905741Y-59195921D01*
X52902158Y-59196176D01*
X52883850Y-59203182D01*
X52598135Y-59346039D01*
X52589738Y-59351324D01*
X52587298Y-59352335D01*
X52584552Y-59354588D01*
X52581544Y-59356482D01*
X52579811Y-59358479D01*
X52572145Y-59364772D01*
X52429288Y-59507628D01*
X52422996Y-59515294D01*
X52420999Y-59517027D01*
X52419103Y-59520038D01*
X52416852Y-59522782D01*
X52415842Y-59525219D01*
X52410556Y-59533618D01*
X52267699Y-59819332D01*
X52260693Y-59837640D01*
X52260438Y-59841223D01*
X52259063Y-59844544D01*
X52257142Y-59864053D01*
X50885713Y-59864053D01*
X50885713Y-59392625D01*
X51499999Y-59392625D01*
X51519508Y-59390704D01*
X51555556Y-59375772D01*
X51583146Y-59348182D01*
X51598078Y-59312134D01*
X51598078Y-59273116D01*
X51583146Y-59237068D01*
X51555556Y-59209478D01*
X51519508Y-59194546D01*
X51499999Y-59192625D01*
X50885713Y-59192625D01*
X50885713Y-58292625D01*
X54971428Y-58292625D01*
X54971428Y-61292625D01*
X54973349Y-61312134D01*
X54988281Y-61348182D01*
X55015871Y-61375772D01*
X55051919Y-61390704D01*
X55090937Y-61390704D01*
X55126985Y-61375772D01*
X55154575Y-61348182D01*
X55169507Y-61312134D01*
X55171428Y-61292625D01*
X55171428Y-59619760D01*
X55273520Y-59517667D01*
X55523607Y-59392625D01*
X55904964Y-59392625D01*
X56139748Y-59510017D01*
X56257143Y-59744803D01*
X56257143Y-61292625D01*
X56259064Y-61312134D01*
X56273996Y-61348182D01*
X56301586Y-61375772D01*
X56337634Y-61390704D01*
X56376652Y-61390704D01*
X56412700Y-61375772D01*
X56440290Y-61348182D01*
X56455222Y-61312134D01*
X56457143Y-61292625D01*
X56457143Y-59721196D01*
X56455222Y-59701687D01*
X56453846Y-59698367D01*
X56453592Y-59694782D01*
X56446585Y-59676474D01*
X56303728Y-59390760D01*
X56301673Y-59387495D01*
X56301161Y-59385959D01*
X56299501Y-59384044D01*
X56293285Y-59374170D01*
X56283812Y-59365954D01*
X56275597Y-59356482D01*
X56265723Y-59350267D01*
X56263808Y-59348606D01*
X56262269Y-59348093D01*
X56259006Y-59346039D01*
X56152178Y-59292625D01*
X57685714Y-59292625D01*
X57685714Y-61292625D01*
X57687635Y-61312134D01*
X57702567Y-61348182D01*
X57730157Y-61375772D01*
X57766205Y-61390704D01*
X57805223Y-61390704D01*
X57841271Y-61375772D01*
X57868861Y-61348182D01*
X57883793Y-61312134D01*
X57885714Y-61292625D01*
X57885714Y-59292625D01*
X59114285Y-59292625D01*
X59114285Y-61292625D01*
X59116206Y-61312134D01*
X59131138Y-61348182D01*
X59158728Y-61375772D01*
X59194776Y-61390704D01*
X59233794Y-61390704D01*
X59269842Y-61375772D01*
X59297432Y-61348182D01*
X59312364Y-61312134D01*
X59314285Y-61292625D01*
X59314285Y-59619760D01*
X59416377Y-59517667D01*
X59666464Y-59392625D01*
X60047821Y-59392625D01*
X60282605Y-59510017D01*
X60400000Y-59744803D01*
X60400000Y-61292625D01*
X60401921Y-61312134D01*
X60416853Y-61348182D01*
X60444443Y-61375772D01*
X60480491Y-61390704D01*
X60519509Y-61390704D01*
X60555557Y-61375772D01*
X60583147Y-61348182D01*
X60598079Y-61312134D01*
X60600000Y-61292625D01*
X60600000Y-59864053D01*
X61685714Y-59864053D01*
X61685714Y-60721196D01*
X61687635Y-60740705D01*
X61689010Y-60744025D01*
X61689265Y-60747609D01*
X61696271Y-60765917D01*
X61839128Y-61051631D01*
X61844414Y-61060029D01*
X61845424Y-61062467D01*
X61847675Y-61065209D01*
X61849571Y-61068222D01*
X61851569Y-61069955D01*
X61857860Y-61077620D01*
X62000717Y-61220478D01*
X62008383Y-61226770D01*
X62010116Y-61228768D01*
X62013124Y-61230661D01*
X62015870Y-61232915D01*
X62018310Y-61233925D01*
X62026707Y-61239211D01*
X62312422Y-61382068D01*
X62330730Y-61389074D01*
X62334313Y-61389328D01*
X62337634Y-61390704D01*
X62357143Y-61392625D01*
X62928571Y-61392625D01*
X62948080Y-61390704D01*
X62951400Y-61389328D01*
X62954984Y-61389074D01*
X62973292Y-61382068D01*
X63114286Y-61311571D01*
X63114286Y-61697588D01*
X62989241Y-61947676D01*
X62869335Y-62067582D01*
X62619250Y-62192625D01*
X62237893Y-62192625D01*
X61973292Y-62060325D01*
X61954984Y-62053319D01*
X61916064Y-62050553D01*
X61879048Y-62062892D01*
X61849571Y-62088456D01*
X61832122Y-62123355D01*
X61829356Y-62162275D01*
X61841695Y-62199291D01*
X61867259Y-62228768D01*
X61883850Y-62239211D01*
X62169565Y-62382068D01*
X62187873Y-62389074D01*
X62191456Y-62389328D01*
X62194777Y-62390704D01*
X62214286Y-62392625D01*
X62642857Y-62392625D01*
X62662366Y-62390704D01*
X62665686Y-62389328D01*
X62669270Y-62389074D01*
X62687578Y-62382068D01*
X62973292Y-62239211D01*
X62981688Y-62233925D01*
X62984129Y-62232915D01*
X62986874Y-62230661D01*
X62989883Y-62228768D01*
X62991615Y-62226770D01*
X62999282Y-62220478D01*
X63142139Y-62077620D01*
X63148429Y-62069955D01*
X63150428Y-62068222D01*
X63152324Y-62065209D01*
X63154575Y-62062467D01*
X63155584Y-62060030D01*
X63160871Y-62051632D01*
X63303728Y-61765918D01*
X63310735Y-61747610D01*
X63310989Y-61744024D01*
X63312365Y-61740705D01*
X63314286Y-61721196D01*
X63314286Y-59292625D01*
X63312365Y-59273116D01*
X63297433Y-59237068D01*
X63269843Y-59209478D01*
X63233795Y-59194546D01*
X63194777Y-59194546D01*
X63158729Y-59209478D01*
X63131139Y-59237068D01*
X63116207Y-59273116D01*
X63116064Y-59274567D01*
X62973292Y-59203182D01*
X62954984Y-59196176D01*
X62951400Y-59195921D01*
X62948080Y-59194546D01*
X62928571Y-59192625D01*
X62357143Y-59192625D01*
X62337634Y-59194546D01*
X62334313Y-59195921D01*
X62330730Y-59196176D01*
X62312422Y-59203182D01*
X62026707Y-59346039D01*
X62018310Y-59351324D01*
X62015870Y-59352335D01*
X62013124Y-59354588D01*
X62010116Y-59356482D01*
X62008383Y-59358479D01*
X62000717Y-59364772D01*
X61857860Y-59507628D01*
X61851568Y-59515294D01*
X61849571Y-59517027D01*
X61847675Y-59520038D01*
X61845424Y-59522782D01*
X61844414Y-59525219D01*
X61839128Y-59533618D01*
X61696271Y-59819332D01*
X61689265Y-59837640D01*
X61689010Y-59841223D01*
X61687635Y-59844544D01*
X61685714Y-59864053D01*
X60600000Y-59864053D01*
X60600000Y-59721196D01*
X60598079Y-59701687D01*
X60596703Y-59698367D01*
X60596449Y-59694782D01*
X60589442Y-59676474D01*
X60446585Y-59390760D01*
X60444530Y-59387495D01*
X60444018Y-59385959D01*
X60442358Y-59384044D01*
X60436142Y-59374170D01*
X60426669Y-59365954D01*
X60418454Y-59356482D01*
X60408580Y-59350267D01*
X60406665Y-59348606D01*
X60405126Y-59348093D01*
X60401863Y-59346039D01*
X60116149Y-59203182D01*
X60097841Y-59196176D01*
X60094257Y-59195921D01*
X60090937Y-59194546D01*
X60071428Y-59192625D01*
X59642857Y-59192625D01*
X59623348Y-59194546D01*
X59620027Y-59195921D01*
X59616444Y-59196176D01*
X59598136Y-59203182D01*
X59314285Y-59345107D01*
X59314285Y-59292625D01*
X59312364Y-59273116D01*
X59297432Y-59237068D01*
X59269842Y-59209478D01*
X59233794Y-59194546D01*
X59194776Y-59194546D01*
X59158728Y-59209478D01*
X59131138Y-59237068D01*
X59116206Y-59273116D01*
X59114285Y-59292625D01*
X57885714Y-59292625D01*
X57883793Y-59273116D01*
X57868861Y-59237068D01*
X57841271Y-59209478D01*
X57805223Y-59194546D01*
X57766205Y-59194546D01*
X57730157Y-59209478D01*
X57702567Y-59237068D01*
X57687635Y-59273116D01*
X57685714Y-59292625D01*
X56152178Y-59292625D01*
X55973292Y-59203182D01*
X55954984Y-59196176D01*
X55951400Y-59195921D01*
X55948080Y-59194546D01*
X55928571Y-59192625D01*
X55500000Y-59192625D01*
X55480491Y-59194546D01*
X55477170Y-59195921D01*
X55473587Y-59196176D01*
X55455279Y-59203182D01*
X55171428Y-59345107D01*
X55171428Y-58415973D01*
X57544778Y-58415973D01*
X57544778Y-58454991D01*
X57559710Y-58491039D01*
X57572146Y-58506193D01*
X57715003Y-58649049D01*
X57730156Y-58661486D01*
X57740714Y-58665859D01*
X57766205Y-58676418D01*
X57805223Y-58676418D01*
X57841271Y-58661486D01*
X57856425Y-58649050D01*
X57999281Y-58506193D01*
X58011718Y-58491040D01*
X58026649Y-58454991D01*
X58026649Y-58415973D01*
X58023789Y-58409069D01*
X58011718Y-58379924D01*
X57999281Y-58364771D01*
X57856425Y-58221914D01*
X57841271Y-58209478D01*
X57805223Y-58194546D01*
X57766205Y-58194546D01*
X57740714Y-58205104D01*
X57730156Y-58209478D01*
X57715003Y-58221915D01*
X57572146Y-58364771D01*
X57559711Y-58379924D01*
X57559710Y-58379925D01*
X57544778Y-58415973D01*
X55171428Y-58415973D01*
X55171428Y-58292625D01*
X55169507Y-58273116D01*
X55154575Y-58237068D01*
X55126985Y-58209478D01*
X55090937Y-58194546D01*
X55051919Y-58194546D01*
X55015871Y-58209478D01*
X54988281Y-58237068D01*
X54973349Y-58273116D01*
X54971428Y-58292625D01*
X50885713Y-58292625D01*
X50883792Y-58273116D01*
X50868860Y-58237068D01*
X50841270Y-58209478D01*
X50805222Y-58194546D01*
X50766204Y-58194546D01*
X50730156Y-58209478D01*
X50702566Y-58237068D01*
X50687634Y-58273116D01*
X50685713Y-58292625D01*
X50685713Y-59192625D01*
X50357142Y-59192625D01*
X50337633Y-59194546D01*
X50301585Y-59209478D01*
X50273995Y-59237068D01*
X50259063Y-59273116D01*
X49455221Y-59273116D01*
X49440289Y-59237068D01*
X49412699Y-59209478D01*
X49376651Y-59194546D01*
X49337633Y-59194546D01*
X49301585Y-59209478D01*
X49273995Y-59237068D01*
X49259063Y-59273116D01*
X49257142Y-59292625D01*
X47885713Y-59292625D01*
X47885713Y-58415973D01*
X49116206Y-58415973D01*
X49116206Y-58454991D01*
X49131138Y-58491039D01*
X49143574Y-58506193D01*
X49286431Y-58649049D01*
X49301584Y-58661486D01*
X49312142Y-58665859D01*
X49337633Y-58676418D01*
X49376651Y-58676418D01*
X49412699Y-58661486D01*
X49427853Y-58649050D01*
X49570709Y-58506193D01*
X49583146Y-58491040D01*
X49598077Y-58454991D01*
X49598077Y-58415973D01*
X49595217Y-58409069D01*
X49583146Y-58379924D01*
X49570709Y-58364771D01*
X49427853Y-58221914D01*
X49412699Y-58209478D01*
X49376651Y-58194546D01*
X49337633Y-58194546D01*
X49312142Y-58205104D01*
X49301584Y-58209478D01*
X49286431Y-58221915D01*
X49143574Y-58364771D01*
X49131139Y-58379924D01*
X49131138Y-58379925D01*
X49116206Y-58415973D01*
X47885713Y-58415973D01*
X47885713Y-58292625D01*
X47883792Y-58273116D01*
X47868860Y-58237068D01*
X47841270Y-58209478D01*
X47805222Y-58194546D01*
X47766204Y-58194546D01*
X47730156Y-58209478D01*
X47702566Y-58237068D01*
X47687634Y-58273116D01*
X47685713Y-58292625D01*
X46295035Y-58292625D01*
X46116149Y-58203182D01*
X46097841Y-58196176D01*
X46094257Y-58195921D01*
X46090937Y-58194546D01*
X46071428Y-58192625D01*
X45642856Y-58192625D01*
X45632982Y-58193597D01*
X45630348Y-58193410D01*
X45626884Y-58194197D01*
X45623347Y-58194546D01*
X45620905Y-58195557D01*
X45611233Y-58197757D01*
X45182662Y-58340614D01*
X45164762Y-58348605D01*
X45162045Y-58350960D01*
X45158728Y-58352335D01*
X45143574Y-58364771D01*
X44857859Y-58650485D01*
X44851565Y-58658153D01*
X44849570Y-58659884D01*
X44847676Y-58662891D01*
X44845423Y-58665638D01*
X44844412Y-58668078D01*
X44839127Y-58676475D01*
X44696270Y-58962189D01*
X44695724Y-58963615D01*
X44695294Y-58964196D01*
X44692372Y-58972372D01*
X44689264Y-58980497D01*
X44689212Y-58981219D01*
X44688699Y-58982657D01*
X44545842Y-59554085D01*
X44545341Y-59557466D01*
X44544777Y-59558830D01*
X44544053Y-59566180D01*
X44542974Y-59573478D01*
X44543191Y-59574936D01*
X44542856Y-59578339D01*
X38352381Y-59578339D01*
X38352381Y-54748507D01*
X38685714Y-54748507D01*
X38685714Y-55177078D01*
X38686049Y-55180480D01*
X38685832Y-55181939D01*
X38686911Y-55189236D01*
X38687635Y-55196587D01*
X38688199Y-55197950D01*
X38688700Y-55201332D01*
X38831557Y-55772760D01*
X38832070Y-55774197D01*
X38832122Y-55774920D01*
X38835230Y-55783044D01*
X38838152Y-55791221D01*
X38838582Y-55791801D01*
X38839128Y-55793228D01*
X38981985Y-56078942D01*
X38987271Y-56087340D01*
X38988281Y-56089778D01*
X38990532Y-56092521D01*
X38992428Y-56095533D01*
X38994425Y-56097265D01*
X39000717Y-56104932D01*
X39286432Y-56390647D01*
X39301586Y-56403083D01*
X39304904Y-56404457D01*
X39307620Y-56406813D01*
X39325520Y-56414804D01*
X39754091Y-56557661D01*
X39763763Y-56559860D01*
X39766205Y-56560872D01*
X39769742Y-56561220D01*
X39773206Y-56562008D01*
X39775840Y-56561820D01*
X39785714Y-56562793D01*
X40071428Y-56562793D01*
X40081301Y-56561820D01*
X40083935Y-56562008D01*
X40087398Y-56561220D01*
X40090937Y-56560872D01*
X40093379Y-56559860D01*
X40103051Y-56557661D01*
X40531622Y-56414804D01*
X40549523Y-56406813D01*
X40552238Y-56404457D01*
X40555558Y-56403083D01*
X40570711Y-56390646D01*
X40713568Y-56247788D01*
X40726004Y-56232635D01*
X40740936Y-56196587D01*
X40740935Y-56157569D01*
X40726004Y-56121520D01*
X40698414Y-56093931D01*
X40662366Y-56078999D01*
X40623348Y-56079000D01*
X40587299Y-56093931D01*
X40572146Y-56106368D01*
X40445981Y-56232533D01*
X40055201Y-56362793D01*
X39801940Y-56362793D01*
X39411162Y-56232533D01*
X39153613Y-55974984D01*
X39022922Y-55713603D01*
X38885714Y-55164768D01*
X38885714Y-54760816D01*
X38960219Y-54462793D01*
X41685714Y-54462793D01*
X41685714Y-55462793D01*
X41686049Y-55466195D01*
X41685832Y-55467654D01*
X41686911Y-55474951D01*
X41687635Y-55482302D01*
X41688199Y-55483665D01*
X41688700Y-55487047D01*
X41831557Y-56058475D01*
X41838152Y-56076936D01*
X41842579Y-56082911D01*
X41845424Y-56089778D01*
X41857860Y-56104932D01*
X42143575Y-56390647D01*
X42151241Y-56396938D01*
X42152974Y-56398936D01*
X42155985Y-56400831D01*
X42158729Y-56403083D01*
X42161166Y-56404092D01*
X42169565Y-56409379D01*
X42455279Y-56552236D01*
X42473587Y-56559242D01*
X42477170Y-56559496D01*
X42480491Y-56560872D01*
X42500000Y-56562793D01*
X43071428Y-56562793D01*
X43090937Y-56560872D01*
X43094257Y-56559496D01*
X43097841Y-56559242D01*
X43116149Y-56552236D01*
X43401864Y-56409379D01*
X43410260Y-56404093D01*
X43412701Y-56403083D01*
X43415447Y-56400829D01*
X43418455Y-56398936D01*
X43420185Y-56396940D01*
X43427854Y-56390647D01*
X43713568Y-56104932D01*
X43726004Y-56089778D01*
X43728848Y-56082910D01*
X43733276Y-56076935D01*
X43739871Y-56058475D01*
X43882728Y-55487046D01*
X43883227Y-55483666D01*
X43883793Y-55482302D01*
X43884516Y-55474950D01*
X43885596Y-55467654D01*
X43885378Y-55466195D01*
X43885714Y-55462793D01*
X43885714Y-54462793D01*
X43885378Y-54459389D01*
X43885596Y-54457931D01*
X43884516Y-54450632D01*
X43883793Y-54443284D01*
X43883228Y-54441920D01*
X43882728Y-54438539D01*
X43739871Y-53867110D01*
X43733276Y-53848650D01*
X43728850Y-53842677D01*
X43726005Y-53835807D01*
X43713568Y-53820654D01*
X43427854Y-53534939D01*
X43420187Y-53528647D01*
X43418455Y-53526650D01*
X43415443Y-53524754D01*
X43412700Y-53522503D01*
X43410262Y-53521493D01*
X43401864Y-53516207D01*
X43295036Y-53462793D01*
X44971428Y-53462793D01*
X44971428Y-56462793D01*
X44973349Y-56482302D01*
X44988281Y-56518350D01*
X45015871Y-56545940D01*
X45051919Y-56560872D01*
X45090937Y-56560872D01*
X45126985Y-56545940D01*
X45154575Y-56518350D01*
X45169507Y-56482302D01*
X45171428Y-56462793D01*
X45171428Y-55134221D01*
X46214285Y-55134221D01*
X46233794Y-55132300D01*
X46237114Y-55130924D01*
X46240698Y-55130670D01*
X46259006Y-55123664D01*
X46544721Y-54980807D01*
X46553119Y-54975520D01*
X46555557Y-54974511D01*
X46558300Y-54972259D01*
X46561312Y-54970364D01*
X46563044Y-54968366D01*
X46570711Y-54962075D01*
X46713567Y-54819218D01*
X46719859Y-54811551D01*
X46721857Y-54809819D01*
X46723750Y-54806810D01*
X46726004Y-54804065D01*
X46727014Y-54801624D01*
X46732300Y-54793228D01*
X46875157Y-54507514D01*
X46882163Y-54489206D01*
X46882417Y-54485622D01*
X46883793Y-54482302D01*
X46885714Y-54462793D01*
X46885714Y-54034221D01*
X46883793Y-54014712D01*
X46882417Y-54011391D01*
X46882163Y-54007808D01*
X46875157Y-53989500D01*
X46732300Y-53703786D01*
X46727014Y-53695389D01*
X46726004Y-53692949D01*
X46723750Y-53690203D01*
X46721857Y-53687195D01*
X46719859Y-53685462D01*
X46713567Y-53677796D01*
X46570711Y-53534939D01*
X46563044Y-53528647D01*
X46561312Y-53526650D01*
X46558300Y-53524754D01*
X46555557Y-53522503D01*
X46553119Y-53521493D01*
X46544721Y-53516207D01*
X46433429Y-53460561D01*
X47542882Y-53460561D01*
X47549638Y-53498990D01*
X47558491Y-53516481D01*
X48542857Y-55063341D01*
X48542857Y-56462793D01*
X48544778Y-56482302D01*
X48559710Y-56518350D01*
X48587300Y-56545940D01*
X48623348Y-56560872D01*
X48662366Y-56560872D01*
X48698414Y-56545940D01*
X48726004Y-56518350D01*
X48740936Y-56482302D01*
X48742857Y-56462793D01*
X48742857Y-55063341D01*
X48761388Y-55034221D01*
X52685714Y-55034221D01*
X52685714Y-55891364D01*
X52687635Y-55910873D01*
X52689010Y-55914193D01*
X52689265Y-55917777D01*
X52696271Y-55936085D01*
X52839128Y-56221799D01*
X52844414Y-56230197D01*
X52845424Y-56232635D01*
X52847675Y-56235377D01*
X52849571Y-56238390D01*
X52851569Y-56240123D01*
X52857860Y-56247788D01*
X53000717Y-56390646D01*
X53008383Y-56396938D01*
X53010116Y-56398936D01*
X53013124Y-56400829D01*
X53015870Y-56403083D01*
X53018310Y-56404093D01*
X53026707Y-56409379D01*
X53312422Y-56552236D01*
X53330730Y-56559242D01*
X53334313Y-56559496D01*
X53337634Y-56560872D01*
X53357143Y-56562793D01*
X53785714Y-56562793D01*
X53805223Y-56560872D01*
X53808543Y-56559496D01*
X53812127Y-56559242D01*
X53830435Y-56552236D01*
X54116149Y-56409379D01*
X54124547Y-56404092D01*
X54126985Y-56403083D01*
X54129728Y-56400831D01*
X54132740Y-56398936D01*
X54134472Y-56396938D01*
X54142139Y-56390647D01*
X54284997Y-56247788D01*
X54291287Y-56240123D01*
X54293286Y-56238390D01*
X54295181Y-56235377D01*
X54297433Y-56232635D01*
X54298442Y-56230197D01*
X54303729Y-56221799D01*
X54446586Y-55936085D01*
X54453592Y-55917777D01*
X54453846Y-55914193D01*
X54455222Y-55910873D01*
X54457143Y-55891364D01*
X54457143Y-55034221D01*
X54455222Y-55014712D01*
X54453846Y-55011391D01*
X54453592Y-55007808D01*
X54446586Y-54989500D01*
X54303729Y-54703786D01*
X54298443Y-54695389D01*
X54297433Y-54692949D01*
X54295179Y-54690203D01*
X54293286Y-54687195D01*
X54291288Y-54685462D01*
X54284996Y-54677796D01*
X54142138Y-54534939D01*
X54134473Y-54528648D01*
X54132740Y-54526650D01*
X54129727Y-54524754D01*
X54126985Y-54522503D01*
X54124547Y-54521493D01*
X54116149Y-54516207D01*
X53970303Y-54443284D01*
X55116207Y-54443284D01*
X55116207Y-54482302D01*
X55131139Y-54518350D01*
X55158729Y-54545940D01*
X55194777Y-54560872D01*
X55214286Y-54562793D01*
X55542857Y-54562793D01*
X55542857Y-56462793D01*
X55544778Y-56482302D01*
X55559710Y-56518350D01*
X55587300Y-56545940D01*
X55623348Y-56560872D01*
X55662366Y-56560872D01*
X55698414Y-56545940D01*
X55726004Y-56518350D01*
X55740936Y-56482302D01*
X55742857Y-56462793D01*
X55742857Y-54562793D01*
X56357143Y-54562793D01*
X56376652Y-54560872D01*
X56412700Y-54545940D01*
X56440290Y-54518350D01*
X56455222Y-54482302D01*
X56455222Y-54443284D01*
X56440290Y-54407236D01*
X56412700Y-54379646D01*
X56376652Y-54364714D01*
X56357143Y-54362793D01*
X55742857Y-54362793D01*
X55742857Y-53914971D01*
X55860249Y-53680185D01*
X56095036Y-53562793D01*
X56357143Y-53562793D01*
X56376652Y-53560872D01*
X56412700Y-53545940D01*
X56440290Y-53518350D01*
X56455222Y-53482302D01*
X56455222Y-53462793D01*
X59542857Y-53462793D01*
X59542857Y-56462793D01*
X59544778Y-56482302D01*
X59559710Y-56518350D01*
X59587300Y-56545940D01*
X59623348Y-56560872D01*
X59642857Y-56562793D01*
X60785714Y-56562793D01*
X60805223Y-56560872D01*
X60808543Y-56559496D01*
X60812127Y-56559242D01*
X60830435Y-56552236D01*
X61116150Y-56409379D01*
X61124546Y-56404093D01*
X61126987Y-56403083D01*
X61129732Y-56400829D01*
X61132741Y-56398936D01*
X61134473Y-56396938D01*
X61142140Y-56390646D01*
X61284997Y-56247788D01*
X61291287Y-56240123D01*
X61293286Y-56238390D01*
X61295181Y-56235377D01*
X61297433Y-56232635D01*
X61298442Y-56230197D01*
X61303729Y-56221799D01*
X61446586Y-55936085D01*
X61453592Y-55917777D01*
X61453846Y-55914193D01*
X61455222Y-55910873D01*
X61457143Y-55891364D01*
X61457143Y-55462793D01*
X61455222Y-55443284D01*
X61453846Y-55439963D01*
X61453592Y-55436380D01*
X61446586Y-55418072D01*
X61303729Y-55132357D01*
X61298443Y-55123960D01*
X61297433Y-55121520D01*
X61295179Y-55118774D01*
X61293286Y-55115766D01*
X61291288Y-55114033D01*
X61284996Y-55106367D01*
X61142140Y-54963510D01*
X61126986Y-54951074D01*
X61123667Y-54949699D01*
X61120952Y-54947344D01*
X61103051Y-54939353D01*
X60903512Y-54872840D01*
X60973293Y-54837950D01*
X60981691Y-54832663D01*
X60984129Y-54831654D01*
X60986872Y-54829402D01*
X60989884Y-54827507D01*
X60991616Y-54825509D01*
X60999283Y-54819218D01*
X61142139Y-54676361D01*
X61148431Y-54668694D01*
X61150429Y-54666962D01*
X61152322Y-54663953D01*
X61154576Y-54661208D01*
X61155586Y-54658767D01*
X61160872Y-54650371D01*
X61254661Y-54462793D01*
X62400000Y-54462793D01*
X62400000Y-55462793D01*
X62400335Y-55466195D01*
X62400118Y-55467654D01*
X62401197Y-55474951D01*
X62401921Y-55482302D01*
X62402485Y-55483665D01*
X62402986Y-55487047D01*
X62545843Y-56058475D01*
X62552438Y-56076936D01*
X62556865Y-56082911D01*
X62559710Y-56089778D01*
X62572146Y-56104932D01*
X62857861Y-56390647D01*
X62865527Y-56396938D01*
X62867260Y-56398936D01*
X62870271Y-56400831D01*
X62873015Y-56403083D01*
X62875452Y-56404092D01*
X62883851Y-56409379D01*
X63169565Y-56552236D01*
X63187873Y-56559242D01*
X63191456Y-56559496D01*
X63194777Y-56560872D01*
X63214286Y-56562793D01*
X63785714Y-56562793D01*
X63805223Y-56560872D01*
X63808543Y-56559496D01*
X63812127Y-56559242D01*
X63830435Y-56552236D01*
X64116150Y-56409379D01*
X64124546Y-56404093D01*
X64126987Y-56403083D01*
X64129733Y-56400829D01*
X64132741Y-56398936D01*
X64134471Y-56396940D01*
X64142140Y-56390647D01*
X64427854Y-56104932D01*
X64440290Y-56089778D01*
X64443134Y-56082910D01*
X64447562Y-56076935D01*
X64454157Y-56058475D01*
X64597014Y-55487046D01*
X64597513Y-55483666D01*
X64598079Y-55482302D01*
X64598802Y-55474950D01*
X64599882Y-55467654D01*
X64599664Y-55466195D01*
X64600000Y-55462793D01*
X64600000Y-54462793D01*
X64599664Y-54459389D01*
X64599882Y-54457931D01*
X64598802Y-54450632D01*
X64598079Y-54443284D01*
X64597514Y-54441920D01*
X64597014Y-54438539D01*
X64454157Y-53867110D01*
X64447562Y-53848650D01*
X64443136Y-53842677D01*
X64440291Y-53835807D01*
X64427854Y-53820654D01*
X64142140Y-53534939D01*
X64134473Y-53528647D01*
X64132741Y-53526650D01*
X64129729Y-53524754D01*
X64126986Y-53522503D01*
X64124548Y-53521493D01*
X64116150Y-53516207D01*
X64009322Y-53462793D01*
X65685714Y-53462793D01*
X65685714Y-56462793D01*
X65687635Y-56482302D01*
X65702567Y-56518350D01*
X65730157Y-56545940D01*
X65766205Y-56560872D01*
X65785714Y-56562793D01*
X67214286Y-56562793D01*
X67233795Y-56560872D01*
X67269843Y-56545940D01*
X67297433Y-56518350D01*
X67312365Y-56482302D01*
X67312365Y-56443284D01*
X67297433Y-56407236D01*
X67269843Y-56379646D01*
X67233795Y-56364714D01*
X67214286Y-56362793D01*
X65885714Y-56362793D01*
X65885714Y-53462793D01*
X65883793Y-53443284D01*
X67687635Y-53443284D01*
X67687635Y-53482302D01*
X67702567Y-53518350D01*
X67730157Y-53545940D01*
X67766205Y-53560872D01*
X67785714Y-53562793D01*
X68542857Y-53562793D01*
X68542857Y-56462793D01*
X68544778Y-56482302D01*
X68559710Y-56518350D01*
X68587300Y-56545940D01*
X68623348Y-56560872D01*
X68662366Y-56560872D01*
X68698414Y-56545940D01*
X68726004Y-56518350D01*
X68740936Y-56482302D01*
X68742857Y-56462793D01*
X68742857Y-53562793D01*
X69500000Y-53562793D01*
X69519509Y-53560872D01*
X69555557Y-53545940D01*
X69583147Y-53518350D01*
X69598079Y-53482302D01*
X69598079Y-53443284D01*
X69583147Y-53407236D01*
X69555557Y-53379646D01*
X69519509Y-53364714D01*
X69500000Y-53362793D01*
X67785714Y-53362793D01*
X67766205Y-53364714D01*
X67730157Y-53379646D01*
X67702567Y-53407236D01*
X67687635Y-53443284D01*
X65883793Y-53443284D01*
X65868861Y-53407236D01*
X65841271Y-53379646D01*
X65805223Y-53364714D01*
X65766205Y-53364714D01*
X65730157Y-53379646D01*
X65702567Y-53407236D01*
X65687635Y-53443284D01*
X65685714Y-53462793D01*
X64009322Y-53462793D01*
X63830435Y-53373350D01*
X63812127Y-53366344D01*
X63808543Y-53366089D01*
X63805223Y-53364714D01*
X63785714Y-53362793D01*
X63214286Y-53362793D01*
X63194777Y-53364714D01*
X63191456Y-53366089D01*
X63187873Y-53366344D01*
X63169565Y-53373350D01*
X62883851Y-53516207D01*
X62875452Y-53521493D01*
X62873015Y-53522503D01*
X62870271Y-53524754D01*
X62867260Y-53526650D01*
X62865527Y-53528647D01*
X62857861Y-53534939D01*
X62572146Y-53820653D01*
X62559710Y-53835806D01*
X62556864Y-53842676D01*
X62552438Y-53848650D01*
X62545843Y-53867111D01*
X62402986Y-54438539D01*
X62402485Y-54441920D01*
X62401921Y-54443284D01*
X62401197Y-54450634D01*
X62400118Y-54457932D01*
X62400335Y-54459390D01*
X62400000Y-54462793D01*
X61254661Y-54462793D01*
X61303729Y-54364657D01*
X61310735Y-54346349D01*
X61310989Y-54342765D01*
X61312365Y-54339445D01*
X61314286Y-54319936D01*
X61314286Y-54034221D01*
X61312365Y-54014712D01*
X61310989Y-54011391D01*
X61310735Y-54007808D01*
X61303729Y-53989500D01*
X61160872Y-53703786D01*
X61155586Y-53695389D01*
X61154576Y-53692949D01*
X61152322Y-53690203D01*
X61150429Y-53687195D01*
X61148431Y-53685462D01*
X61142139Y-53677796D01*
X60999283Y-53534939D01*
X60991616Y-53528647D01*
X60989884Y-53526650D01*
X60986872Y-53524754D01*
X60984129Y-53522503D01*
X60981691Y-53521493D01*
X60973293Y-53516207D01*
X60687578Y-53373350D01*
X60669270Y-53366344D01*
X60665686Y-53366089D01*
X60662366Y-53364714D01*
X60642857Y-53362793D01*
X59642857Y-53362793D01*
X59623348Y-53364714D01*
X59587300Y-53379646D01*
X59559710Y-53407236D01*
X59544778Y-53443284D01*
X59542857Y-53462793D01*
X56455222Y-53462793D01*
X56455222Y-53443284D01*
X56440290Y-53407236D01*
X56412700Y-53379646D01*
X56376652Y-53364714D01*
X56357143Y-53362793D01*
X56071429Y-53362793D01*
X56051920Y-53364714D01*
X56048599Y-53366089D01*
X56045016Y-53366344D01*
X56026708Y-53373350D01*
X55740993Y-53516207D01*
X55737729Y-53518261D01*
X55736191Y-53518774D01*
X55734275Y-53520435D01*
X55724402Y-53526650D01*
X55716186Y-53536122D01*
X55706714Y-53544338D01*
X55700499Y-53554211D01*
X55698838Y-53556127D01*
X55698325Y-53557665D01*
X55696271Y-53560929D01*
X55553414Y-53846643D01*
X55546408Y-53864951D01*
X55546153Y-53868534D01*
X55544778Y-53871855D01*
X55542857Y-53891364D01*
X55542857Y-54362793D01*
X55214286Y-54362793D01*
X55194777Y-54364714D01*
X55158729Y-54379646D01*
X55131139Y-54407236D01*
X55116207Y-54443284D01*
X53970303Y-54443284D01*
X53830435Y-54373350D01*
X53812127Y-54366344D01*
X53808543Y-54366089D01*
X53805223Y-54364714D01*
X53785714Y-54362793D01*
X53357143Y-54362793D01*
X53337634Y-54364714D01*
X53334313Y-54366089D01*
X53330730Y-54366344D01*
X53312422Y-54373350D01*
X53026707Y-54516207D01*
X53018310Y-54521492D01*
X53015870Y-54522503D01*
X53013124Y-54524756D01*
X53010116Y-54526650D01*
X53008383Y-54528647D01*
X53000717Y-54534940D01*
X52857860Y-54677796D01*
X52851568Y-54685462D01*
X52849571Y-54687195D01*
X52847675Y-54690206D01*
X52845424Y-54692950D01*
X52844414Y-54695387D01*
X52839128Y-54703786D01*
X52696271Y-54989500D01*
X52689265Y-55007808D01*
X52689010Y-55011391D01*
X52687635Y-55014712D01*
X52685714Y-55034221D01*
X48761388Y-55034221D01*
X49727223Y-53516480D01*
X49736076Y-53498990D01*
X49742832Y-53460561D01*
X49734368Y-53422472D01*
X49711972Y-53390521D01*
X49679054Y-53369573D01*
X49640625Y-53362818D01*
X49602536Y-53371282D01*
X49570586Y-53393678D01*
X49558491Y-53409105D01*
X48642856Y-54847958D01*
X47727223Y-53409105D01*
X47715129Y-53393678D01*
X47683178Y-53371282D01*
X47645089Y-53362818D01*
X47606660Y-53369574D01*
X47573742Y-53390521D01*
X47551346Y-53422472D01*
X47542882Y-53460561D01*
X46433429Y-53460561D01*
X46259006Y-53373350D01*
X46240698Y-53366344D01*
X46237114Y-53366089D01*
X46233794Y-53364714D01*
X46214285Y-53362793D01*
X45071428Y-53362793D01*
X45051919Y-53364714D01*
X45015871Y-53379646D01*
X44988281Y-53407236D01*
X44973349Y-53443284D01*
X44971428Y-53462793D01*
X43295036Y-53462793D01*
X43116149Y-53373350D01*
X43097841Y-53366344D01*
X43094257Y-53366089D01*
X43090937Y-53364714D01*
X43071428Y-53362793D01*
X42500000Y-53362793D01*
X42480491Y-53364714D01*
X42477170Y-53366089D01*
X42473587Y-53366344D01*
X42455279Y-53373350D01*
X42169565Y-53516207D01*
X42161166Y-53521493D01*
X42158729Y-53522503D01*
X42155985Y-53524754D01*
X42152974Y-53526650D01*
X42151241Y-53528647D01*
X42143575Y-53534939D01*
X41857860Y-53820653D01*
X41845424Y-53835806D01*
X41842578Y-53842676D01*
X41838152Y-53848650D01*
X41831557Y-53867111D01*
X41688700Y-54438539D01*
X41688199Y-54441920D01*
X41687635Y-54443284D01*
X41686911Y-54450634D01*
X41685832Y-54457932D01*
X41686049Y-54459390D01*
X41685714Y-54462793D01*
X38960219Y-54462793D01*
X39022922Y-54211981D01*
X39153613Y-53950601D01*
X39411161Y-53693052D01*
X39801940Y-53562793D01*
X40055201Y-53562793D01*
X40445980Y-53693052D01*
X40572146Y-53819217D01*
X40587299Y-53831654D01*
X40623348Y-53846585D01*
X40662366Y-53846585D01*
X40698414Y-53831654D01*
X40726004Y-53804064D01*
X40740935Y-53768016D01*
X40740935Y-53728998D01*
X40726004Y-53692949D01*
X40713567Y-53677796D01*
X40570711Y-53534939D01*
X40555557Y-53522503D01*
X40552238Y-53521128D01*
X40549523Y-53518773D01*
X40531622Y-53510782D01*
X40103051Y-53367925D01*
X40093379Y-53365725D01*
X40090937Y-53364714D01*
X40087398Y-53364365D01*
X40083935Y-53363578D01*
X40081301Y-53363765D01*
X40071428Y-53362793D01*
X39785714Y-53362793D01*
X39775840Y-53363765D01*
X39773206Y-53363578D01*
X39769742Y-53364365D01*
X39766205Y-53364714D01*
X39763763Y-53365725D01*
X39754091Y-53367925D01*
X39325520Y-53510782D01*
X39307620Y-53518773D01*
X39304903Y-53521128D01*
X39301586Y-53522503D01*
X39286432Y-53534939D01*
X39000717Y-53820653D01*
X38994423Y-53828321D01*
X38992428Y-53830052D01*
X38990534Y-53833059D01*
X38988281Y-53835806D01*
X38987270Y-53838246D01*
X38981985Y-53846643D01*
X38839128Y-54132357D01*
X38838582Y-54133783D01*
X38838152Y-54134364D01*
X38835230Y-54142540D01*
X38832122Y-54150665D01*
X38832070Y-54151387D01*
X38831557Y-54152825D01*
X38688700Y-54724253D01*
X38688199Y-54727634D01*
X38687635Y-54728998D01*
X38686911Y-54736348D01*
X38685832Y-54743646D01*
X38686049Y-54745104D01*
X38685714Y-54748507D01*
X38352381Y-54748507D01*
X38352381Y-53029460D01*
X69931412Y-53029460D01*
X69931412Y-67555790D01*
G37*
M02*
