%TF.GenerationSoftware,KiCad,Pcbnew,8.0.9-8.0.9-0~ubuntu22.04.1*%
%TF.CreationDate,2025-11-15T02:19:11+01:00*%
%TF.ProjectId,GLITCHING_FMAW,474c4954-4348-4494-9e47-5f464d41572e,rev?*%
%TF.SameCoordinates,Original*%
%TF.FileFunction,Copper,L4,Bot*%
%TF.FilePolarity,Positive*%
%FSLAX46Y46*%
G04 Gerber Fmt 4.6, Leading zero omitted, Abs format (unit mm)*
G04 Created by KiCad (PCBNEW 8.0.9-8.0.9-0~ubuntu22.04.1) date 2025-11-15 02:19:11*
%MOMM*%
%LPD*%
G01*
G04 APERTURE LIST*
%TA.AperFunction,ComponentPad*%
%ADD10R,1.700000X1.700000*%
%TD*%
%TA.AperFunction,ComponentPad*%
%ADD11O,1.700000X1.700000*%
%TD*%
%TA.AperFunction,ComponentPad*%
%ADD12C,3.800000*%
%TD*%
%TA.AperFunction,ComponentPad*%
%ADD13O,2.100000X1.000000*%
%TD*%
%TA.AperFunction,ComponentPad*%
%ADD14O,1.800000X1.000000*%
%TD*%
%TA.AperFunction,ViaPad*%
%ADD15C,0.600000*%
%TD*%
%TA.AperFunction,Conductor*%
%ADD16C,0.400000*%
%TD*%
%TA.AperFunction,Conductor*%
%ADD17C,0.600000*%
%TD*%
%TA.AperFunction,Conductor*%
%ADD18C,0.200000*%
%TD*%
G04 APERTURE END LIST*
D10*
%TO.P,J3,1,Pin_1*%
%TO.N,+3.3VA*%
X77000000Y-59920000D03*
D11*
%TO.P,J3,2,Pin_2*%
%TO.N,Net-(J3-Pin_2)*%
X77000000Y-62460000D03*
%TO.P,J3,3,Pin_3*%
%TO.N,GND*%
X77000000Y-65000000D03*
%TD*%
D10*
%TO.P,J5,1,Pin_1*%
%TO.N,Net-(J5-Pin_1)*%
X50380000Y-70700000D03*
D11*
%TO.P,J5,2,Pin_2*%
%TO.N,Net-(J5-Pin_2)*%
X52920000Y-70700000D03*
%TO.P,J5,3,Pin_3*%
%TO.N,Net-(J5-Pin_3)*%
X55459999Y-70700000D03*
%TO.P,J5,4,Pin_4*%
%TO.N,Net-(J5-Pin_4)*%
X58000000Y-70700000D03*
%TD*%
D10*
%TO.P,J2,1,Pin_1*%
%TO.N,GND*%
X77000000Y-31320001D03*
D11*
%TO.P,J2,2,Pin_2*%
%TO.N,Net-(J2-Pin_2)*%
X77000000Y-33860001D03*
%TO.P,J2,3,Pin_3*%
%TO.N,GND*%
X77000000Y-36400000D03*
%TD*%
D10*
%TO.P,J6,1,Pin_1*%
%TO.N,Net-(J6-Pin_1)*%
X62380000Y-70700000D03*
D11*
%TO.P,J6,2,Pin_2*%
%TO.N,Net-(J6-Pin_2)*%
X64920000Y-70700000D03*
%TO.P,J6,3,Pin_3*%
%TO.N,Net-(J6-Pin_3)*%
X67459999Y-70700000D03*
%TO.P,J6,4,Pin_4*%
%TO.N,Net-(J6-Pin_4)*%
X70000000Y-70700000D03*
%TD*%
D12*
%TO.P,H1,1*%
%TO.N,N/C*%
X33000000Y-27000000D03*
%TD*%
%TO.P,H2,1*%
%TO.N,N/C*%
X33000000Y-70000000D03*
%TD*%
D10*
%TO.P,J4,1,Pin_1*%
%TO.N,Net-(J4-Pin_1)*%
X38380000Y-70700000D03*
D11*
%TO.P,J4,2,Pin_2*%
%TO.N,Net-(J4-Pin_2)*%
X40920000Y-70700000D03*
%TO.P,J4,3,Pin_3*%
%TO.N,Net-(J4-Pin_3)*%
X43459999Y-70700000D03*
%TO.P,J4,4,Pin_4*%
%TO.N,Net-(J4-Pin_4)*%
X46000000Y-70700000D03*
%TD*%
D13*
%TO.P,J1,S1,SHIELD*%
%TO.N,GND*%
X36880000Y-41540000D03*
D14*
X32700000Y-41540000D03*
D13*
X36880000Y-50180000D03*
D14*
X32700000Y-50180000D03*
%TD*%
D12*
%TO.P,H4,1*%
%TO.N,N/C*%
X76000000Y-27000000D03*
%TD*%
D10*
%TO.P,J7,1,Pin_1*%
%TO.N,GND*%
X31900000Y-65540000D03*
D11*
%TO.P,J7,2,Pin_2*%
X31900000Y-63000000D03*
%TO.P,J7,3,Pin_3*%
X31900000Y-60460001D03*
%TO.P,J7,4,Pin_4*%
X31900000Y-57920000D03*
%TD*%
D12*
%TO.P,H3,1*%
%TO.N,N/C*%
X76000000Y-70000000D03*
%TD*%
D15*
%TO.N,+3.3VA*%
X72014999Y-42530000D03*
%TO.N,GND*%
X67250000Y-42500000D03*
X72250000Y-51250000D03*
X49750000Y-41750000D03*
X57100000Y-37100000D03*
X70750000Y-41200000D03*
X62800000Y-36800000D03*
X65500000Y-40750000D03*
X56500000Y-35400000D03*
X75500000Y-45500000D03*
X54600000Y-30400000D03*
X62000000Y-56000000D03*
X67070000Y-49580000D03*
X69000000Y-54000000D03*
X42750000Y-41250000D03*
X50250000Y-49250000D03*
X47250000Y-34750000D03*
X57500000Y-38700000D03*
X63500000Y-50800000D03*
X73250000Y-53500000D03*
X46716003Y-38122809D03*
X53250000Y-53000000D03*
%TO.N,VBUS*%
X44475000Y-33895002D03*
X41500000Y-38000000D03*
X41900000Y-46500000D03*
X51750000Y-32000000D03*
%TO.N,+3.3V*%
X41750000Y-28250000D03*
X39255469Y-30742294D03*
X39250000Y-29750000D03*
X36750000Y-28250000D03*
X62206250Y-42006250D03*
X61000000Y-47500000D03*
X53875000Y-42525000D03*
X60424403Y-49059399D03*
X63300000Y-43600000D03*
X35500000Y-28250000D03*
X58630602Y-48993034D03*
X52875000Y-47460000D03*
X68700000Y-51675000D03*
X40337500Y-51587500D03*
X58725000Y-41475000D03*
X39250000Y-32750000D03*
X39250000Y-31750000D03*
%TO.N,+3.3VA*%
X66000000Y-30000000D03*
X68000000Y-30000000D03*
X67000000Y-30000000D03*
X68550000Y-41050000D03*
%TO.N,+1V1*%
X59500000Y-48900000D03*
X59228225Y-43960000D03*
%TO.N,+3.3VA*%
X72450000Y-39775000D03*
%TD*%
D16*
%TO.N,+3.3VA*%
X77000000Y-59920000D02*
X77000000Y-49500000D01*
X77000000Y-49500000D02*
X72014999Y-44514999D01*
X72014999Y-44514999D02*
X72014999Y-42530000D01*
D17*
%TO.N,VBUS*%
X41900000Y-46500000D02*
X41500000Y-46100000D01*
X41500000Y-46100000D02*
X41500000Y-38000000D01*
X46370002Y-32000000D02*
X44475000Y-33895002D01*
X51750000Y-32000000D02*
X46370002Y-32000000D01*
%TO.N,+1V1*%
X59700000Y-48700000D02*
X59700000Y-44431775D01*
X59700000Y-44431775D02*
X59228225Y-43960000D01*
D18*
X59500000Y-48900000D02*
X59700000Y-48700000D01*
%TD*%
%TA.AperFunction,Conductor*%
%TO.N,GND*%
G36*
X58985648Y-24514852D02*
G01*
X59000000Y-24549500D01*
X59000000Y-40919718D01*
X58985648Y-40954366D01*
X58951000Y-40968718D01*
X58932249Y-40964988D01*
X58868708Y-40938669D01*
X58725000Y-40919750D01*
X58581291Y-40938669D01*
X58447379Y-40994136D01*
X58447374Y-40994139D01*
X58332379Y-41082378D01*
X58332378Y-41082379D01*
X58244139Y-41197374D01*
X58244136Y-41197379D01*
X58188669Y-41331291D01*
X58169750Y-41475000D01*
X58188669Y-41618708D01*
X58244136Y-41752620D01*
X58244139Y-41752625D01*
X58311184Y-41840000D01*
X58332379Y-41867621D01*
X58447375Y-41955861D01*
X58447377Y-41955861D01*
X58447379Y-41955863D01*
X58526584Y-41988670D01*
X58581291Y-42011330D01*
X58725000Y-42030250D01*
X58868709Y-42011330D01*
X58932250Y-41985011D01*
X58969752Y-41985011D01*
X58996270Y-42011530D01*
X59000000Y-42030281D01*
X59000000Y-43425935D01*
X58985648Y-43460583D01*
X58969753Y-43471204D01*
X58950603Y-43479136D01*
X58950596Y-43479141D01*
X58924277Y-43499335D01*
X58918951Y-43502894D01*
X58890216Y-43519486D01*
X58890204Y-43519494D01*
X58866740Y-43542957D01*
X58861925Y-43547180D01*
X58835603Y-43567378D01*
X58815405Y-43593700D01*
X58811182Y-43598515D01*
X58787719Y-43621979D01*
X58787711Y-43621991D01*
X58771119Y-43650726D01*
X58767560Y-43656052D01*
X58747366Y-43682371D01*
X58747363Y-43682376D01*
X58734662Y-43713035D01*
X58731830Y-43718778D01*
X58715241Y-43747513D01*
X58715240Y-43747516D01*
X58706651Y-43779569D01*
X58704592Y-43785635D01*
X58691896Y-43816287D01*
X58691893Y-43816298D01*
X58687562Y-43849188D01*
X58686313Y-43855469D01*
X58677725Y-43887525D01*
X58677725Y-43920706D01*
X58677306Y-43927101D01*
X58672975Y-43959999D01*
X58677306Y-43992896D01*
X58677725Y-43999292D01*
X58677725Y-44032473D01*
X58686313Y-44064528D01*
X58687562Y-44070811D01*
X58691893Y-44103701D01*
X58691897Y-44103715D01*
X58704592Y-44134363D01*
X58706652Y-44140432D01*
X58715239Y-44172480D01*
X58715242Y-44172488D01*
X58731830Y-44201221D01*
X58734664Y-44206966D01*
X58747365Y-44237627D01*
X58747365Y-44237628D01*
X58767562Y-44263950D01*
X58771121Y-44269276D01*
X58787711Y-44298009D01*
X58787713Y-44298011D01*
X58787715Y-44298015D01*
X58787718Y-44298018D01*
X58811177Y-44321477D01*
X58815403Y-44326295D01*
X58835605Y-44352622D01*
X58861924Y-44372817D01*
X58866743Y-44377043D01*
X58985648Y-44495947D01*
X59000000Y-44530595D01*
X59000000Y-48483231D01*
X58985648Y-48517879D01*
X58951000Y-48532231D01*
X58921172Y-48522106D01*
X58908227Y-48512173D01*
X58908222Y-48512171D01*
X58908221Y-48512170D01*
X58774310Y-48456703D01*
X58630602Y-48437784D01*
X58486893Y-48456703D01*
X58352981Y-48512170D01*
X58352976Y-48512173D01*
X58237981Y-48600412D01*
X58237980Y-48600413D01*
X58149741Y-48715408D01*
X58149738Y-48715413D01*
X58094271Y-48849325D01*
X58075352Y-48993034D01*
X58094271Y-49136742D01*
X58149738Y-49270654D01*
X58149741Y-49270659D01*
X58192292Y-49326113D01*
X58237981Y-49385655D01*
X58352977Y-49473895D01*
X58352979Y-49473895D01*
X58352981Y-49473897D01*
X58486893Y-49529364D01*
X58630602Y-49548284D01*
X58774311Y-49529364D01*
X58847546Y-49499029D01*
X58908223Y-49473897D01*
X58908224Y-49473896D01*
X58908227Y-49473895D01*
X58921170Y-49463962D01*
X58957395Y-49454256D01*
X58989874Y-49473007D01*
X59000000Y-49502837D01*
X59000000Y-53000000D01*
X76500500Y-53000000D01*
X76535148Y-53014352D01*
X76549500Y-53049000D01*
X76549500Y-58770500D01*
X76535148Y-58805148D01*
X76500500Y-58819500D01*
X76125322Y-58819500D01*
X76052260Y-58834033D01*
X75969398Y-58889398D01*
X75914033Y-58972260D01*
X75899500Y-59045322D01*
X75899500Y-60794677D01*
X75914033Y-60867739D01*
X75969398Y-60950601D01*
X75983467Y-60960001D01*
X76052260Y-61005966D01*
X76125326Y-61020500D01*
X77874674Y-61020500D01*
X77947740Y-61005966D01*
X78030601Y-60950601D01*
X78085966Y-60867740D01*
X78100500Y-60794674D01*
X78100500Y-59045326D01*
X78085966Y-58972260D01*
X78043631Y-58908900D01*
X78030601Y-58889398D01*
X77947739Y-58834033D01*
X77874677Y-58819500D01*
X77874674Y-58819500D01*
X77499500Y-58819500D01*
X77464852Y-58805148D01*
X77450500Y-58770500D01*
X77450500Y-53049000D01*
X77464852Y-53014352D01*
X77499500Y-53000000D01*
X78450500Y-53000000D01*
X78485148Y-53014352D01*
X78499500Y-53049000D01*
X78499500Y-69998512D01*
X78499411Y-70001471D01*
X78481454Y-70298328D01*
X78480740Y-70304201D01*
X78427403Y-70595253D01*
X78425987Y-70600999D01*
X78337954Y-70883505D01*
X78335856Y-70889037D01*
X78214414Y-71158871D01*
X78211664Y-71164111D01*
X78058580Y-71417342D01*
X78055219Y-71422211D01*
X77872730Y-71655142D01*
X77868806Y-71659571D01*
X77659571Y-71868806D01*
X77655142Y-71872730D01*
X77422211Y-72055219D01*
X77417342Y-72058580D01*
X77164111Y-72211664D01*
X77158871Y-72214414D01*
X76889037Y-72335856D01*
X76883505Y-72337954D01*
X76600999Y-72425987D01*
X76595253Y-72427403D01*
X76304201Y-72480740D01*
X76298328Y-72481454D01*
X76001471Y-72499411D01*
X75998512Y-72499500D01*
X33001488Y-72499500D01*
X32998529Y-72499411D01*
X32701671Y-72481454D01*
X32695798Y-72480740D01*
X32404746Y-72427403D01*
X32399000Y-72425987D01*
X32116494Y-72337954D01*
X32110962Y-72335856D01*
X31841128Y-72214414D01*
X31835888Y-72211664D01*
X31582657Y-72058580D01*
X31577788Y-72055219D01*
X31344857Y-71872730D01*
X31340428Y-71868806D01*
X31131193Y-71659571D01*
X31127269Y-71655142D01*
X31064744Y-71575335D01*
X30944780Y-71422211D01*
X30941419Y-71417342D01*
X30859494Y-71281822D01*
X30788331Y-71164105D01*
X30785589Y-71158878D01*
X30664142Y-70889035D01*
X30662045Y-70883505D01*
X30654338Y-70858771D01*
X30574009Y-70600990D01*
X30572596Y-70595253D01*
X30570084Y-70581546D01*
X30519258Y-70304199D01*
X30518545Y-70298327D01*
X30500589Y-70001470D01*
X30500545Y-70000000D01*
X30844475Y-70000000D01*
X30864551Y-70293512D01*
X30924405Y-70581546D01*
X30930313Y-70598170D01*
X31022928Y-70858764D01*
X31147538Y-71099248D01*
X31158276Y-71119972D01*
X31158280Y-71119980D01*
X31201145Y-71180705D01*
X31327935Y-71360326D01*
X31528740Y-71575335D01*
X31756951Y-71760999D01*
X32008318Y-71913859D01*
X32278159Y-72031067D01*
X32561445Y-72110440D01*
X32812841Y-72144993D01*
X32852901Y-72150500D01*
X32852902Y-72150500D01*
X33147099Y-72150500D01*
X33182318Y-72145659D01*
X33438555Y-72110440D01*
X33721841Y-72031067D01*
X33991682Y-71913859D01*
X34243049Y-71760999D01*
X34471260Y-71575335D01*
X34672065Y-71360326D01*
X34841722Y-71119976D01*
X34977072Y-70858764D01*
X35075592Y-70581554D01*
X35093181Y-70496914D01*
X35135448Y-70293512D01*
X35136733Y-70274720D01*
X35155525Y-70000000D01*
X35143577Y-69825322D01*
X37279500Y-69825322D01*
X37279500Y-71574677D01*
X37294033Y-71647739D01*
X37349398Y-71730601D01*
X37397924Y-71763024D01*
X37432260Y-71785966D01*
X37505326Y-71800500D01*
X39254674Y-71800500D01*
X39327740Y-71785966D01*
X39410601Y-71730601D01*
X39465966Y-71647740D01*
X39480500Y-71574674D01*
X39480500Y-70700000D01*
X39814785Y-70700000D01*
X39833602Y-70903079D01*
X39833603Y-70903085D01*
X39889417Y-71099248D01*
X39889420Y-71099255D01*
X39980325Y-71281818D01*
X39980328Y-71281822D01*
X40103233Y-71444576D01*
X40103236Y-71444579D01*
X40253954Y-71581977D01*
X40253955Y-71581978D01*
X40253959Y-71581981D01*
X40427363Y-71689348D01*
X40617544Y-71763024D01*
X40818024Y-71800500D01*
X40818026Y-71800500D01*
X41021974Y-71800500D01*
X41021976Y-71800500D01*
X41222456Y-71763024D01*
X41412637Y-71689348D01*
X41586041Y-71581981D01*
X41736764Y-71444579D01*
X41859673Y-71281821D01*
X41950582Y-71099250D01*
X42006397Y-70903083D01*
X42025215Y-70700000D01*
X42354784Y-70700000D01*
X42373601Y-70903079D01*
X42373602Y-70903085D01*
X42429416Y-71099248D01*
X42429419Y-71099255D01*
X42520324Y-71281818D01*
X42520327Y-71281822D01*
X42643232Y-71444576D01*
X42643235Y-71444579D01*
X42793953Y-71581977D01*
X42793954Y-71581978D01*
X42793958Y-71581981D01*
X42967362Y-71689348D01*
X43157543Y-71763024D01*
X43358023Y-71800500D01*
X43358025Y-71800500D01*
X43561973Y-71800500D01*
X43561975Y-71800500D01*
X43762455Y-71763024D01*
X43952636Y-71689348D01*
X44126040Y-71581981D01*
X44276763Y-71444579D01*
X44399672Y-71281821D01*
X44490581Y-71099250D01*
X44546396Y-70903083D01*
X44565214Y-70700000D01*
X44894785Y-70700000D01*
X44913602Y-70903079D01*
X44913603Y-70903085D01*
X44969417Y-71099248D01*
X44969420Y-71099255D01*
X45060325Y-71281818D01*
X45060328Y-71281822D01*
X45183233Y-71444576D01*
X45183236Y-71444579D01*
X45333954Y-71581977D01*
X45333955Y-71581978D01*
X45333959Y-71581981D01*
X45507363Y-71689348D01*
X45697544Y-71763024D01*
X45898024Y-71800500D01*
X45898026Y-71800500D01*
X46101974Y-71800500D01*
X46101976Y-71800500D01*
X46302456Y-71763024D01*
X46492637Y-71689348D01*
X46666041Y-71581981D01*
X46816764Y-71444579D01*
X46939673Y-71281821D01*
X47030582Y-71099250D01*
X47086397Y-70903083D01*
X47105215Y-70700000D01*
X47086397Y-70496917D01*
X47030582Y-70300750D01*
X46939673Y-70118179D01*
X46878218Y-70036800D01*
X46816766Y-69955423D01*
X46816763Y-69955420D01*
X46674053Y-69825322D01*
X49279500Y-69825322D01*
X49279500Y-71574677D01*
X49294033Y-71647739D01*
X49349398Y-71730601D01*
X49397924Y-71763024D01*
X49432260Y-71785966D01*
X49505326Y-71800500D01*
X51254674Y-71800500D01*
X51327740Y-71785966D01*
X51410601Y-71730601D01*
X51465966Y-71647740D01*
X51480500Y-71574674D01*
X51480500Y-70700000D01*
X51814785Y-70700000D01*
X51833602Y-70903079D01*
X51833603Y-70903085D01*
X51889417Y-71099248D01*
X51889420Y-71099255D01*
X51980325Y-71281818D01*
X51980328Y-71281822D01*
X52103233Y-71444576D01*
X52103236Y-71444579D01*
X52253954Y-71581977D01*
X52253955Y-71581978D01*
X52253959Y-71581981D01*
X52427363Y-71689348D01*
X52617544Y-71763024D01*
X52818024Y-71800500D01*
X52818026Y-71800500D01*
X53021974Y-71800500D01*
X53021976Y-71800500D01*
X53222456Y-71763024D01*
X53412637Y-71689348D01*
X53586041Y-71581981D01*
X53736764Y-71444579D01*
X53859673Y-71281821D01*
X53950582Y-71099250D01*
X54006397Y-70903083D01*
X54025215Y-70700000D01*
X54354784Y-70700000D01*
X54373601Y-70903079D01*
X54373602Y-70903085D01*
X54429416Y-71099248D01*
X54429419Y-71099255D01*
X54520324Y-71281818D01*
X54520327Y-71281822D01*
X54643232Y-71444576D01*
X54643235Y-71444579D01*
X54793953Y-71581977D01*
X54793954Y-71581978D01*
X54793958Y-71581981D01*
X54967362Y-71689348D01*
X55157543Y-71763024D01*
X55358023Y-71800500D01*
X55358025Y-71800500D01*
X55561973Y-71800500D01*
X55561975Y-71800500D01*
X55762455Y-71763024D01*
X55952636Y-71689348D01*
X56126040Y-71581981D01*
X56276763Y-71444579D01*
X56399672Y-71281821D01*
X56490581Y-71099250D01*
X56546396Y-70903083D01*
X56565214Y-70700000D01*
X56894785Y-70700000D01*
X56913602Y-70903079D01*
X56913603Y-70903085D01*
X56969417Y-71099248D01*
X56969420Y-71099255D01*
X57060325Y-71281818D01*
X57060328Y-71281822D01*
X57183233Y-71444576D01*
X57183236Y-71444579D01*
X57333954Y-71581977D01*
X57333955Y-71581978D01*
X57333959Y-71581981D01*
X57507363Y-71689348D01*
X57697544Y-71763024D01*
X57898024Y-71800500D01*
X57898026Y-71800500D01*
X58101974Y-71800500D01*
X58101976Y-71800500D01*
X58302456Y-71763024D01*
X58492637Y-71689348D01*
X58666041Y-71581981D01*
X58816764Y-71444579D01*
X58939673Y-71281821D01*
X59030582Y-71099250D01*
X59086397Y-70903083D01*
X59105215Y-70700000D01*
X59086397Y-70496917D01*
X59030582Y-70300750D01*
X58939673Y-70118179D01*
X58878218Y-70036800D01*
X58816766Y-69955423D01*
X58816763Y-69955420D01*
X58674053Y-69825322D01*
X61279500Y-69825322D01*
X61279500Y-71574677D01*
X61294033Y-71647739D01*
X61349398Y-71730601D01*
X61397924Y-71763024D01*
X61432260Y-71785966D01*
X61505326Y-71800500D01*
X63254674Y-71800500D01*
X63327740Y-71785966D01*
X63410601Y-71730601D01*
X63465966Y-71647740D01*
X63480500Y-71574674D01*
X63480500Y-70700000D01*
X63814785Y-70700000D01*
X63833602Y-70903079D01*
X63833603Y-70903085D01*
X63889417Y-71099248D01*
X63889420Y-71099255D01*
X63980325Y-71281818D01*
X63980328Y-71281822D01*
X64103233Y-71444576D01*
X64103236Y-71444579D01*
X64253954Y-71581977D01*
X64253955Y-71581978D01*
X64253959Y-71581981D01*
X64427363Y-71689348D01*
X64617544Y-71763024D01*
X64818024Y-71800500D01*
X64818026Y-71800500D01*
X65021974Y-71800500D01*
X65021976Y-71800500D01*
X65222456Y-71763024D01*
X65412637Y-71689348D01*
X65586041Y-71581981D01*
X65736764Y-71444579D01*
X65859673Y-71281821D01*
X65950582Y-71099250D01*
X66006397Y-70903083D01*
X66025215Y-70700000D01*
X66354784Y-70700000D01*
X66373601Y-70903079D01*
X66373602Y-70903085D01*
X66429416Y-71099248D01*
X66429419Y-71099255D01*
X66520324Y-71281818D01*
X66520327Y-71281822D01*
X66643232Y-71444576D01*
X66643235Y-71444579D01*
X66793953Y-71581977D01*
X66793954Y-71581978D01*
X66793958Y-71581981D01*
X66967362Y-71689348D01*
X67157543Y-71763024D01*
X67358023Y-71800500D01*
X67358025Y-71800500D01*
X67561973Y-71800500D01*
X67561975Y-71800500D01*
X67762455Y-71763024D01*
X67952636Y-71689348D01*
X68126040Y-71581981D01*
X68276763Y-71444579D01*
X68399672Y-71281821D01*
X68490581Y-71099250D01*
X68546396Y-70903083D01*
X68565214Y-70700000D01*
X68894785Y-70700000D01*
X68913602Y-70903079D01*
X68913603Y-70903085D01*
X68969417Y-71099248D01*
X68969420Y-71099255D01*
X69060325Y-71281818D01*
X69060328Y-71281822D01*
X69183233Y-71444576D01*
X69183236Y-71444579D01*
X69333954Y-71581977D01*
X69333955Y-71581978D01*
X69333959Y-71581981D01*
X69507363Y-71689348D01*
X69697544Y-71763024D01*
X69898024Y-71800500D01*
X69898026Y-71800500D01*
X70101974Y-71800500D01*
X70101976Y-71800500D01*
X70302456Y-71763024D01*
X70492637Y-71689348D01*
X70666041Y-71581981D01*
X70816764Y-71444579D01*
X70939673Y-71281821D01*
X71030582Y-71099250D01*
X71086397Y-70903083D01*
X71105215Y-70700000D01*
X71086397Y-70496917D01*
X71030582Y-70300750D01*
X70939673Y-70118179D01*
X70878218Y-70036800D01*
X70850428Y-70000000D01*
X73844475Y-70000000D01*
X73864551Y-70293512D01*
X73924405Y-70581546D01*
X73930313Y-70598170D01*
X74022928Y-70858764D01*
X74147538Y-71099248D01*
X74158276Y-71119972D01*
X74158280Y-71119980D01*
X74201145Y-71180705D01*
X74327935Y-71360326D01*
X74528740Y-71575335D01*
X74756951Y-71760999D01*
X75008318Y-71913859D01*
X75278159Y-72031067D01*
X75561445Y-72110440D01*
X75812841Y-72144993D01*
X75852901Y-72150500D01*
X75852902Y-72150500D01*
X76147099Y-72150500D01*
X76182318Y-72145659D01*
X76438555Y-72110440D01*
X76721841Y-72031067D01*
X76991682Y-71913859D01*
X77243049Y-71760999D01*
X77471260Y-71575335D01*
X77672065Y-71360326D01*
X77841722Y-71119976D01*
X77977072Y-70858764D01*
X78075592Y-70581554D01*
X78093181Y-70496914D01*
X78135448Y-70293512D01*
X78136733Y-70274720D01*
X78155525Y-70000000D01*
X78135448Y-69706489D01*
X78127741Y-69669399D01*
X78075594Y-69418453D01*
X78075592Y-69418446D01*
X77977072Y-69141236D01*
X77841722Y-68880024D01*
X77841720Y-68880021D01*
X77841719Y-68880019D01*
X77787189Y-68802768D01*
X77672065Y-68639674D01*
X77471260Y-68424665D01*
X77243049Y-68239001D01*
X76991682Y-68086141D01*
X76991678Y-68086139D01*
X76991676Y-68086138D01*
X76721842Y-67968933D01*
X76438560Y-67889561D01*
X76438555Y-67889560D01*
X76147099Y-67849500D01*
X76147098Y-67849500D01*
X75852902Y-67849500D01*
X75852901Y-67849500D01*
X75561444Y-67889560D01*
X75561439Y-67889561D01*
X75278157Y-67968933D01*
X75008323Y-68086138D01*
X74756949Y-68239002D01*
X74528748Y-68424658D01*
X74528737Y-68424668D01*
X74327939Y-68639669D01*
X74327933Y-68639677D01*
X74158280Y-68880019D01*
X74158276Y-68880027D01*
X74022932Y-69141228D01*
X74022928Y-69141237D01*
X73924405Y-69418453D01*
X73864551Y-69706487D01*
X73844475Y-70000000D01*
X70850428Y-70000000D01*
X70816766Y-69955423D01*
X70816763Y-69955420D01*
X70666045Y-69818022D01*
X70666042Y-69818020D01*
X70666041Y-69818019D01*
X70492637Y-69710652D01*
X70492634Y-69710651D01*
X70492633Y-69710650D01*
X70302462Y-69636978D01*
X70302460Y-69636977D01*
X70302456Y-69636976D01*
X70101976Y-69599500D01*
X69898024Y-69599500D01*
X69697544Y-69636976D01*
X69697540Y-69636977D01*
X69697537Y-69636978D01*
X69507366Y-69710650D01*
X69333954Y-69818022D01*
X69183236Y-69955420D01*
X69183233Y-69955423D01*
X69060328Y-70118177D01*
X69060325Y-70118181D01*
X68969420Y-70300744D01*
X68969417Y-70300751D01*
X68913603Y-70496914D01*
X68913602Y-70496920D01*
X68894785Y-70700000D01*
X68565214Y-70700000D01*
X68546396Y-70496917D01*
X68490581Y-70300750D01*
X68399672Y-70118179D01*
X68338217Y-70036800D01*
X68276765Y-69955423D01*
X68276762Y-69955420D01*
X68126044Y-69818022D01*
X68126041Y-69818020D01*
X68126040Y-69818019D01*
X67952636Y-69710652D01*
X67952633Y-69710651D01*
X67952632Y-69710650D01*
X67762461Y-69636978D01*
X67762459Y-69636977D01*
X67762455Y-69636976D01*
X67561975Y-69599500D01*
X67358023Y-69599500D01*
X67157543Y-69636976D01*
X67157539Y-69636977D01*
X67157536Y-69636978D01*
X66967365Y-69710650D01*
X66793953Y-69818022D01*
X66643235Y-69955420D01*
X66643232Y-69955423D01*
X66520327Y-70118177D01*
X66520324Y-70118181D01*
X66429419Y-70300744D01*
X66429416Y-70300751D01*
X66373602Y-70496914D01*
X66373601Y-70496920D01*
X66354784Y-70700000D01*
X66025215Y-70700000D01*
X66006397Y-70496917D01*
X65950582Y-70300750D01*
X65859673Y-70118179D01*
X65798218Y-70036800D01*
X65736766Y-69955423D01*
X65736763Y-69955420D01*
X65586045Y-69818022D01*
X65586042Y-69818020D01*
X65586041Y-69818019D01*
X65412637Y-69710652D01*
X65412634Y-69710651D01*
X65412633Y-69710650D01*
X65222462Y-69636978D01*
X65222460Y-69636977D01*
X65222456Y-69636976D01*
X65021976Y-69599500D01*
X64818024Y-69599500D01*
X64617544Y-69636976D01*
X64617540Y-69636977D01*
X64617537Y-69636978D01*
X64427366Y-69710650D01*
X64253954Y-69818022D01*
X64103236Y-69955420D01*
X64103233Y-69955423D01*
X63980328Y-70118177D01*
X63980325Y-70118181D01*
X63889420Y-70300744D01*
X63889417Y-70300751D01*
X63833603Y-70496914D01*
X63833602Y-70496920D01*
X63814785Y-70700000D01*
X63480500Y-70700000D01*
X63480500Y-69825326D01*
X63465966Y-69752260D01*
X63438164Y-69710650D01*
X63410601Y-69669398D01*
X63327739Y-69614033D01*
X63254677Y-69599500D01*
X63254674Y-69599500D01*
X61505326Y-69599500D01*
X61505322Y-69599500D01*
X61432260Y-69614033D01*
X61349398Y-69669398D01*
X61294033Y-69752260D01*
X61279500Y-69825322D01*
X58674053Y-69825322D01*
X58666045Y-69818022D01*
X58666042Y-69818020D01*
X58666041Y-69818019D01*
X58492637Y-69710652D01*
X58492634Y-69710651D01*
X58492633Y-69710650D01*
X58302462Y-69636978D01*
X58302460Y-69636977D01*
X58302456Y-69636976D01*
X58101976Y-69599500D01*
X57898024Y-69599500D01*
X57697544Y-69636976D01*
X57697540Y-69636977D01*
X57697537Y-69636978D01*
X57507366Y-69710650D01*
X57333954Y-69818022D01*
X57183236Y-69955420D01*
X57183233Y-69955423D01*
X57060328Y-70118177D01*
X57060325Y-70118181D01*
X56969420Y-70300744D01*
X56969417Y-70300751D01*
X56913603Y-70496914D01*
X56913602Y-70496920D01*
X56894785Y-70700000D01*
X56565214Y-70700000D01*
X56546396Y-70496917D01*
X56490581Y-70300750D01*
X56399672Y-70118179D01*
X56338217Y-70036800D01*
X56276765Y-69955423D01*
X56276762Y-69955420D01*
X56126044Y-69818022D01*
X56126041Y-69818020D01*
X56126040Y-69818019D01*
X55952636Y-69710652D01*
X55952633Y-69710651D01*
X55952632Y-69710650D01*
X55762461Y-69636978D01*
X55762459Y-69636977D01*
X55762455Y-69636976D01*
X55561975Y-69599500D01*
X55358023Y-69599500D01*
X55157543Y-69636976D01*
X55157539Y-69636977D01*
X55157536Y-69636978D01*
X54967365Y-69710650D01*
X54793953Y-69818022D01*
X54643235Y-69955420D01*
X54643232Y-69955423D01*
X54520327Y-70118177D01*
X54520324Y-70118181D01*
X54429419Y-70300744D01*
X54429416Y-70300751D01*
X54373602Y-70496914D01*
X54373601Y-70496920D01*
X54354784Y-70700000D01*
X54025215Y-70700000D01*
X54006397Y-70496917D01*
X53950582Y-70300750D01*
X53859673Y-70118179D01*
X53798218Y-70036800D01*
X53736766Y-69955423D01*
X53736763Y-69955420D01*
X53586045Y-69818022D01*
X53586042Y-69818020D01*
X53586041Y-69818019D01*
X53412637Y-69710652D01*
X53412634Y-69710651D01*
X53412633Y-69710650D01*
X53222462Y-69636978D01*
X53222460Y-69636977D01*
X53222456Y-69636976D01*
X53021976Y-69599500D01*
X52818024Y-69599500D01*
X52617544Y-69636976D01*
X52617540Y-69636977D01*
X52617537Y-69636978D01*
X52427366Y-69710650D01*
X52253954Y-69818022D01*
X52103236Y-69955420D01*
X52103233Y-69955423D01*
X51980328Y-70118177D01*
X51980325Y-70118181D01*
X51889420Y-70300744D01*
X51889417Y-70300751D01*
X51833603Y-70496914D01*
X51833602Y-70496920D01*
X51814785Y-70700000D01*
X51480500Y-70700000D01*
X51480500Y-69825326D01*
X51465966Y-69752260D01*
X51438164Y-69710650D01*
X51410601Y-69669398D01*
X51327739Y-69614033D01*
X51254677Y-69599500D01*
X51254674Y-69599500D01*
X49505326Y-69599500D01*
X49505322Y-69599500D01*
X49432260Y-69614033D01*
X49349398Y-69669398D01*
X49294033Y-69752260D01*
X49279500Y-69825322D01*
X46674053Y-69825322D01*
X46666045Y-69818022D01*
X46666042Y-69818020D01*
X46666041Y-69818019D01*
X46492637Y-69710652D01*
X46492634Y-69710651D01*
X46492633Y-69710650D01*
X46302462Y-69636978D01*
X46302460Y-69636977D01*
X46302456Y-69636976D01*
X46101976Y-69599500D01*
X45898024Y-69599500D01*
X45697544Y-69636976D01*
X45697540Y-69636977D01*
X45697537Y-69636978D01*
X45507366Y-69710650D01*
X45333954Y-69818022D01*
X45183236Y-69955420D01*
X45183233Y-69955423D01*
X45060328Y-70118177D01*
X45060325Y-70118181D01*
X44969420Y-70300744D01*
X44969417Y-70300751D01*
X44913603Y-70496914D01*
X44913602Y-70496920D01*
X44894785Y-70700000D01*
X44565214Y-70700000D01*
X44546396Y-70496917D01*
X44490581Y-70300750D01*
X44399672Y-70118179D01*
X44338217Y-70036800D01*
X44276765Y-69955423D01*
X44276762Y-69955420D01*
X44126044Y-69818022D01*
X44126041Y-69818020D01*
X44126040Y-69818019D01*
X43952636Y-69710652D01*
X43952633Y-69710651D01*
X43952632Y-69710650D01*
X43762461Y-69636978D01*
X43762459Y-69636977D01*
X43762455Y-69636976D01*
X43561975Y-69599500D01*
X43358023Y-69599500D01*
X43157543Y-69636976D01*
X43157539Y-69636977D01*
X43157536Y-69636978D01*
X42967365Y-69710650D01*
X42793953Y-69818022D01*
X42643235Y-69955420D01*
X42643232Y-69955423D01*
X42520327Y-70118177D01*
X42520324Y-70118181D01*
X42429419Y-70300744D01*
X42429416Y-70300751D01*
X42373602Y-70496914D01*
X42373601Y-70496920D01*
X42354784Y-70700000D01*
X42025215Y-70700000D01*
X42006397Y-70496917D01*
X41950582Y-70300750D01*
X41859673Y-70118179D01*
X41798218Y-70036800D01*
X41736766Y-69955423D01*
X41736763Y-69955420D01*
X41586045Y-69818022D01*
X41586042Y-69818020D01*
X41586041Y-69818019D01*
X41412637Y-69710652D01*
X41412634Y-69710651D01*
X41412633Y-69710650D01*
X41222462Y-69636978D01*
X41222460Y-69636977D01*
X41222456Y-69636976D01*
X41021976Y-69599500D01*
X40818024Y-69599500D01*
X40617544Y-69636976D01*
X40617540Y-69636977D01*
X40617537Y-69636978D01*
X40427366Y-69710650D01*
X40253954Y-69818022D01*
X40103236Y-69955420D01*
X40103233Y-69955423D01*
X39980328Y-70118177D01*
X39980325Y-70118181D01*
X39889420Y-70300744D01*
X39889417Y-70300751D01*
X39833603Y-70496914D01*
X39833602Y-70496920D01*
X39814785Y-70700000D01*
X39480500Y-70700000D01*
X39480500Y-69825326D01*
X39465966Y-69752260D01*
X39438164Y-69710650D01*
X39410601Y-69669398D01*
X39327739Y-69614033D01*
X39254677Y-69599500D01*
X39254674Y-69599500D01*
X37505326Y-69599500D01*
X37505322Y-69599500D01*
X37432260Y-69614033D01*
X37349398Y-69669398D01*
X37294033Y-69752260D01*
X37279500Y-69825322D01*
X35143577Y-69825322D01*
X35135448Y-69706489D01*
X35127741Y-69669399D01*
X35075594Y-69418453D01*
X35075592Y-69418446D01*
X34977072Y-69141236D01*
X34841722Y-68880024D01*
X34841720Y-68880021D01*
X34841719Y-68880019D01*
X34787189Y-68802768D01*
X34672065Y-68639674D01*
X34471260Y-68424665D01*
X34243049Y-68239001D01*
X33991682Y-68086141D01*
X33991678Y-68086139D01*
X33991676Y-68086138D01*
X33721842Y-67968933D01*
X33438560Y-67889561D01*
X33438555Y-67889560D01*
X33147099Y-67849500D01*
X33147098Y-67849500D01*
X32852902Y-67849500D01*
X32852901Y-67849500D01*
X32561444Y-67889560D01*
X32561439Y-67889561D01*
X32278157Y-67968933D01*
X32008323Y-68086138D01*
X31756949Y-68239002D01*
X31528748Y-68424658D01*
X31528737Y-68424668D01*
X31327939Y-68639669D01*
X31327933Y-68639677D01*
X31158280Y-68880019D01*
X31158276Y-68880027D01*
X31022932Y-69141228D01*
X31022928Y-69141237D01*
X30924405Y-69418453D01*
X30864551Y-69706487D01*
X30844475Y-70000000D01*
X30500545Y-70000000D01*
X30500500Y-69998512D01*
X30500500Y-64665370D01*
X30800000Y-64665370D01*
X30800000Y-65415000D01*
X31415856Y-65415000D01*
X31400000Y-65474174D01*
X31400000Y-65605826D01*
X31415856Y-65665000D01*
X30800000Y-65665000D01*
X30800000Y-66414629D01*
X30814503Y-66487542D01*
X30869759Y-66570240D01*
X30952457Y-66625496D01*
X31025370Y-66639999D01*
X31025376Y-66640000D01*
X31775000Y-66640000D01*
X31775000Y-66024144D01*
X31834174Y-66040000D01*
X31965826Y-66040000D01*
X32025000Y-66024144D01*
X32025000Y-66640000D01*
X32774624Y-66640000D01*
X32774629Y-66639999D01*
X32847542Y-66625496D01*
X32930240Y-66570240D01*
X32985496Y-66487542D01*
X32999999Y-66414629D01*
X33000000Y-66414624D01*
X33000000Y-65665000D01*
X32384144Y-65665000D01*
X32400000Y-65605826D01*
X32400000Y-65474174D01*
X32384144Y-65415000D01*
X33000000Y-65415000D01*
X33000000Y-64874999D01*
X75906870Y-64874999D01*
X75906870Y-64875000D01*
X76515856Y-64875000D01*
X76500000Y-64934174D01*
X76500000Y-65065826D01*
X76515856Y-65125000D01*
X75906870Y-65125000D01*
X75914096Y-65202986D01*
X75914098Y-65202995D01*
X75969883Y-65399063D01*
X75969884Y-65399064D01*
X76060752Y-65581553D01*
X76060755Y-65581557D01*
X76183604Y-65744237D01*
X76183607Y-65744240D01*
X76334257Y-65881576D01*
X76507590Y-65988900D01*
X76697674Y-66062538D01*
X76875000Y-66095686D01*
X76875000Y-65484144D01*
X76934174Y-65500000D01*
X77065826Y-65500000D01*
X77125000Y-65484144D01*
X77125000Y-66095685D01*
X77302325Y-66062538D01*
X77492409Y-65988900D01*
X77665742Y-65881576D01*
X77816392Y-65744240D01*
X77816395Y-65744237D01*
X77939244Y-65581557D01*
X77939247Y-65581553D01*
X78030115Y-65399064D01*
X78030116Y-65399063D01*
X78085901Y-65202995D01*
X78085903Y-65202986D01*
X78093129Y-65125000D01*
X77484144Y-65125000D01*
X77500000Y-65065826D01*
X77500000Y-64934174D01*
X77484144Y-64875000D01*
X78093130Y-64875000D01*
X78093129Y-64874999D01*
X78085903Y-64797013D01*
X78085901Y-64797004D01*
X78030116Y-64600936D01*
X78030115Y-64600935D01*
X77939247Y-64418446D01*
X77939244Y-64418442D01*
X77816395Y-64255762D01*
X77816392Y-64255759D01*
X77665742Y-64118423D01*
X77492409Y-64011099D01*
X77302324Y-63937460D01*
X77125000Y-63904312D01*
X77125000Y-64515855D01*
X77065826Y-64500000D01*
X76934174Y-64500000D01*
X76875000Y-64515855D01*
X76875000Y-63904312D01*
X76697675Y-63937460D01*
X76507590Y-64011099D01*
X76334257Y-64118423D01*
X76183607Y-64255759D01*
X76183604Y-64255762D01*
X76060755Y-64418442D01*
X76060752Y-64418446D01*
X75969884Y-64600935D01*
X75969883Y-64600936D01*
X75914098Y-64797004D01*
X75914096Y-64797013D01*
X75906870Y-64874999D01*
X33000000Y-64874999D01*
X33000000Y-64665376D01*
X32999999Y-64665370D01*
X32985496Y-64592457D01*
X32930240Y-64509759D01*
X32847542Y-64454503D01*
X32774629Y-64440000D01*
X32025000Y-64440000D01*
X32025000Y-65055855D01*
X31965826Y-65040000D01*
X31834174Y-65040000D01*
X31775000Y-65055855D01*
X31775000Y-64440000D01*
X31025370Y-64440000D01*
X30952457Y-64454503D01*
X30869759Y-64509759D01*
X30814503Y-64592457D01*
X30800000Y-64665370D01*
X30500500Y-64665370D01*
X30500500Y-62874999D01*
X30806870Y-62874999D01*
X30806870Y-62875000D01*
X31415856Y-62875000D01*
X31400000Y-62934174D01*
X31400000Y-63065826D01*
X31415856Y-63125000D01*
X30806870Y-63125000D01*
X30814096Y-63202986D01*
X30814098Y-63202995D01*
X30869883Y-63399063D01*
X30869884Y-63399064D01*
X30960752Y-63581553D01*
X30960755Y-63581557D01*
X31083604Y-63744237D01*
X31083607Y-63744240D01*
X31234257Y-63881576D01*
X31407590Y-63988900D01*
X31597674Y-64062538D01*
X31775000Y-64095686D01*
X31775000Y-63484144D01*
X31834174Y-63500000D01*
X31965826Y-63500000D01*
X32025000Y-63484144D01*
X32025000Y-64095685D01*
X32202325Y-64062538D01*
X32392409Y-63988900D01*
X32565742Y-63881576D01*
X32716392Y-63744240D01*
X32716395Y-63744237D01*
X32839244Y-63581557D01*
X32839247Y-63581553D01*
X32930115Y-63399064D01*
X32930116Y-63399063D01*
X32985901Y-63202995D01*
X32985903Y-63202986D01*
X32993129Y-63125000D01*
X32384144Y-63125000D01*
X32400000Y-63065826D01*
X32400000Y-62934174D01*
X32384144Y-62875000D01*
X32993130Y-62875000D01*
X32993129Y-62874999D01*
X32985903Y-62797013D01*
X32985901Y-62797004D01*
X32930116Y-62600936D01*
X32930115Y-62600935D01*
X32859938Y-62460000D01*
X75894785Y-62460000D01*
X75913602Y-62663079D01*
X75913603Y-62663085D01*
X75969417Y-62859248D01*
X75969420Y-62859255D01*
X76060325Y-63041818D01*
X76060328Y-63041822D01*
X76183233Y-63204576D01*
X76183236Y-63204579D01*
X76333954Y-63341977D01*
X76333955Y-63341978D01*
X76333959Y-63341981D01*
X76507363Y-63449348D01*
X76697544Y-63523024D01*
X76898024Y-63560500D01*
X76898026Y-63560500D01*
X77101974Y-63560500D01*
X77101976Y-63560500D01*
X77302456Y-63523024D01*
X77492637Y-63449348D01*
X77666041Y-63341981D01*
X77816764Y-63204579D01*
X77939673Y-63041821D01*
X78030582Y-62859250D01*
X78086397Y-62663083D01*
X78105215Y-62460000D01*
X78086397Y-62256917D01*
X78030582Y-62060750D01*
X77939673Y-61878179D01*
X77816764Y-61715421D01*
X77816763Y-61715420D01*
X77666045Y-61578022D01*
X77666042Y-61578020D01*
X77666041Y-61578019D01*
X77492637Y-61470652D01*
X77492634Y-61470651D01*
X77492633Y-61470650D01*
X77302462Y-61396978D01*
X77302460Y-61396977D01*
X77302456Y-61396976D01*
X77101976Y-61359500D01*
X76898024Y-61359500D01*
X76697544Y-61396976D01*
X76697540Y-61396977D01*
X76697537Y-61396978D01*
X76507366Y-61470650D01*
X76333954Y-61578022D01*
X76183236Y-61715420D01*
X76183233Y-61715423D01*
X76060328Y-61878177D01*
X76060325Y-61878181D01*
X75969420Y-62060744D01*
X75969417Y-62060751D01*
X75913603Y-62256914D01*
X75913602Y-62256920D01*
X75894785Y-62460000D01*
X32859938Y-62460000D01*
X32839247Y-62418446D01*
X32839244Y-62418442D01*
X32716395Y-62255762D01*
X32716392Y-62255759D01*
X32565742Y-62118423D01*
X32392409Y-62011099D01*
X32202324Y-61937460D01*
X32025000Y-61904312D01*
X32025000Y-62515855D01*
X31965826Y-62500000D01*
X31834174Y-62500000D01*
X31775000Y-62515855D01*
X31775000Y-61904312D01*
X31597675Y-61937460D01*
X31407590Y-62011099D01*
X31234257Y-62118423D01*
X31083607Y-62255759D01*
X31083604Y-62255762D01*
X30960755Y-62418442D01*
X30960752Y-62418446D01*
X30869884Y-62600935D01*
X30869883Y-62600936D01*
X30814098Y-62797004D01*
X30814096Y-62797013D01*
X30806870Y-62874999D01*
X30500500Y-62874999D01*
X30500500Y-60335000D01*
X30806870Y-60335000D01*
X30806870Y-60335001D01*
X31415856Y-60335001D01*
X31400000Y-60394175D01*
X31400000Y-60525827D01*
X31415856Y-60585001D01*
X30806870Y-60585001D01*
X30814096Y-60662987D01*
X30814098Y-60662996D01*
X30869883Y-60859064D01*
X30869884Y-60859065D01*
X30960752Y-61041554D01*
X30960755Y-61041558D01*
X31083604Y-61204238D01*
X31083607Y-61204241D01*
X31234257Y-61341577D01*
X31407590Y-61448901D01*
X31597674Y-61522539D01*
X31775000Y-61555687D01*
X31775000Y-60944145D01*
X31834174Y-60960001D01*
X31965826Y-60960001D01*
X32025000Y-60944145D01*
X32025000Y-61555686D01*
X32202325Y-61522539D01*
X32392409Y-61448901D01*
X32565742Y-61341577D01*
X32716392Y-61204241D01*
X32716395Y-61204238D01*
X32839244Y-61041558D01*
X32839247Y-61041554D01*
X32930115Y-60859065D01*
X32930116Y-60859064D01*
X32985901Y-60662996D01*
X32985903Y-60662987D01*
X32993129Y-60585001D01*
X32384144Y-60585001D01*
X32400000Y-60525827D01*
X32400000Y-60394175D01*
X32384144Y-60335001D01*
X32993130Y-60335001D01*
X32993129Y-60335000D01*
X32985903Y-60257014D01*
X32985901Y-60257005D01*
X32930116Y-60060937D01*
X32930115Y-60060936D01*
X32839247Y-59878447D01*
X32839244Y-59878443D01*
X32716395Y-59715763D01*
X32716392Y-59715760D01*
X32565742Y-59578424D01*
X32392409Y-59471100D01*
X32202324Y-59397461D01*
X32025000Y-59364313D01*
X32025000Y-59975856D01*
X31965826Y-59960001D01*
X31834174Y-59960001D01*
X31775000Y-59975856D01*
X31775000Y-59364313D01*
X31597675Y-59397461D01*
X31407590Y-59471100D01*
X31234257Y-59578424D01*
X31083607Y-59715760D01*
X31083604Y-59715763D01*
X30960755Y-59878443D01*
X30960752Y-59878447D01*
X30869884Y-60060936D01*
X30869883Y-60060937D01*
X30814098Y-60257005D01*
X30814096Y-60257014D01*
X30806870Y-60335000D01*
X30500500Y-60335000D01*
X30500500Y-57794999D01*
X30806870Y-57794999D01*
X30806870Y-57795000D01*
X31415856Y-57795000D01*
X31400000Y-57854174D01*
X31400000Y-57985826D01*
X31415856Y-58045000D01*
X30806870Y-58045000D01*
X30814096Y-58122986D01*
X30814098Y-58122995D01*
X30869883Y-58319063D01*
X30869884Y-58319064D01*
X30960752Y-58501553D01*
X30960755Y-58501557D01*
X31083604Y-58664237D01*
X31083607Y-58664240D01*
X31234257Y-58801576D01*
X31407590Y-58908900D01*
X31597674Y-58982538D01*
X31775000Y-59015686D01*
X31775000Y-58404144D01*
X31834174Y-58420000D01*
X31965826Y-58420000D01*
X32025000Y-58404144D01*
X32025000Y-59015685D01*
X32202325Y-58982538D01*
X32392409Y-58908900D01*
X32565742Y-58801576D01*
X32716392Y-58664240D01*
X32716395Y-58664237D01*
X32839244Y-58501557D01*
X32839247Y-58501553D01*
X32930115Y-58319064D01*
X32930116Y-58319063D01*
X32985901Y-58122995D01*
X32985903Y-58122986D01*
X32993129Y-58045000D01*
X32384144Y-58045000D01*
X32400000Y-57985826D01*
X32400000Y-57854174D01*
X32384144Y-57795000D01*
X32993130Y-57795000D01*
X32993129Y-57794999D01*
X32985903Y-57717013D01*
X32985901Y-57717004D01*
X32930116Y-57520936D01*
X32930115Y-57520935D01*
X32839247Y-57338446D01*
X32839244Y-57338442D01*
X32716395Y-57175762D01*
X32716392Y-57175759D01*
X32565742Y-57038423D01*
X32392409Y-56931099D01*
X32202324Y-56857460D01*
X32025000Y-56824312D01*
X32025000Y-57435855D01*
X31965826Y-57420000D01*
X31834174Y-57420000D01*
X31775000Y-57435855D01*
X31775000Y-56824312D01*
X31597675Y-56857460D01*
X31407590Y-56931099D01*
X31234257Y-57038423D01*
X31083607Y-57175759D01*
X31083604Y-57175762D01*
X30960755Y-57338442D01*
X30960752Y-57338446D01*
X30869884Y-57520935D01*
X30869883Y-57520936D01*
X30814098Y-57717004D01*
X30814096Y-57717013D01*
X30806870Y-57794999D01*
X30500500Y-57794999D01*
X30500500Y-51587500D01*
X39782250Y-51587500D01*
X39801169Y-51731208D01*
X39856636Y-51865120D01*
X39856639Y-51865125D01*
X39944879Y-51980121D01*
X40059875Y-52068361D01*
X40059877Y-52068361D01*
X40059879Y-52068363D01*
X40193791Y-52123830D01*
X40337500Y-52142750D01*
X40481209Y-52123830D01*
X40615125Y-52068361D01*
X40730121Y-51980121D01*
X40818361Y-51865125D01*
X40873830Y-51731209D01*
X40892750Y-51587500D01*
X40873830Y-51443791D01*
X40818361Y-51309875D01*
X40730121Y-51194879D01*
X40656868Y-51138670D01*
X40615125Y-51106639D01*
X40615120Y-51106636D01*
X40481208Y-51051169D01*
X40337500Y-51032250D01*
X40193791Y-51051169D01*
X40059879Y-51106636D01*
X40059874Y-51106639D01*
X39944879Y-51194878D01*
X39944878Y-51194879D01*
X39856639Y-51309874D01*
X39856636Y-51309879D01*
X39801169Y-51443791D01*
X39782250Y-51587500D01*
X30500500Y-51587500D01*
X30500500Y-50055000D01*
X31560171Y-50055000D01*
X32025758Y-50055000D01*
X32020444Y-50064204D01*
X32000000Y-50140504D01*
X32000000Y-50219496D01*
X32020444Y-50295796D01*
X32025758Y-50305000D01*
X31560171Y-50305000D01*
X31578821Y-50398764D01*
X31578823Y-50398770D01*
X31635357Y-50535254D01*
X31717436Y-50658096D01*
X31821903Y-50762563D01*
X31944745Y-50844642D01*
X32081229Y-50901176D01*
X32081244Y-50901180D01*
X32226125Y-50929999D01*
X32226132Y-50930000D01*
X32575000Y-50930000D01*
X32575000Y-50480000D01*
X32825000Y-50480000D01*
X32825000Y-50930000D01*
X33173868Y-50930000D01*
X33173874Y-50929999D01*
X33318755Y-50901180D01*
X33318770Y-50901176D01*
X33455254Y-50844642D01*
X33578096Y-50762563D01*
X33682563Y-50658096D01*
X33764642Y-50535254D01*
X33821176Y-50398770D01*
X33821178Y-50398764D01*
X33839829Y-50305000D01*
X33374242Y-50305000D01*
X33379556Y-50295796D01*
X33400000Y-50219496D01*
X33400000Y-50140504D01*
X33379556Y-50064204D01*
X33374242Y-50055000D01*
X33839828Y-50055000D01*
X35590171Y-50055000D01*
X36055758Y-50055000D01*
X36050444Y-50064204D01*
X36030000Y-50140504D01*
X36030000Y-50219496D01*
X36050444Y-50295796D01*
X36055758Y-50305000D01*
X35590171Y-50305000D01*
X35608821Y-50398764D01*
X35608823Y-50398770D01*
X35665357Y-50535254D01*
X35747436Y-50658096D01*
X35851903Y-50762563D01*
X35974745Y-50844642D01*
X36111229Y-50901176D01*
X36111244Y-50901180D01*
X36256125Y-50929999D01*
X36256132Y-50930000D01*
X36755000Y-50930000D01*
X36755000Y-50480000D01*
X37005000Y-50480000D01*
X37005000Y-50930000D01*
X37503868Y-50930000D01*
X37503874Y-50929999D01*
X37648755Y-50901180D01*
X37648770Y-50901176D01*
X37785254Y-50844642D01*
X37908096Y-50762563D01*
X38012563Y-50658096D01*
X38094642Y-50535254D01*
X38151176Y-50398770D01*
X38151178Y-50398764D01*
X38169829Y-50305000D01*
X37704242Y-50305000D01*
X37709556Y-50295796D01*
X37730000Y-50219496D01*
X37730000Y-50140504D01*
X37709556Y-50064204D01*
X37704242Y-50055000D01*
X38169828Y-50055000D01*
X38151178Y-49961235D01*
X38151176Y-49961229D01*
X38094642Y-49824745D01*
X38012563Y-49701903D01*
X37908096Y-49597436D01*
X37785254Y-49515357D01*
X37648770Y-49458823D01*
X37648755Y-49458819D01*
X37503874Y-49430000D01*
X37005000Y-49430000D01*
X37005000Y-49880000D01*
X36755000Y-49880000D01*
X36755000Y-49430000D01*
X36256125Y-49430000D01*
X36111244Y-49458819D01*
X36111229Y-49458823D01*
X35974745Y-49515357D01*
X35851903Y-49597436D01*
X35747436Y-49701903D01*
X35665357Y-49824745D01*
X35608823Y-49961229D01*
X35608821Y-49961235D01*
X35590171Y-50055000D01*
X33839828Y-50055000D01*
X33821178Y-49961235D01*
X33821176Y-49961229D01*
X33764642Y-49824745D01*
X33682563Y-49701903D01*
X33578096Y-49597436D01*
X33455254Y-49515357D01*
X33318770Y-49458823D01*
X33318755Y-49458819D01*
X33173874Y-49430000D01*
X32825000Y-49430000D01*
X32825000Y-49880000D01*
X32575000Y-49880000D01*
X32575000Y-49430000D01*
X32226125Y-49430000D01*
X32081244Y-49458819D01*
X32081229Y-49458823D01*
X31944745Y-49515357D01*
X31821903Y-49597436D01*
X31717436Y-49701903D01*
X31635357Y-49824745D01*
X31578823Y-49961229D01*
X31578821Y-49961235D01*
X31560171Y-50055000D01*
X30500500Y-50055000D01*
X30500500Y-48674230D01*
X35804500Y-48674230D01*
X35804500Y-48825769D01*
X35843718Y-48972133D01*
X35843719Y-48972137D01*
X35894101Y-49059399D01*
X35919485Y-49103365D01*
X36026635Y-49210515D01*
X36074666Y-49238246D01*
X36157862Y-49286280D01*
X36157864Y-49286280D01*
X36157865Y-49286281D01*
X36273303Y-49317212D01*
X36304230Y-49325499D01*
X36304231Y-49325500D01*
X36304234Y-49325500D01*
X36455769Y-49325500D01*
X36455769Y-49325499D01*
X36602135Y-49286281D01*
X36605565Y-49284301D01*
X36629193Y-49270659D01*
X36733365Y-49210515D01*
X36840515Y-49103365D01*
X36916281Y-48972135D01*
X36955499Y-48825769D01*
X36955500Y-48825769D01*
X36955500Y-48674231D01*
X36955499Y-48674230D01*
X36935720Y-48600412D01*
X36916281Y-48527865D01*
X36916280Y-48527864D01*
X36916280Y-48527862D01*
X36840514Y-48396634D01*
X36733365Y-48289485D01*
X36602137Y-48213719D01*
X36602133Y-48213718D01*
X36455769Y-48174500D01*
X36455766Y-48174500D01*
X36304234Y-48174500D01*
X36304231Y-48174500D01*
X36157866Y-48213718D01*
X36157862Y-48213719D01*
X36026634Y-48289485D01*
X36026634Y-48289486D01*
X35919486Y-48396634D01*
X35919485Y-48396634D01*
X35843719Y-48527862D01*
X35843718Y-48527866D01*
X35804500Y-48674230D01*
X30500500Y-48674230D01*
X30500500Y-47460000D01*
X52319750Y-47460000D01*
X52338669Y-47603708D01*
X52394136Y-47737620D01*
X52394139Y-47737625D01*
X52482379Y-47852621D01*
X52597375Y-47940861D01*
X52597377Y-47940861D01*
X52597379Y-47940863D01*
X52693945Y-47980861D01*
X52731291Y-47996330D01*
X52875000Y-48015250D01*
X53018709Y-47996330D01*
X53152625Y-47940861D01*
X53267621Y-47852621D01*
X53355861Y-47737625D01*
X53411330Y-47603709D01*
X53430250Y-47460000D01*
X53411330Y-47316291D01*
X53355863Y-47182379D01*
X53355860Y-47182374D01*
X53267621Y-47067379D01*
X53267620Y-47067378D01*
X53152625Y-46979139D01*
X53152620Y-46979136D01*
X53018708Y-46923669D01*
X52875000Y-46904750D01*
X52731291Y-46923669D01*
X52597379Y-46979136D01*
X52597374Y-46979139D01*
X52482379Y-47067378D01*
X52482378Y-47067379D01*
X52394139Y-47182374D01*
X52394136Y-47182379D01*
X52338669Y-47316291D01*
X52319750Y-47460000D01*
X30500500Y-47460000D01*
X30500500Y-42894230D01*
X35804500Y-42894230D01*
X35804500Y-43045769D01*
X35843718Y-43192133D01*
X35843719Y-43192137D01*
X35918913Y-43322375D01*
X35919485Y-43323365D01*
X36026635Y-43430515D01*
X36071280Y-43456291D01*
X36157862Y-43506280D01*
X36157864Y-43506280D01*
X36157865Y-43506281D01*
X36273303Y-43537212D01*
X36304230Y-43545499D01*
X36304231Y-43545500D01*
X36304234Y-43545500D01*
X36455769Y-43545500D01*
X36455769Y-43545499D01*
X36602135Y-43506281D01*
X36608002Y-43502894D01*
X36619718Y-43496129D01*
X36733365Y-43430515D01*
X36840515Y-43323365D01*
X36916281Y-43192135D01*
X36955499Y-43045769D01*
X36955500Y-43045769D01*
X36955500Y-42894231D01*
X36955499Y-42894230D01*
X36916281Y-42747866D01*
X36916280Y-42747862D01*
X36840514Y-42616634D01*
X36733365Y-42509485D01*
X36602137Y-42433719D01*
X36602133Y-42433718D01*
X36455769Y-42394500D01*
X36455766Y-42394500D01*
X36304234Y-42394500D01*
X36304231Y-42394500D01*
X36157866Y-42433718D01*
X36157862Y-42433719D01*
X36026634Y-42509485D01*
X36026634Y-42509486D01*
X35919486Y-42616634D01*
X35919485Y-42616634D01*
X35843719Y-42747862D01*
X35843718Y-42747866D01*
X35804500Y-42894230D01*
X30500500Y-42894230D01*
X30500500Y-41415000D01*
X31560171Y-41415000D01*
X32025758Y-41415000D01*
X32020444Y-41424204D01*
X32000000Y-41500504D01*
X32000000Y-41579496D01*
X32020444Y-41655796D01*
X32025758Y-41665000D01*
X31560171Y-41665000D01*
X31578821Y-41758764D01*
X31578823Y-41758770D01*
X31635357Y-41895254D01*
X31717436Y-42018096D01*
X31821903Y-42122563D01*
X31944745Y-42204642D01*
X32081229Y-42261176D01*
X32081244Y-42261180D01*
X32226125Y-42289999D01*
X32226132Y-42290000D01*
X32575000Y-42290000D01*
X32575000Y-41840000D01*
X32825000Y-41840000D01*
X32825000Y-42290000D01*
X33173868Y-42290000D01*
X33173874Y-42289999D01*
X33318755Y-42261180D01*
X33318770Y-42261176D01*
X33455254Y-42204642D01*
X33578096Y-42122563D01*
X33682563Y-42018096D01*
X33764642Y-41895254D01*
X33821176Y-41758770D01*
X33821178Y-41758764D01*
X33839829Y-41665000D01*
X33374242Y-41665000D01*
X33379556Y-41655796D01*
X33400000Y-41579496D01*
X33400000Y-41500504D01*
X33379556Y-41424204D01*
X33374242Y-41415000D01*
X33839828Y-41415000D01*
X35590171Y-41415000D01*
X36055758Y-41415000D01*
X36050444Y-41424204D01*
X36030000Y-41500504D01*
X36030000Y-41579496D01*
X36050444Y-41655796D01*
X36055758Y-41665000D01*
X35590171Y-41665000D01*
X35608821Y-41758764D01*
X35608823Y-41758770D01*
X35665357Y-41895254D01*
X35747436Y-42018096D01*
X35851903Y-42122563D01*
X35974745Y-42204642D01*
X36111229Y-42261176D01*
X36111244Y-42261180D01*
X36256125Y-42289999D01*
X36256132Y-42290000D01*
X36755000Y-42290000D01*
X36755000Y-41840000D01*
X37005000Y-41840000D01*
X37005000Y-42290000D01*
X37503868Y-42290000D01*
X37503874Y-42289999D01*
X37648755Y-42261180D01*
X37648770Y-42261176D01*
X37785254Y-42204642D01*
X37908096Y-42122563D01*
X38012563Y-42018096D01*
X38094642Y-41895254D01*
X38151176Y-41758770D01*
X38151178Y-41758764D01*
X38169829Y-41665000D01*
X37704242Y-41665000D01*
X37709556Y-41655796D01*
X37730000Y-41579496D01*
X37730000Y-41500504D01*
X37709556Y-41424204D01*
X37704242Y-41415000D01*
X38169828Y-41415000D01*
X38151178Y-41321235D01*
X38151176Y-41321229D01*
X38094642Y-41184745D01*
X38012563Y-41061903D01*
X37908096Y-40957436D01*
X37785254Y-40875357D01*
X37648770Y-40818823D01*
X37648755Y-40818819D01*
X37503874Y-40790000D01*
X37005000Y-40790000D01*
X37005000Y-41240000D01*
X36755000Y-41240000D01*
X36755000Y-40790000D01*
X36256125Y-40790000D01*
X36111244Y-40818819D01*
X36111229Y-40818823D01*
X35974745Y-40875357D01*
X35851903Y-40957436D01*
X35747436Y-41061903D01*
X35665357Y-41184745D01*
X35608823Y-41321229D01*
X35608821Y-41321235D01*
X35590171Y-41415000D01*
X33839828Y-41415000D01*
X33821178Y-41321235D01*
X33821176Y-41321229D01*
X33764642Y-41184745D01*
X33682563Y-41061903D01*
X33578096Y-40957436D01*
X33455254Y-40875357D01*
X33318770Y-40818823D01*
X33318755Y-40818819D01*
X33173874Y-40790000D01*
X32825000Y-40790000D01*
X32825000Y-41240000D01*
X32575000Y-41240000D01*
X32575000Y-40790000D01*
X32226125Y-40790000D01*
X32081244Y-40818819D01*
X32081229Y-40818823D01*
X31944745Y-40875357D01*
X31821903Y-40957436D01*
X31717436Y-41061903D01*
X31635357Y-41184745D01*
X31578823Y-41321229D01*
X31578821Y-41321235D01*
X31560171Y-41415000D01*
X30500500Y-41415000D01*
X30500500Y-37999999D01*
X40944750Y-37999999D01*
X40949081Y-38032896D01*
X40949500Y-38039292D01*
X40949500Y-46172477D01*
X40987015Y-46312483D01*
X40987016Y-46312487D01*
X41059485Y-46438008D01*
X41059492Y-46438017D01*
X41482952Y-46861477D01*
X41487178Y-46866295D01*
X41507380Y-46892622D01*
X41533699Y-46912817D01*
X41538518Y-46917043D01*
X41561985Y-46940510D01*
X41590726Y-46957103D01*
X41596042Y-46960655D01*
X41622375Y-46980861D01*
X41653037Y-46993561D01*
X41658772Y-46996389D01*
X41681466Y-47009491D01*
X41687511Y-47012982D01*
X41687515Y-47012984D01*
X41719580Y-47021576D01*
X41725621Y-47023626D01*
X41756291Y-47036330D01*
X41789199Y-47040662D01*
X41795464Y-47041908D01*
X41820806Y-47048698D01*
X41827524Y-47050499D01*
X41827525Y-47050499D01*
X41860700Y-47050499D01*
X41867095Y-47050917D01*
X41900000Y-47055250D01*
X41932904Y-47050917D01*
X41939300Y-47050499D01*
X41972473Y-47050499D01*
X41972474Y-47050499D01*
X42004522Y-47041911D01*
X42010807Y-47040661D01*
X42010815Y-47040660D01*
X42043709Y-47036330D01*
X42074370Y-47023628D01*
X42080430Y-47021571D01*
X42112485Y-47012984D01*
X42141221Y-46996392D01*
X42146968Y-46993559D01*
X42154109Y-46990600D01*
X42177625Y-46980861D01*
X42203955Y-46960655D01*
X42209277Y-46957100D01*
X42238014Y-46940510D01*
X42261482Y-46917040D01*
X42266296Y-46912820D01*
X42276814Y-46904750D01*
X42292621Y-46892621D01*
X42312821Y-46866294D01*
X42317040Y-46861482D01*
X42340510Y-46838014D01*
X42357100Y-46809277D01*
X42360655Y-46803955D01*
X42380861Y-46777625D01*
X42393559Y-46746968D01*
X42396394Y-46741218D01*
X42412984Y-46712485D01*
X42421571Y-46680430D01*
X42423631Y-46674364D01*
X42436330Y-46643709D01*
X42440661Y-46610806D01*
X42441912Y-46604518D01*
X42450499Y-46572473D01*
X42450499Y-46539299D01*
X42450918Y-46532903D01*
X42455250Y-46500000D01*
X42450918Y-46467095D01*
X42450499Y-46460699D01*
X42450499Y-46427524D01*
X42448698Y-46420806D01*
X42441908Y-46395464D01*
X42440662Y-46389199D01*
X42436330Y-46356291D01*
X42423626Y-46325621D01*
X42421576Y-46319580D01*
X42412984Y-46287515D01*
X42396389Y-46258772D01*
X42393561Y-46253037D01*
X42380861Y-46222375D01*
X42360655Y-46196042D01*
X42357101Y-46190722D01*
X42340510Y-46161985D01*
X42317043Y-46138518D01*
X42312817Y-46133699D01*
X42292622Y-46107380D01*
X42266295Y-46087178D01*
X42261477Y-46082952D01*
X42064852Y-45886327D01*
X42050500Y-45851679D01*
X42050500Y-42525000D01*
X53319750Y-42525000D01*
X53338669Y-42668708D01*
X53394136Y-42802620D01*
X53394139Y-42802625D01*
X53482379Y-42917621D01*
X53597375Y-43005861D01*
X53597377Y-43005861D01*
X53597379Y-43005863D01*
X53693723Y-43045769D01*
X53731291Y-43061330D01*
X53875000Y-43080250D01*
X54018709Y-43061330D01*
X54152625Y-43005861D01*
X54267621Y-42917621D01*
X54355861Y-42802625D01*
X54411330Y-42668709D01*
X54430250Y-42525000D01*
X54411330Y-42381291D01*
X54361579Y-42261180D01*
X54355863Y-42247379D01*
X54355860Y-42247374D01*
X54323070Y-42204642D01*
X54267621Y-42132379D01*
X54152625Y-42044139D01*
X54152620Y-42044136D01*
X54018708Y-41988669D01*
X53875000Y-41969750D01*
X53731291Y-41988669D01*
X53597379Y-42044136D01*
X53597374Y-42044139D01*
X53482379Y-42132378D01*
X53482378Y-42132379D01*
X53394139Y-42247374D01*
X53394136Y-42247379D01*
X53338669Y-42381291D01*
X53319750Y-42525000D01*
X42050500Y-42525000D01*
X42050500Y-38039292D01*
X42050919Y-38032896D01*
X42055250Y-38000000D01*
X42050919Y-37967101D01*
X42050500Y-37960706D01*
X42050500Y-37927524D01*
X42041911Y-37895471D01*
X42040660Y-37889184D01*
X42039822Y-37882825D01*
X42036330Y-37856291D01*
X42023631Y-37825635D01*
X42021573Y-37819569D01*
X42012985Y-37787518D01*
X42012984Y-37787515D01*
X41996389Y-37758772D01*
X41993558Y-37753030D01*
X41980861Y-37722375D01*
X41960655Y-37696042D01*
X41957096Y-37690714D01*
X41940512Y-37661990D01*
X41940511Y-37661989D01*
X41940509Y-37661985D01*
X41917043Y-37638519D01*
X41912820Y-37633703D01*
X41892621Y-37607379D01*
X41892620Y-37607378D01*
X41866295Y-37587178D01*
X41861476Y-37582952D01*
X41838018Y-37559494D01*
X41838015Y-37559491D01*
X41838011Y-37559489D01*
X41838009Y-37559487D01*
X41809280Y-37542899D01*
X41803954Y-37539340D01*
X41777628Y-37519140D01*
X41777625Y-37519139D01*
X41746964Y-37506438D01*
X41741219Y-37503605D01*
X41712485Y-37487016D01*
X41712484Y-37487015D01*
X41712481Y-37487014D01*
X41680432Y-37478427D01*
X41674363Y-37476367D01*
X41643708Y-37463669D01*
X41643709Y-37463669D01*
X41610809Y-37459338D01*
X41604523Y-37458087D01*
X41572477Y-37449500D01*
X41572475Y-37449500D01*
X41539292Y-37449500D01*
X41532896Y-37449081D01*
X41500000Y-37444750D01*
X41467104Y-37449081D01*
X41460708Y-37449500D01*
X41427522Y-37449500D01*
X41395474Y-37458087D01*
X41389189Y-37459338D01*
X41356292Y-37463669D01*
X41325635Y-37476367D01*
X41319569Y-37478426D01*
X41287518Y-37487015D01*
X41287517Y-37487015D01*
X41258778Y-37503606D01*
X41253033Y-37506438D01*
X41222378Y-37519136D01*
X41222371Y-37519141D01*
X41196043Y-37539342D01*
X41190717Y-37542901D01*
X41161990Y-37559487D01*
X41161979Y-37559495D01*
X41138519Y-37582954D01*
X41133704Y-37587177D01*
X41107378Y-37607378D01*
X41087177Y-37633704D01*
X41082954Y-37638519D01*
X41059495Y-37661979D01*
X41059487Y-37661990D01*
X41042901Y-37690717D01*
X41039342Y-37696043D01*
X41019141Y-37722371D01*
X41019136Y-37722378D01*
X41006438Y-37753033D01*
X41003606Y-37758778D01*
X40987015Y-37787517D01*
X40987015Y-37787518D01*
X40978426Y-37819569D01*
X40976367Y-37825635D01*
X40963669Y-37856292D01*
X40959338Y-37889189D01*
X40958087Y-37895474D01*
X40949500Y-37927521D01*
X40949500Y-37960706D01*
X40949081Y-37967101D01*
X40944750Y-37999999D01*
X30500500Y-37999999D01*
X30500500Y-33895001D01*
X43919750Y-33895001D01*
X43924081Y-33927898D01*
X43924500Y-33934294D01*
X43924500Y-33967475D01*
X43933088Y-33999530D01*
X43934337Y-34005813D01*
X43938668Y-34038703D01*
X43938672Y-34038717D01*
X43951367Y-34069365D01*
X43953427Y-34075434D01*
X43962014Y-34107482D01*
X43962017Y-34107490D01*
X43978605Y-34136223D01*
X43981439Y-34141968D01*
X43994140Y-34172629D01*
X43994140Y-34172630D01*
X44014337Y-34198952D01*
X44017896Y-34204278D01*
X44034486Y-34233011D01*
X44034488Y-34233013D01*
X44034490Y-34233017D01*
X44034493Y-34233020D01*
X44057952Y-34256479D01*
X44062178Y-34261297D01*
X44082380Y-34287624D01*
X44108699Y-34307819D01*
X44113518Y-34312045D01*
X44136985Y-34335512D01*
X44165726Y-34352105D01*
X44171042Y-34355657D01*
X44197375Y-34375863D01*
X44228037Y-34388563D01*
X44233772Y-34391391D01*
X44262515Y-34407986D01*
X44262519Y-34407987D01*
X44294569Y-34416575D01*
X44300635Y-34418633D01*
X44331291Y-34431332D01*
X44364192Y-34435663D01*
X44370469Y-34436912D01*
X44386200Y-34441127D01*
X44402524Y-34445502D01*
X44402526Y-34445502D01*
X44435708Y-34445502D01*
X44442103Y-34445920D01*
X44475000Y-34450252D01*
X44507896Y-34445920D01*
X44514292Y-34445502D01*
X44547475Y-34445502D01*
X44553865Y-34443789D01*
X44579535Y-34436910D01*
X44585803Y-34435664D01*
X44618709Y-34431332D01*
X44649363Y-34418633D01*
X44655419Y-34416577D01*
X44687485Y-34407986D01*
X44716233Y-34391387D01*
X44721954Y-34388566D01*
X44752625Y-34375863D01*
X44778948Y-34355664D01*
X44784279Y-34352102D01*
X44813015Y-34335512D01*
X44836480Y-34312045D01*
X44841300Y-34307820D01*
X44867618Y-34287625D01*
X44867617Y-34287625D01*
X44867621Y-34287623D01*
X44887827Y-34261288D01*
X44892039Y-34256486D01*
X46583674Y-32564852D01*
X46618322Y-32550500D01*
X51710708Y-32550500D01*
X51717103Y-32550918D01*
X51750000Y-32555250D01*
X51782896Y-32550918D01*
X51789292Y-32550500D01*
X51822474Y-32550500D01*
X51822475Y-32550500D01*
X51854526Y-32541910D01*
X51860814Y-32540660D01*
X51893709Y-32536330D01*
X51924363Y-32523631D01*
X51930419Y-32521575D01*
X51962485Y-32512984D01*
X51991221Y-32496392D01*
X51996968Y-32493559D01*
X52003739Y-32490754D01*
X52027625Y-32480861D01*
X52053967Y-32460647D01*
X52059265Y-32457107D01*
X52088015Y-32440509D01*
X52111482Y-32417040D01*
X52116296Y-32412820D01*
X52142621Y-32392621D01*
X52162820Y-32366296D01*
X52167040Y-32361482D01*
X52190509Y-32338015D01*
X52207107Y-32309265D01*
X52210647Y-32303967D01*
X52230861Y-32277625D01*
X52243559Y-32246968D01*
X52246394Y-32241218D01*
X52262983Y-32212486D01*
X52262984Y-32212485D01*
X52271575Y-32180419D01*
X52273633Y-32174360D01*
X52286330Y-32143709D01*
X52290660Y-32110813D01*
X52291911Y-32104526D01*
X52300500Y-32072474D01*
X52300500Y-32039292D01*
X52300919Y-32032896D01*
X52301613Y-32027625D01*
X52305250Y-32000000D01*
X52300919Y-31967101D01*
X52300500Y-31960706D01*
X52300500Y-31927524D01*
X52291911Y-31895471D01*
X52290660Y-31889184D01*
X52289822Y-31882825D01*
X52286330Y-31856291D01*
X52273631Y-31825635D01*
X52271573Y-31819569D01*
X52262984Y-31787516D01*
X52262984Y-31787515D01*
X52246389Y-31758772D01*
X52243558Y-31753030D01*
X52242303Y-31750000D01*
X52230861Y-31722375D01*
X52210655Y-31696042D01*
X52207096Y-31690714D01*
X52190512Y-31661990D01*
X52190511Y-31661989D01*
X52190509Y-31661985D01*
X52167046Y-31638522D01*
X52162820Y-31633703D01*
X52142621Y-31607379D01*
X52142620Y-31607378D01*
X52116295Y-31587178D01*
X52111476Y-31582952D01*
X52088018Y-31559494D01*
X52088015Y-31559491D01*
X52088011Y-31559489D01*
X52088009Y-31559487D01*
X52059280Y-31542899D01*
X52053954Y-31539340D01*
X52027628Y-31519140D01*
X52027625Y-31519139D01*
X51996964Y-31506438D01*
X51991219Y-31503605D01*
X51962485Y-31487016D01*
X51962484Y-31487015D01*
X51962481Y-31487014D01*
X51930432Y-31478427D01*
X51924363Y-31476367D01*
X51893708Y-31463669D01*
X51893709Y-31463669D01*
X51860809Y-31459338D01*
X51854523Y-31458087D01*
X51822477Y-31449500D01*
X51822475Y-31449500D01*
X51789292Y-31449500D01*
X51782896Y-31449081D01*
X51750000Y-31444750D01*
X51717104Y-31449081D01*
X51710708Y-31449500D01*
X46297524Y-31449500D01*
X46157518Y-31487015D01*
X46157514Y-31487016D01*
X46031987Y-31559490D01*
X46031986Y-31559491D01*
X44113521Y-33477954D01*
X44108704Y-33482179D01*
X44082378Y-33502380D01*
X44062180Y-33528702D01*
X44057957Y-33533517D01*
X44034494Y-33556981D01*
X44034486Y-33556993D01*
X44017894Y-33585728D01*
X44014335Y-33591054D01*
X43994141Y-33617373D01*
X43994138Y-33617378D01*
X43981437Y-33648037D01*
X43978605Y-33653780D01*
X43962016Y-33682515D01*
X43962015Y-33682518D01*
X43953426Y-33714571D01*
X43951367Y-33720637D01*
X43938671Y-33751289D01*
X43938668Y-33751300D01*
X43934337Y-33784190D01*
X43933088Y-33790471D01*
X43924500Y-33822527D01*
X43924500Y-33855708D01*
X43924081Y-33862103D01*
X43919750Y-33895001D01*
X30500500Y-33895001D01*
X30500500Y-29750000D01*
X38694750Y-29750000D01*
X38713669Y-29893708D01*
X38769136Y-30027620D01*
X38769139Y-30027625D01*
X38857378Y-30142620D01*
X38857379Y-30142621D01*
X38944368Y-30209370D01*
X38963120Y-30241848D01*
X38953413Y-30278073D01*
X38944369Y-30287118D01*
X38862846Y-30349674D01*
X38774608Y-30464668D01*
X38774605Y-30464673D01*
X38719138Y-30598585D01*
X38700219Y-30742294D01*
X38719138Y-30886002D01*
X38774605Y-31019914D01*
X38774608Y-31019919D01*
X38862847Y-31134914D01*
X38862848Y-31134915D01*
X38954411Y-31205174D01*
X38973163Y-31237652D01*
X38963456Y-31273877D01*
X38954412Y-31282922D01*
X38857377Y-31357380D01*
X38769139Y-31472374D01*
X38769136Y-31472379D01*
X38713669Y-31606291D01*
X38694750Y-31750000D01*
X38713669Y-31893708D01*
X38769136Y-32027620D01*
X38769139Y-32027625D01*
X38857378Y-32142620D01*
X38857379Y-32142621D01*
X38946656Y-32211126D01*
X38965408Y-32243604D01*
X38955701Y-32279829D01*
X38946656Y-32288874D01*
X38857379Y-32357378D01*
X38857378Y-32357379D01*
X38769139Y-32472374D01*
X38769136Y-32472379D01*
X38713669Y-32606291D01*
X38694750Y-32750000D01*
X38713669Y-32893708D01*
X38769136Y-33027620D01*
X38769139Y-33027625D01*
X38857379Y-33142621D01*
X38972375Y-33230861D01*
X38972377Y-33230861D01*
X38972379Y-33230863D01*
X39086615Y-33278180D01*
X39106291Y-33286330D01*
X39250000Y-33305250D01*
X39393709Y-33286330D01*
X39527625Y-33230861D01*
X39642621Y-33142621D01*
X39730861Y-33027625D01*
X39786330Y-32893709D01*
X39805250Y-32750000D01*
X39786330Y-32606291D01*
X39769166Y-32564852D01*
X39730863Y-32472379D01*
X39730860Y-32472374D01*
X39685162Y-32412820D01*
X39642621Y-32357379D01*
X39553342Y-32288872D01*
X39534591Y-32256396D01*
X39544298Y-32220171D01*
X39553339Y-32211129D01*
X39642621Y-32142621D01*
X39730861Y-32027625D01*
X39786330Y-31893709D01*
X39805250Y-31750000D01*
X39786330Y-31606291D01*
X39778413Y-31587178D01*
X39730863Y-31472379D01*
X39730860Y-31472374D01*
X39724180Y-31463669D01*
X39642621Y-31357379D01*
X39551057Y-31287119D01*
X39532305Y-31254641D01*
X39542012Y-31218416D01*
X39551055Y-31209372D01*
X39648090Y-31134915D01*
X39736330Y-31019919D01*
X39791799Y-30886003D01*
X39810719Y-30742294D01*
X39791799Y-30598585D01*
X39736330Y-30464669D01*
X39648090Y-30349673D01*
X39561099Y-30282922D01*
X39542348Y-30250445D01*
X39552055Y-30214220D01*
X39561100Y-30205175D01*
X39589329Y-30183512D01*
X39642621Y-30142621D01*
X39730861Y-30027625D01*
X39786330Y-29893709D01*
X39805250Y-29750000D01*
X39786330Y-29606291D01*
X39730861Y-29472375D01*
X39642621Y-29357379D01*
X39527625Y-29269139D01*
X39527620Y-29269136D01*
X39393708Y-29213669D01*
X39250000Y-29194750D01*
X39106291Y-29213669D01*
X38972379Y-29269136D01*
X38972374Y-29269139D01*
X38857379Y-29357378D01*
X38857378Y-29357379D01*
X38769139Y-29472374D01*
X38769136Y-29472379D01*
X38713669Y-29606291D01*
X38694750Y-29750000D01*
X30500500Y-29750000D01*
X30500500Y-27001487D01*
X30500545Y-27000000D01*
X30844475Y-27000000D01*
X30864551Y-27293512D01*
X30924405Y-27581546D01*
X30924408Y-27581554D01*
X31022928Y-27858764D01*
X31127840Y-28061234D01*
X31158276Y-28119972D01*
X31158280Y-28119980D01*
X31243106Y-28240151D01*
X31327935Y-28360326D01*
X31528740Y-28575335D01*
X31756951Y-28760999D01*
X32008318Y-28913859D01*
X32278159Y-29031067D01*
X32561445Y-29110440D01*
X32812841Y-29144993D01*
X32852901Y-29150500D01*
X32852902Y-29150500D01*
X33147099Y-29150500D01*
X33182318Y-29145659D01*
X33438555Y-29110440D01*
X33721841Y-29031067D01*
X33991682Y-28913859D01*
X34243049Y-28760999D01*
X34471260Y-28575335D01*
X34672065Y-28360326D01*
X34841722Y-28119976D01*
X34893557Y-28019938D01*
X34922239Y-27995779D01*
X34959605Y-27998977D01*
X34983766Y-28027660D01*
X34982332Y-28061234D01*
X34963669Y-28106291D01*
X34944750Y-28250000D01*
X34963669Y-28393708D01*
X35019136Y-28527620D01*
X35019139Y-28527625D01*
X35107379Y-28642621D01*
X35222375Y-28730861D01*
X35222377Y-28730861D01*
X35222379Y-28730863D01*
X35356291Y-28786330D01*
X35500000Y-28805250D01*
X35643709Y-28786330D01*
X35777625Y-28730861D01*
X35892621Y-28642621D01*
X35980861Y-28527625D01*
X36036330Y-28393709D01*
X36055250Y-28250000D01*
X36194750Y-28250000D01*
X36213669Y-28393708D01*
X36269136Y-28527620D01*
X36269139Y-28527625D01*
X36357379Y-28642621D01*
X36472375Y-28730861D01*
X36472377Y-28730861D01*
X36472379Y-28730863D01*
X36606291Y-28786330D01*
X36750000Y-28805250D01*
X36893709Y-28786330D01*
X37027625Y-28730861D01*
X37142621Y-28642621D01*
X37230861Y-28527625D01*
X37286330Y-28393709D01*
X37305250Y-28250000D01*
X41194750Y-28250000D01*
X41213669Y-28393708D01*
X41269136Y-28527620D01*
X41269139Y-28527625D01*
X41357379Y-28642621D01*
X41472375Y-28730861D01*
X41472377Y-28730861D01*
X41472379Y-28730863D01*
X41606291Y-28786330D01*
X41750000Y-28805250D01*
X41893709Y-28786330D01*
X42027625Y-28730861D01*
X42142621Y-28642621D01*
X42230861Y-28527625D01*
X42286330Y-28393709D01*
X42305250Y-28250000D01*
X42286330Y-28106291D01*
X42267667Y-28061234D01*
X42230863Y-27972379D01*
X42230860Y-27972374D01*
X42211374Y-27946980D01*
X42142621Y-27857379D01*
X42142618Y-27857377D01*
X42027625Y-27769139D01*
X42027620Y-27769136D01*
X41893708Y-27713669D01*
X41750000Y-27694750D01*
X41606291Y-27713669D01*
X41472379Y-27769136D01*
X41472374Y-27769139D01*
X41357379Y-27857378D01*
X41357378Y-27857379D01*
X41269139Y-27972374D01*
X41269136Y-27972379D01*
X41213669Y-28106291D01*
X41194750Y-28250000D01*
X37305250Y-28250000D01*
X37286330Y-28106291D01*
X37267667Y-28061234D01*
X37230863Y-27972379D01*
X37230860Y-27972374D01*
X37211374Y-27946980D01*
X37142621Y-27857379D01*
X37142618Y-27857377D01*
X37027625Y-27769139D01*
X37027620Y-27769136D01*
X36893708Y-27713669D01*
X36750000Y-27694750D01*
X36606291Y-27713669D01*
X36472379Y-27769136D01*
X36472374Y-27769139D01*
X36357379Y-27857378D01*
X36357378Y-27857379D01*
X36269139Y-27972374D01*
X36269136Y-27972379D01*
X36213669Y-28106291D01*
X36194750Y-28250000D01*
X36055250Y-28250000D01*
X36036330Y-28106291D01*
X36017667Y-28061234D01*
X35980863Y-27972379D01*
X35980860Y-27972374D01*
X35961374Y-27946980D01*
X35892621Y-27857379D01*
X35892618Y-27857377D01*
X35777625Y-27769139D01*
X35777620Y-27769136D01*
X35643708Y-27713669D01*
X35500000Y-27694750D01*
X35356291Y-27713669D01*
X35222379Y-27769136D01*
X35222374Y-27769139D01*
X35107380Y-27857377D01*
X35045565Y-27937936D01*
X35013086Y-27956687D01*
X34976861Y-27946980D01*
X34958110Y-27914501D01*
X34963184Y-27885565D01*
X34977072Y-27858764D01*
X35075592Y-27581554D01*
X35135448Y-27293511D01*
X35155525Y-27000000D01*
X35135448Y-26706489D01*
X35134447Y-26701672D01*
X35075594Y-26418453D01*
X35070723Y-26404746D01*
X34977072Y-26141236D01*
X34841722Y-25880024D01*
X34841720Y-25880021D01*
X34841719Y-25880019D01*
X34787189Y-25802768D01*
X34672065Y-25639674D01*
X34471260Y-25424665D01*
X34243049Y-25239001D01*
X33991682Y-25086141D01*
X33991678Y-25086139D01*
X33991676Y-25086138D01*
X33721842Y-24968933D01*
X33438560Y-24889561D01*
X33438555Y-24889560D01*
X33147099Y-24849500D01*
X33147098Y-24849500D01*
X32852902Y-24849500D01*
X32852901Y-24849500D01*
X32561444Y-24889560D01*
X32561439Y-24889561D01*
X32278157Y-24968933D01*
X32008323Y-25086138D01*
X31756949Y-25239002D01*
X31528748Y-25424658D01*
X31528737Y-25424668D01*
X31327939Y-25639669D01*
X31327933Y-25639677D01*
X31158280Y-25880019D01*
X31158276Y-25880027D01*
X31022932Y-26141228D01*
X31022928Y-26141237D01*
X30924405Y-26418453D01*
X30864551Y-26706487D01*
X30844475Y-27000000D01*
X30500545Y-27000000D01*
X30500589Y-26998529D01*
X30518545Y-26701672D01*
X30519259Y-26695798D01*
X30557752Y-26485750D01*
X30572598Y-26404736D01*
X30574008Y-26399013D01*
X30662047Y-26116487D01*
X30664140Y-26110969D01*
X30785592Y-25841114D01*
X30788327Y-25835901D01*
X30941423Y-25582650D01*
X30944775Y-25577794D01*
X31127277Y-25344847D01*
X31131185Y-25340436D01*
X31340436Y-25131185D01*
X31344847Y-25127277D01*
X31577794Y-24944775D01*
X31582650Y-24941423D01*
X31835901Y-24788327D01*
X31841114Y-24785592D01*
X32110969Y-24664140D01*
X32116487Y-24662047D01*
X32399013Y-24574008D01*
X32404736Y-24572598D01*
X32695802Y-24519258D01*
X32701665Y-24518545D01*
X32945547Y-24503793D01*
X32998530Y-24500589D01*
X33001488Y-24500500D01*
X33065892Y-24500500D01*
X58951000Y-24500500D01*
X58985648Y-24514852D01*
G37*
%TD.AperFunction*%
%TD*%
%TA.AperFunction,Conductor*%
%TO.N,+3.3VA*%
G36*
X76001470Y-24500589D02*
G01*
X76062476Y-24504279D01*
X76298332Y-24518545D01*
X76304199Y-24519258D01*
X76595259Y-24572597D01*
X76600990Y-24574009D01*
X76883505Y-24662045D01*
X76889035Y-24664142D01*
X77158878Y-24785589D01*
X77164105Y-24788331D01*
X77369074Y-24912240D01*
X77417342Y-24941419D01*
X77422211Y-24944780D01*
X77655142Y-25127269D01*
X77659571Y-25131193D01*
X77868806Y-25340428D01*
X77872730Y-25344857D01*
X78055219Y-25577788D01*
X78058580Y-25582657D01*
X78211664Y-25835888D01*
X78214414Y-25841128D01*
X78335856Y-26110962D01*
X78337954Y-26116494D01*
X78425987Y-26399000D01*
X78427403Y-26404746D01*
X78480740Y-26695798D01*
X78481454Y-26701671D01*
X78499411Y-26998528D01*
X78499500Y-27001487D01*
X78499500Y-52451000D01*
X78485148Y-52485648D01*
X78450500Y-52500000D01*
X60049000Y-52500000D01*
X60014352Y-52485648D01*
X60000000Y-52451000D01*
X60000000Y-51674998D01*
X68144750Y-51674998D01*
X68163669Y-51818708D01*
X68219136Y-51952620D01*
X68219139Y-51952625D01*
X68307379Y-52067621D01*
X68422375Y-52155861D01*
X68422377Y-52155861D01*
X68422379Y-52155863D01*
X68556291Y-52211330D01*
X68700000Y-52230250D01*
X68843709Y-52211330D01*
X68977625Y-52155861D01*
X69092621Y-52067621D01*
X69180861Y-51952625D01*
X69236330Y-51818709D01*
X69255250Y-51675000D01*
X69236330Y-51531291D01*
X69180861Y-51397375D01*
X69092621Y-51282379D01*
X69090645Y-51280863D01*
X69050424Y-51250000D01*
X71694750Y-51250000D01*
X71713669Y-51393708D01*
X71769136Y-51527620D01*
X71769139Y-51527625D01*
X71857379Y-51642621D01*
X71972375Y-51730861D01*
X71972377Y-51730861D01*
X71972379Y-51730863D01*
X72106291Y-51786330D01*
X72250000Y-51805250D01*
X72393709Y-51786330D01*
X72527625Y-51730861D01*
X72642621Y-51642621D01*
X72730861Y-51527625D01*
X72786330Y-51393709D01*
X72805250Y-51250000D01*
X72786330Y-51106291D01*
X72730861Y-50972375D01*
X72642621Y-50857379D01*
X72527625Y-50769139D01*
X72527620Y-50769136D01*
X72393708Y-50713669D01*
X72250000Y-50694750D01*
X72106291Y-50713669D01*
X71972379Y-50769136D01*
X71972374Y-50769139D01*
X71857379Y-50857378D01*
X71857378Y-50857379D01*
X71769139Y-50972374D01*
X71769136Y-50972379D01*
X71713669Y-51106291D01*
X71694750Y-51250000D01*
X69050424Y-51250000D01*
X68977625Y-51194139D01*
X68977620Y-51194136D01*
X68843708Y-51138669D01*
X68700000Y-51119750D01*
X68556291Y-51138669D01*
X68422379Y-51194136D01*
X68422374Y-51194139D01*
X68307379Y-51282378D01*
X68307378Y-51282379D01*
X68219139Y-51397374D01*
X68219136Y-51397379D01*
X68163669Y-51531291D01*
X68144750Y-51674998D01*
X60000000Y-51674998D01*
X60000000Y-50800000D01*
X62944750Y-50800000D01*
X62963669Y-50943708D01*
X63019136Y-51077620D01*
X63019139Y-51077625D01*
X63107379Y-51192621D01*
X63222375Y-51280861D01*
X63222377Y-51280861D01*
X63222379Y-51280863D01*
X63356291Y-51336330D01*
X63500000Y-51355250D01*
X63643709Y-51336330D01*
X63777625Y-51280861D01*
X63892621Y-51192621D01*
X63980861Y-51077625D01*
X64036330Y-50943709D01*
X64055250Y-50800000D01*
X64036330Y-50656291D01*
X63980861Y-50522375D01*
X63892621Y-50407379D01*
X63777625Y-50319139D01*
X63777620Y-50319136D01*
X63643708Y-50263669D01*
X63500000Y-50244750D01*
X63356291Y-50263669D01*
X63222379Y-50319136D01*
X63222374Y-50319139D01*
X63107379Y-50407378D01*
X63107378Y-50407379D01*
X63019139Y-50522374D01*
X63019136Y-50522379D01*
X62963669Y-50656291D01*
X62944750Y-50800000D01*
X60000000Y-50800000D01*
X60000000Y-49526994D01*
X60014352Y-49492346D01*
X60049000Y-49477994D01*
X60078826Y-49488118D01*
X60146778Y-49540260D01*
X60146781Y-49540261D01*
X60146782Y-49540262D01*
X60242720Y-49580000D01*
X60280694Y-49595729D01*
X60424403Y-49614649D01*
X60568112Y-49595729D01*
X60606086Y-49580000D01*
X66514750Y-49580000D01*
X66533669Y-49723708D01*
X66589136Y-49857620D01*
X66589139Y-49857625D01*
X66677379Y-49972621D01*
X66792375Y-50060861D01*
X66792377Y-50060861D01*
X66792379Y-50060863D01*
X66926291Y-50116330D01*
X67070000Y-50135250D01*
X67213709Y-50116330D01*
X67347625Y-50060861D01*
X67462621Y-49972621D01*
X67550861Y-49857625D01*
X67606330Y-49723709D01*
X67625250Y-49580000D01*
X67606330Y-49436291D01*
X67550863Y-49302379D01*
X67550860Y-49302374D01*
X67462621Y-49187379D01*
X67462620Y-49187378D01*
X67347625Y-49099139D01*
X67347620Y-49099136D01*
X67213708Y-49043669D01*
X67070000Y-49024750D01*
X66926291Y-49043669D01*
X66792379Y-49099136D01*
X66792374Y-49099139D01*
X66677379Y-49187378D01*
X66677378Y-49187379D01*
X66589139Y-49302374D01*
X66589136Y-49302379D01*
X66533669Y-49436291D01*
X66514750Y-49580000D01*
X60606086Y-49580000D01*
X60702028Y-49540260D01*
X60817024Y-49452020D01*
X60905264Y-49337024D01*
X60960733Y-49203108D01*
X60979653Y-49059399D01*
X60960733Y-48915690D01*
X60905264Y-48781774D01*
X60817024Y-48666778D01*
X60702028Y-48578538D01*
X60702023Y-48578535D01*
X60568111Y-48523068D01*
X60443322Y-48506639D01*
X60424403Y-48504149D01*
X60424402Y-48504149D01*
X60305895Y-48519750D01*
X60269670Y-48510043D01*
X60250919Y-48477564D01*
X60250500Y-48471169D01*
X60250500Y-47500000D01*
X60444750Y-47500000D01*
X60463669Y-47643708D01*
X60519136Y-47777620D01*
X60519139Y-47777625D01*
X60607379Y-47892621D01*
X60722375Y-47980861D01*
X60722377Y-47980861D01*
X60722379Y-47980863D01*
X60856291Y-48036330D01*
X61000000Y-48055250D01*
X61143709Y-48036330D01*
X61277625Y-47980861D01*
X61392621Y-47892621D01*
X61480861Y-47777625D01*
X61536330Y-47643709D01*
X61555250Y-47500000D01*
X61536330Y-47356291D01*
X61480861Y-47222375D01*
X61392621Y-47107379D01*
X61277625Y-47019139D01*
X61277620Y-47019136D01*
X61143708Y-46963669D01*
X61000000Y-46944750D01*
X60856291Y-46963669D01*
X60722379Y-47019136D01*
X60722374Y-47019139D01*
X60607379Y-47107378D01*
X60607378Y-47107379D01*
X60519139Y-47222374D01*
X60519136Y-47222379D01*
X60463669Y-47356291D01*
X60444750Y-47500000D01*
X60250500Y-47500000D01*
X60250500Y-45500000D01*
X74944750Y-45500000D01*
X74963669Y-45643708D01*
X75019136Y-45777620D01*
X75019139Y-45777625D01*
X75107379Y-45892621D01*
X75222375Y-45980861D01*
X75222377Y-45980861D01*
X75222379Y-45980863D01*
X75356291Y-46036330D01*
X75500000Y-46055250D01*
X75643709Y-46036330D01*
X75777625Y-45980861D01*
X75892621Y-45892621D01*
X75980861Y-45777625D01*
X76036330Y-45643709D01*
X76055250Y-45500000D01*
X76036330Y-45356291D01*
X75980861Y-45222375D01*
X75892621Y-45107379D01*
X75777625Y-45019139D01*
X75777620Y-45019136D01*
X75643708Y-44963669D01*
X75500000Y-44944750D01*
X75356291Y-44963669D01*
X75222379Y-45019136D01*
X75222374Y-45019139D01*
X75107379Y-45107378D01*
X75107378Y-45107379D01*
X75019139Y-45222374D01*
X75019136Y-45222379D01*
X74963669Y-45356291D01*
X74944750Y-45500000D01*
X60250500Y-45500000D01*
X60250500Y-44359297D01*
X60212984Y-44219291D01*
X60212983Y-44219288D01*
X60185961Y-44172485D01*
X60140514Y-44093767D01*
X60140511Y-44093764D01*
X60140510Y-44093761D01*
X60079223Y-44032474D01*
X60014352Y-43967602D01*
X60000000Y-43932954D01*
X60000000Y-43600000D01*
X62744750Y-43600000D01*
X62763669Y-43743708D01*
X62819136Y-43877620D01*
X62819139Y-43877625D01*
X62854662Y-43923920D01*
X62907379Y-43992621D01*
X63022375Y-44080861D01*
X63022377Y-44080861D01*
X63022379Y-44080863D01*
X63156291Y-44136330D01*
X63300000Y-44155250D01*
X63443709Y-44136330D01*
X63577625Y-44080861D01*
X63692621Y-43992621D01*
X63780861Y-43877625D01*
X63836330Y-43743709D01*
X63855250Y-43600000D01*
X63836330Y-43456291D01*
X63780861Y-43322375D01*
X63692621Y-43207379D01*
X63577625Y-43119139D01*
X63577620Y-43119136D01*
X63443708Y-43063669D01*
X63300000Y-43044750D01*
X63156291Y-43063669D01*
X63022379Y-43119136D01*
X63022374Y-43119139D01*
X62907379Y-43207378D01*
X62907378Y-43207379D01*
X62819139Y-43322374D01*
X62819136Y-43322379D01*
X62763669Y-43456291D01*
X62744750Y-43600000D01*
X60000000Y-43600000D01*
X60000000Y-42006250D01*
X61651000Y-42006250D01*
X61669919Y-42149958D01*
X61725386Y-42283870D01*
X61725389Y-42283875D01*
X61813629Y-42398871D01*
X61928625Y-42487111D01*
X61928627Y-42487111D01*
X61928629Y-42487113D01*
X61959742Y-42500000D01*
X62062541Y-42542580D01*
X62206250Y-42561500D01*
X62349959Y-42542580D01*
X62452758Y-42500000D01*
X66694750Y-42500000D01*
X66713669Y-42643708D01*
X66769136Y-42777620D01*
X66769139Y-42777625D01*
X66857379Y-42892621D01*
X66972375Y-42980861D01*
X66972377Y-42980861D01*
X66972379Y-42980863D01*
X67106291Y-43036330D01*
X67250000Y-43055250D01*
X67393709Y-43036330D01*
X67527625Y-42980861D01*
X67642621Y-42892621D01*
X67730861Y-42777625D01*
X67786330Y-42643709D01*
X67805250Y-42500000D01*
X67786330Y-42356291D01*
X67730861Y-42222375D01*
X67642621Y-42107379D01*
X67527625Y-42019139D01*
X67527620Y-42019136D01*
X67393708Y-41963669D01*
X67250000Y-41944750D01*
X67106291Y-41963669D01*
X66972379Y-42019136D01*
X66972374Y-42019139D01*
X66857379Y-42107378D01*
X66857378Y-42107379D01*
X66769139Y-42222374D01*
X66769136Y-42222379D01*
X66713669Y-42356291D01*
X66694750Y-42500000D01*
X62452758Y-42500000D01*
X62483875Y-42487111D01*
X62598871Y-42398871D01*
X62687111Y-42283875D01*
X62742580Y-42149959D01*
X62761500Y-42006250D01*
X62742580Y-41862541D01*
X62687113Y-41728629D01*
X62687110Y-41728624D01*
X62598871Y-41613629D01*
X62598870Y-41613628D01*
X62483875Y-41525389D01*
X62483870Y-41525386D01*
X62349958Y-41469919D01*
X62206250Y-41451000D01*
X62062541Y-41469919D01*
X61928629Y-41525386D01*
X61928624Y-41525389D01*
X61813629Y-41613628D01*
X61813628Y-41613629D01*
X61725389Y-41728624D01*
X61725386Y-41728629D01*
X61669919Y-41862541D01*
X61651000Y-42006250D01*
X60000000Y-42006250D01*
X60000000Y-40750000D01*
X64944750Y-40750000D01*
X64963669Y-40893708D01*
X65019136Y-41027620D01*
X65019139Y-41027625D01*
X65107379Y-41142621D01*
X65222375Y-41230861D01*
X65222377Y-41230861D01*
X65222379Y-41230863D01*
X65356291Y-41286330D01*
X65500000Y-41305250D01*
X65643709Y-41286330D01*
X65777625Y-41230861D01*
X65817844Y-41200000D01*
X70194750Y-41200000D01*
X70213669Y-41343708D01*
X70269136Y-41477620D01*
X70269139Y-41477625D01*
X70357379Y-41592621D01*
X70472375Y-41680861D01*
X70472377Y-41680861D01*
X70472379Y-41680863D01*
X70587687Y-41728624D01*
X70606291Y-41736330D01*
X70750000Y-41755250D01*
X70893709Y-41736330D01*
X71027625Y-41680861D01*
X71142621Y-41592621D01*
X71230861Y-41477625D01*
X71286330Y-41343709D01*
X71305250Y-41200000D01*
X71286330Y-41056291D01*
X71230861Y-40922375D01*
X71142621Y-40807379D01*
X71027625Y-40719139D01*
X71027620Y-40719136D01*
X70893708Y-40663669D01*
X70750000Y-40644750D01*
X70606291Y-40663669D01*
X70472379Y-40719136D01*
X70472374Y-40719139D01*
X70357379Y-40807378D01*
X70357378Y-40807379D01*
X70269139Y-40922374D01*
X70269136Y-40922379D01*
X70213669Y-41056291D01*
X70194750Y-41200000D01*
X65817844Y-41200000D01*
X65892621Y-41142621D01*
X65980861Y-41027625D01*
X66036330Y-40893709D01*
X66055250Y-40750000D01*
X66036330Y-40606291D01*
X65980861Y-40472375D01*
X65892621Y-40357379D01*
X65777625Y-40269139D01*
X65777620Y-40269136D01*
X65643708Y-40213669D01*
X65500000Y-40194750D01*
X65356291Y-40213669D01*
X65222379Y-40269136D01*
X65222374Y-40269139D01*
X65107379Y-40357378D01*
X65107378Y-40357379D01*
X65019139Y-40472374D01*
X65019136Y-40472379D01*
X64963669Y-40606291D01*
X64944750Y-40750000D01*
X60000000Y-40750000D01*
X60000000Y-36800000D01*
X62244750Y-36800000D01*
X62263669Y-36943708D01*
X62319136Y-37077620D01*
X62319139Y-37077625D01*
X62370512Y-37144576D01*
X62407379Y-37192621D01*
X62522375Y-37280861D01*
X62522377Y-37280861D01*
X62522379Y-37280863D01*
X62656291Y-37336330D01*
X62800000Y-37355250D01*
X62943709Y-37336330D01*
X63077625Y-37280861D01*
X63192621Y-37192621D01*
X63280861Y-37077625D01*
X63336330Y-36943709D01*
X63355250Y-36800000D01*
X63336330Y-36656291D01*
X63280861Y-36522375D01*
X63192621Y-36407379D01*
X63183005Y-36400000D01*
X75894785Y-36400000D01*
X75913602Y-36603079D01*
X75913603Y-36603085D01*
X75969417Y-36799248D01*
X75969420Y-36799255D01*
X76060325Y-36981818D01*
X76060328Y-36981822D01*
X76183233Y-37144576D01*
X76183236Y-37144579D01*
X76333954Y-37281977D01*
X76333955Y-37281978D01*
X76333959Y-37281981D01*
X76507363Y-37389348D01*
X76697544Y-37463024D01*
X76898024Y-37500500D01*
X76898026Y-37500500D01*
X77101974Y-37500500D01*
X77101976Y-37500500D01*
X77302456Y-37463024D01*
X77492637Y-37389348D01*
X77666041Y-37281981D01*
X77816764Y-37144579D01*
X77939673Y-36981821D01*
X78030582Y-36799250D01*
X78086397Y-36603083D01*
X78105215Y-36400000D01*
X78086397Y-36196917D01*
X78030582Y-36000750D01*
X77939673Y-35818179D01*
X77816764Y-35655421D01*
X77816763Y-35655420D01*
X77666045Y-35518022D01*
X77666042Y-35518020D01*
X77666041Y-35518019D01*
X77492637Y-35410652D01*
X77492634Y-35410651D01*
X77492633Y-35410650D01*
X77302462Y-35336978D01*
X77302460Y-35336977D01*
X77302456Y-35336976D01*
X77101976Y-35299500D01*
X76898024Y-35299500D01*
X76697544Y-35336976D01*
X76697540Y-35336977D01*
X76697537Y-35336978D01*
X76507366Y-35410650D01*
X76333954Y-35518022D01*
X76183236Y-35655420D01*
X76183233Y-35655423D01*
X76060328Y-35818177D01*
X76060325Y-35818181D01*
X75969420Y-36000744D01*
X75969417Y-36000751D01*
X75913603Y-36196914D01*
X75913602Y-36196920D01*
X75894785Y-36400000D01*
X63183005Y-36400000D01*
X63077625Y-36319139D01*
X63077620Y-36319136D01*
X62943708Y-36263669D01*
X62800000Y-36244750D01*
X62656291Y-36263669D01*
X62522379Y-36319136D01*
X62522374Y-36319139D01*
X62407379Y-36407378D01*
X62407378Y-36407379D01*
X62319139Y-36522374D01*
X62319136Y-36522379D01*
X62263669Y-36656291D01*
X62244750Y-36800000D01*
X60000000Y-36800000D01*
X60000000Y-33860001D01*
X75894785Y-33860001D01*
X75913602Y-34063080D01*
X75913603Y-34063086D01*
X75969417Y-34259249D01*
X75969420Y-34259256D01*
X76060325Y-34441819D01*
X76060328Y-34441823D01*
X76183233Y-34604577D01*
X76183236Y-34604580D01*
X76333954Y-34741978D01*
X76333955Y-34741979D01*
X76333959Y-34741982D01*
X76507363Y-34849349D01*
X76697544Y-34923025D01*
X76898024Y-34960501D01*
X76898026Y-34960501D01*
X77101974Y-34960501D01*
X77101976Y-34960501D01*
X77302456Y-34923025D01*
X77492637Y-34849349D01*
X77666041Y-34741982D01*
X77816764Y-34604580D01*
X77939673Y-34441822D01*
X78030582Y-34259251D01*
X78086397Y-34063084D01*
X78105215Y-33860001D01*
X78086397Y-33656918D01*
X78030582Y-33460751D01*
X77939673Y-33278180D01*
X77816764Y-33115422D01*
X77816763Y-33115421D01*
X77666045Y-32978023D01*
X77666042Y-32978021D01*
X77666041Y-32978020D01*
X77492637Y-32870653D01*
X77492634Y-32870652D01*
X77492633Y-32870651D01*
X77302462Y-32796979D01*
X77302460Y-32796978D01*
X77302456Y-32796977D01*
X77101976Y-32759501D01*
X76898024Y-32759501D01*
X76697544Y-32796977D01*
X76697540Y-32796978D01*
X76697537Y-32796979D01*
X76507366Y-32870651D01*
X76333954Y-32978023D01*
X76183236Y-33115421D01*
X76183233Y-33115424D01*
X76060328Y-33278178D01*
X76060325Y-33278182D01*
X75969420Y-33460745D01*
X75969417Y-33460752D01*
X75913603Y-33656915D01*
X75913602Y-33656921D01*
X75894785Y-33860001D01*
X60000000Y-33860001D01*
X60000000Y-30445323D01*
X75899500Y-30445323D01*
X75899500Y-32194678D01*
X75914033Y-32267740D01*
X75969398Y-32350602D01*
X76052260Y-32405967D01*
X76125326Y-32420501D01*
X77874674Y-32420501D01*
X77947740Y-32405967D01*
X78030601Y-32350602D01*
X78085966Y-32267741D01*
X78100500Y-32194675D01*
X78100500Y-30445327D01*
X78085966Y-30372261D01*
X78030601Y-30289399D01*
X77947739Y-30234034D01*
X77874677Y-30219501D01*
X77874674Y-30219501D01*
X76125326Y-30219501D01*
X76125322Y-30219501D01*
X76052260Y-30234034D01*
X75969398Y-30289399D01*
X75914033Y-30372261D01*
X75899500Y-30445323D01*
X60000000Y-30445323D01*
X60000000Y-27000000D01*
X73844475Y-27000000D01*
X73864551Y-27293512D01*
X73924405Y-27581546D01*
X73924408Y-27581554D01*
X74022928Y-27858764D01*
X74022932Y-27858771D01*
X74158276Y-28119972D01*
X74158280Y-28119980D01*
X74243106Y-28240151D01*
X74327935Y-28360326D01*
X74528740Y-28575335D01*
X74756951Y-28760999D01*
X75008318Y-28913859D01*
X75278159Y-29031067D01*
X75561445Y-29110440D01*
X75812841Y-29144993D01*
X75852901Y-29150500D01*
X75852902Y-29150500D01*
X76147099Y-29150500D01*
X76182318Y-29145659D01*
X76438555Y-29110440D01*
X76721841Y-29031067D01*
X76991682Y-28913859D01*
X77243049Y-28760999D01*
X77471260Y-28575335D01*
X77672065Y-28360326D01*
X77841722Y-28119976D01*
X77977072Y-27858764D01*
X78075592Y-27581554D01*
X78135448Y-27293511D01*
X78155525Y-27000000D01*
X78135448Y-26706489D01*
X78134447Y-26701671D01*
X78075594Y-26418453D01*
X78070723Y-26404746D01*
X77977072Y-26141236D01*
X77841722Y-25880024D01*
X77841720Y-25880021D01*
X77841719Y-25880019D01*
X77787189Y-25802768D01*
X77672065Y-25639674D01*
X77471260Y-25424665D01*
X77243049Y-25239001D01*
X76991682Y-25086141D01*
X76991678Y-25086139D01*
X76991676Y-25086138D01*
X76721842Y-24968933D01*
X76438560Y-24889561D01*
X76438555Y-24889560D01*
X76147099Y-24849500D01*
X76147098Y-24849500D01*
X75852902Y-24849500D01*
X75852901Y-24849500D01*
X75561444Y-24889560D01*
X75561439Y-24889561D01*
X75278157Y-24968933D01*
X75008323Y-25086138D01*
X74756949Y-25239002D01*
X74528748Y-25424658D01*
X74528737Y-25424668D01*
X74327939Y-25639669D01*
X74327933Y-25639677D01*
X74158280Y-25880019D01*
X74158276Y-25880027D01*
X74022932Y-26141228D01*
X74022928Y-26141237D01*
X73924405Y-26418453D01*
X73864551Y-26706487D01*
X73844475Y-27000000D01*
X60000000Y-27000000D01*
X60000000Y-24549500D01*
X60014352Y-24514852D01*
X60049000Y-24500500D01*
X75934108Y-24500500D01*
X75998512Y-24500500D01*
X76001470Y-24500589D01*
G37*
%TD.AperFunction*%
%TD*%
M02*
