M48
; DRILL file {KiCad 8.0.9-8.0.9-0~ubuntu22.04.1} date 2025-11-15T02:20:28+0100
; FORMAT={-:-/ absolute / inch / decimal}
; #@! TF.CreationDate,2025-11-15T02:20:28+01:00
; #@! TF.GenerationSoftware,Kicad,Pcbnew,8.0.9-8.0.9-0~ubuntu22.04.1
; #@! TF.FileFunction,Plated,1,4,PTH
FMAT,2
INCH
; #@! TA.AperFunction,Plated,PTH,ViaDrill
T1C0.0118
; #@! TA.AperFunction,Plated,PTH,ViaDrill
T2C0.0138
; #@! TA.AperFunction,Plated,PTH,ComponentDrill
T3C0.0236
; #@! TA.AperFunction,Plated,PTH,ComponentDrill
T4C0.0394
; #@! TA.AperFunction,Plated,PTH,ComponentDrill
T5C0.0866
%
G90
G05
T1
X1.5881Y-2.031
X1.751Y-1.3344
X2.0374Y-1.2598
X2.0817Y-1.8685
X2.1211Y-1.6742
X2.3083Y-1.9289
X2.312Y-1.6329
X2.3318Y-1.7307
X2.3425Y-1.9252
X2.3789Y-1.9315
X2.4491Y-1.6538
X2.4921Y-1.7165
X2.6406Y-1.952
X2.6988Y-1.6161
X2.7047Y-2.0344
X2.7854Y-1.622
X2.8352Y-1.6744
X2.8524Y-1.5659
T2
X1.3976Y-1.1122
X1.4469Y-1.1122
X1.5453Y-1.1713
X1.5453Y-1.25
X1.5453Y-1.2894
X1.5455Y-1.2103
X1.6339Y-1.4961
X1.6437Y-1.1122
X1.6496Y-1.8307
X1.6831Y-1.624
X1.8392Y-1.5009
X1.8602Y-1.3681
X1.9587Y-1.6437
X1.9783Y-1.939
X2.0965Y-2.0866
X2.1496Y-1.1969
X2.2244Y-1.3937
X2.248Y-1.4606
X2.2638Y-1.5236
X2.4016Y-1.8701
X2.4409Y-2.2047
X2.4724Y-1.4488
X2.5Y-2.0
X2.5787Y-1.6043
X2.5984Y-1.1811
X2.6378Y-1.1811
X2.6476Y-1.6732
X2.6772Y-1.1811
X2.7165Y-2.126
X2.8445Y-2.0177
X2.8839Y-2.1063
X2.9724Y-1.7913
T4
X1.2559Y-2.2803
X1.2559Y-2.3803
X1.2559Y-2.4803
X1.2559Y-2.5803
X1.511Y-2.7835
X1.611Y-2.7835
X1.711Y-2.7835
X1.811Y-2.7835
X1.9835Y-2.7835
X2.0835Y-2.7835
X2.1835Y-2.7835
X2.2835Y-2.7835
X2.4559Y-2.7835
X2.5559Y-2.7835
X2.6559Y-2.7835
X2.7559Y-2.7835
X3.0315Y-1.2331
X3.0315Y-1.3331
X3.0315Y-1.4331
X3.0315Y-2.3591
X3.0315Y-2.4591
X3.0315Y-2.5591
T5
X1.2992Y-1.063
X1.2992Y-2.7559
X2.9921Y-1.063
X2.9921Y-2.7559
T3
G00X1.3031Y-1.6354
M15
G01X1.2717Y-1.6354
M16
G05
G00X1.3031Y-1.9756
M15
G01X1.2717Y-1.9756
M16
G05
G00X1.4736Y-1.6354
M15
G01X1.4303Y-1.6354
M16
G05
G00X1.4736Y-1.9756
M15
G01X1.4303Y-1.9756
M16
G05
M30
