%TF.GenerationSoftware,KiCad,Pcbnew,8.0.9-8.0.9-0~ubuntu22.04.1*%
%TF.CreationDate,2025-11-15T02:20:29+01:00*%
%TF.ProjectId,GLITCHING_FMAW,474c4954-4348-4494-9e47-5f464d41572e,rev?*%
%TF.SameCoordinates,Original*%
%TF.FileFunction,Drillmap*%
%TF.FilePolarity,Positive*%
%FSLAX45Y45*%
G04 Gerber Fmt 4.5, Leading zero omitted, Abs format (unit mm)*
G04 Created by KiCad (PCBNEW 8.0.9-8.0.9-0~ubuntu22.04.1) date 2025-11-15 02:20:29*
%MOMM*%
%LPD*%
G01*
G04 APERTURE LIST*
%ADD10C,0.050000*%
%ADD11C,0.200000*%
%ADD12C,0.100000*%
G04 APERTURE END LIST*
D10*
X7900000Y-7000000D02*
G75*
G02*
X7600000Y-7300000I-300000J0D01*
G01*
X7600000Y-2400000D02*
G75*
G02*
X7900000Y-2700000I0J-300000D01*
G01*
X3000000Y-7000000D02*
X3000000Y-2700000D01*
X3000000Y-2700000D02*
G75*
G02*
X3300000Y-2400000I300000J0D01*
G01*
X3300000Y-7300000D02*
G75*
G02*
X3000000Y-7000000I0J300000D01*
G01*
X7600000Y-7300000D02*
X3300000Y-7300000D01*
X3300000Y-2400000D02*
X7600000Y-2400000D01*
X7900000Y-2700000D02*
X7900000Y-7000000D01*
D11*
D12*
X3605500Y-4264500D02*
X3670500Y-4329500D01*
X3670500Y-4264500D02*
X3605500Y-4329500D01*
X3605500Y-4842500D02*
X3670500Y-4907500D01*
X3670500Y-4842500D02*
X3605500Y-4907500D01*
D11*
X3258277Y-7613984D02*
X3258277Y-7413984D01*
X3258277Y-7413984D02*
X3305896Y-7413984D01*
X3305896Y-7413984D02*
X3334467Y-7423508D01*
X3334467Y-7423508D02*
X3353515Y-7442555D01*
X3353515Y-7442555D02*
X3363039Y-7461603D01*
X3363039Y-7461603D02*
X3372562Y-7499698D01*
X3372562Y-7499698D02*
X3372562Y-7528269D01*
X3372562Y-7528269D02*
X3363039Y-7566365D01*
X3363039Y-7566365D02*
X3353515Y-7585412D01*
X3353515Y-7585412D02*
X3334467Y-7604460D01*
X3334467Y-7604460D02*
X3305896Y-7613984D01*
X3305896Y-7613984D02*
X3258277Y-7613984D01*
X3458277Y-7613984D02*
X3458277Y-7480650D01*
X3458277Y-7518746D02*
X3467801Y-7499698D01*
X3467801Y-7499698D02*
X3477324Y-7490174D01*
X3477324Y-7490174D02*
X3496372Y-7480650D01*
X3496372Y-7480650D02*
X3515420Y-7480650D01*
X3582086Y-7613984D02*
X3582086Y-7480650D01*
X3582086Y-7413984D02*
X3572562Y-7423508D01*
X3572562Y-7423508D02*
X3582086Y-7433031D01*
X3582086Y-7433031D02*
X3591610Y-7423508D01*
X3591610Y-7423508D02*
X3582086Y-7413984D01*
X3582086Y-7413984D02*
X3582086Y-7433031D01*
X3705896Y-7613984D02*
X3686848Y-7604460D01*
X3686848Y-7604460D02*
X3677324Y-7585412D01*
X3677324Y-7585412D02*
X3677324Y-7413984D01*
X3810658Y-7613984D02*
X3791610Y-7604460D01*
X3791610Y-7604460D02*
X3782086Y-7585412D01*
X3782086Y-7585412D02*
X3782086Y-7413984D01*
X4039229Y-7613984D02*
X4039229Y-7413984D01*
X4039229Y-7413984D02*
X4105896Y-7556841D01*
X4105896Y-7556841D02*
X4172562Y-7413984D01*
X4172562Y-7413984D02*
X4172562Y-7613984D01*
X4353515Y-7613984D02*
X4353515Y-7509222D01*
X4353515Y-7509222D02*
X4343991Y-7490174D01*
X4343991Y-7490174D02*
X4324944Y-7480650D01*
X4324944Y-7480650D02*
X4286848Y-7480650D01*
X4286848Y-7480650D02*
X4267801Y-7490174D01*
X4353515Y-7604460D02*
X4334467Y-7613984D01*
X4334467Y-7613984D02*
X4286848Y-7613984D01*
X4286848Y-7613984D02*
X4267801Y-7604460D01*
X4267801Y-7604460D02*
X4258277Y-7585412D01*
X4258277Y-7585412D02*
X4258277Y-7566365D01*
X4258277Y-7566365D02*
X4267801Y-7547317D01*
X4267801Y-7547317D02*
X4286848Y-7537793D01*
X4286848Y-7537793D02*
X4334467Y-7537793D01*
X4334467Y-7537793D02*
X4353515Y-7528269D01*
X4448753Y-7480650D02*
X4448753Y-7680650D01*
X4448753Y-7490174D02*
X4467801Y-7480650D01*
X4467801Y-7480650D02*
X4505896Y-7480650D01*
X4505896Y-7480650D02*
X4524944Y-7490174D01*
X4524944Y-7490174D02*
X4534467Y-7499698D01*
X4534467Y-7499698D02*
X4543991Y-7518746D01*
X4543991Y-7518746D02*
X4543991Y-7575888D01*
X4543991Y-7575888D02*
X4534467Y-7594936D01*
X4534467Y-7594936D02*
X4524944Y-7604460D01*
X4524944Y-7604460D02*
X4505896Y-7613984D01*
X4505896Y-7613984D02*
X4467801Y-7613984D01*
X4467801Y-7613984D02*
X4448753Y-7604460D01*
X4629705Y-7594936D02*
X4639229Y-7604460D01*
X4639229Y-7604460D02*
X4629705Y-7613984D01*
X4629705Y-7613984D02*
X4620182Y-7604460D01*
X4620182Y-7604460D02*
X4629705Y-7594936D01*
X4629705Y-7594936D02*
X4629705Y-7613984D01*
X4629705Y-7490174D02*
X4639229Y-7499698D01*
X4639229Y-7499698D02*
X4629705Y-7509222D01*
X4629705Y-7509222D02*
X4620182Y-7499698D01*
X4620182Y-7499698D02*
X4629705Y-7490174D01*
X4629705Y-7490174D02*
X4629705Y-7509222D01*
D12*
X2932500Y-7910000D02*
X2997500Y-7975000D01*
X2997500Y-7910000D02*
X2932500Y-7975000D01*
D11*
X3296372Y-7833984D02*
X3315420Y-7833984D01*
X3315420Y-7833984D02*
X3334467Y-7843508D01*
X3334467Y-7843508D02*
X3343991Y-7853031D01*
X3343991Y-7853031D02*
X3353515Y-7872079D01*
X3353515Y-7872079D02*
X3363039Y-7910174D01*
X3363039Y-7910174D02*
X3363039Y-7957793D01*
X3363039Y-7957793D02*
X3353515Y-7995888D01*
X3353515Y-7995888D02*
X3343991Y-8014936D01*
X3343991Y-8014936D02*
X3334467Y-8024460D01*
X3334467Y-8024460D02*
X3315420Y-8033984D01*
X3315420Y-8033984D02*
X3296372Y-8033984D01*
X3296372Y-8033984D02*
X3277324Y-8024460D01*
X3277324Y-8024460D02*
X3267801Y-8014936D01*
X3267801Y-8014936D02*
X3258277Y-7995888D01*
X3258277Y-7995888D02*
X3248753Y-7957793D01*
X3248753Y-7957793D02*
X3248753Y-7910174D01*
X3248753Y-7910174D02*
X3258277Y-7872079D01*
X3258277Y-7872079D02*
X3267801Y-7853031D01*
X3267801Y-7853031D02*
X3277324Y-7843508D01*
X3277324Y-7843508D02*
X3296372Y-7833984D01*
X3448753Y-8014936D02*
X3458277Y-8024460D01*
X3458277Y-8024460D02*
X3448753Y-8033984D01*
X3448753Y-8033984D02*
X3439229Y-8024460D01*
X3439229Y-8024460D02*
X3448753Y-8014936D01*
X3448753Y-8014936D02*
X3448753Y-8033984D01*
X3629705Y-7833984D02*
X3591610Y-7833984D01*
X3591610Y-7833984D02*
X3572562Y-7843508D01*
X3572562Y-7843508D02*
X3563039Y-7853031D01*
X3563039Y-7853031D02*
X3543991Y-7881603D01*
X3543991Y-7881603D02*
X3534467Y-7919698D01*
X3534467Y-7919698D02*
X3534467Y-7995888D01*
X3534467Y-7995888D02*
X3543991Y-8014936D01*
X3543991Y-8014936D02*
X3553515Y-8024460D01*
X3553515Y-8024460D02*
X3572562Y-8033984D01*
X3572562Y-8033984D02*
X3610658Y-8033984D01*
X3610658Y-8033984D02*
X3629705Y-8024460D01*
X3629705Y-8024460D02*
X3639229Y-8014936D01*
X3639229Y-8014936D02*
X3648753Y-7995888D01*
X3648753Y-7995888D02*
X3648753Y-7948269D01*
X3648753Y-7948269D02*
X3639229Y-7929222D01*
X3639229Y-7929222D02*
X3629705Y-7919698D01*
X3629705Y-7919698D02*
X3610658Y-7910174D01*
X3610658Y-7910174D02*
X3572562Y-7910174D01*
X3572562Y-7910174D02*
X3553515Y-7919698D01*
X3553515Y-7919698D02*
X3543991Y-7929222D01*
X3543991Y-7929222D02*
X3534467Y-7948269D01*
X3829705Y-7833984D02*
X3734467Y-7833984D01*
X3734467Y-7833984D02*
X3724943Y-7929222D01*
X3724943Y-7929222D02*
X3734467Y-7919698D01*
X3734467Y-7919698D02*
X3753515Y-7910174D01*
X3753515Y-7910174D02*
X3801134Y-7910174D01*
X3801134Y-7910174D02*
X3820182Y-7919698D01*
X3820182Y-7919698D02*
X3829705Y-7929222D01*
X3829705Y-7929222D02*
X3839229Y-7948269D01*
X3839229Y-7948269D02*
X3839229Y-7995888D01*
X3839229Y-7995888D02*
X3829705Y-8014936D01*
X3829705Y-8014936D02*
X3820182Y-8024460D01*
X3820182Y-8024460D02*
X3801134Y-8033984D01*
X3801134Y-8033984D02*
X3753515Y-8033984D01*
X3753515Y-8033984D02*
X3734467Y-8024460D01*
X3734467Y-8024460D02*
X3724943Y-8014936D01*
X3963039Y-7833984D02*
X3982086Y-7833984D01*
X3982086Y-7833984D02*
X4001134Y-7843508D01*
X4001134Y-7843508D02*
X4010658Y-7853031D01*
X4010658Y-7853031D02*
X4020182Y-7872079D01*
X4020182Y-7872079D02*
X4029705Y-7910174D01*
X4029705Y-7910174D02*
X4029705Y-7957793D01*
X4029705Y-7957793D02*
X4020182Y-7995888D01*
X4020182Y-7995888D02*
X4010658Y-8014936D01*
X4010658Y-8014936D02*
X4001134Y-8024460D01*
X4001134Y-8024460D02*
X3982086Y-8033984D01*
X3982086Y-8033984D02*
X3963039Y-8033984D01*
X3963039Y-8033984D02*
X3943991Y-8024460D01*
X3943991Y-8024460D02*
X3934467Y-8014936D01*
X3934467Y-8014936D02*
X3924943Y-7995888D01*
X3924943Y-7995888D02*
X3915420Y-7957793D01*
X3915420Y-7957793D02*
X3915420Y-7910174D01*
X3915420Y-7910174D02*
X3924943Y-7872079D01*
X3924943Y-7872079D02*
X3934467Y-7853031D01*
X3934467Y-7853031D02*
X3943991Y-7843508D01*
X3943991Y-7843508D02*
X3963039Y-7833984D01*
X4115420Y-8033984D02*
X4115420Y-7900650D01*
X4115420Y-7919698D02*
X4124943Y-7910174D01*
X4124943Y-7910174D02*
X4143991Y-7900650D01*
X4143991Y-7900650D02*
X4172563Y-7900650D01*
X4172563Y-7900650D02*
X4191610Y-7910174D01*
X4191610Y-7910174D02*
X4201134Y-7929222D01*
X4201134Y-7929222D02*
X4201134Y-8033984D01*
X4201134Y-7929222D02*
X4210658Y-7910174D01*
X4210658Y-7910174D02*
X4229705Y-7900650D01*
X4229705Y-7900650D02*
X4258277Y-7900650D01*
X4258277Y-7900650D02*
X4277325Y-7910174D01*
X4277325Y-7910174D02*
X4286848Y-7929222D01*
X4286848Y-7929222D02*
X4286848Y-8033984D01*
X4382086Y-8033984D02*
X4382086Y-7900650D01*
X4382086Y-7919698D02*
X4391610Y-7910174D01*
X4391610Y-7910174D02*
X4410658Y-7900650D01*
X4410658Y-7900650D02*
X4439229Y-7900650D01*
X4439229Y-7900650D02*
X4458277Y-7910174D01*
X4458277Y-7910174D02*
X4467801Y-7929222D01*
X4467801Y-7929222D02*
X4467801Y-8033984D01*
X4467801Y-7929222D02*
X4477325Y-7910174D01*
X4477325Y-7910174D02*
X4496372Y-7900650D01*
X4496372Y-7900650D02*
X4524944Y-7900650D01*
X4524944Y-7900650D02*
X4543991Y-7910174D01*
X4543991Y-7910174D02*
X4553515Y-7929222D01*
X4553515Y-7929222D02*
X4553515Y-8033984D01*
X4943991Y-7824460D02*
X4772563Y-8081603D01*
X5201134Y-7833984D02*
X5220182Y-7833984D01*
X5220182Y-7833984D02*
X5239229Y-7843508D01*
X5239229Y-7843508D02*
X5248753Y-7853031D01*
X5248753Y-7853031D02*
X5258277Y-7872079D01*
X5258277Y-7872079D02*
X5267801Y-7910174D01*
X5267801Y-7910174D02*
X5267801Y-7957793D01*
X5267801Y-7957793D02*
X5258277Y-7995888D01*
X5258277Y-7995888D02*
X5248753Y-8014936D01*
X5248753Y-8014936D02*
X5239229Y-8024460D01*
X5239229Y-8024460D02*
X5220182Y-8033984D01*
X5220182Y-8033984D02*
X5201134Y-8033984D01*
X5201134Y-8033984D02*
X5182087Y-8024460D01*
X5182087Y-8024460D02*
X5172563Y-8014936D01*
X5172563Y-8014936D02*
X5163039Y-7995888D01*
X5163039Y-7995888D02*
X5153515Y-7957793D01*
X5153515Y-7957793D02*
X5153515Y-7910174D01*
X5153515Y-7910174D02*
X5163039Y-7872079D01*
X5163039Y-7872079D02*
X5172563Y-7853031D01*
X5172563Y-7853031D02*
X5182087Y-7843508D01*
X5182087Y-7843508D02*
X5201134Y-7833984D01*
X5353515Y-8014936D02*
X5363039Y-8024460D01*
X5363039Y-8024460D02*
X5353515Y-8033984D01*
X5353515Y-8033984D02*
X5343991Y-8024460D01*
X5343991Y-8024460D02*
X5353515Y-8014936D01*
X5353515Y-8014936D02*
X5353515Y-8033984D01*
X5486848Y-7833984D02*
X5505896Y-7833984D01*
X5505896Y-7833984D02*
X5524944Y-7843508D01*
X5524944Y-7843508D02*
X5534468Y-7853031D01*
X5534468Y-7853031D02*
X5543991Y-7872079D01*
X5543991Y-7872079D02*
X5553515Y-7910174D01*
X5553515Y-7910174D02*
X5553515Y-7957793D01*
X5553515Y-7957793D02*
X5543991Y-7995888D01*
X5543991Y-7995888D02*
X5534468Y-8014936D01*
X5534468Y-8014936D02*
X5524944Y-8024460D01*
X5524944Y-8024460D02*
X5505896Y-8033984D01*
X5505896Y-8033984D02*
X5486848Y-8033984D01*
X5486848Y-8033984D02*
X5467801Y-8024460D01*
X5467801Y-8024460D02*
X5458277Y-8014936D01*
X5458277Y-8014936D02*
X5448753Y-7995888D01*
X5448753Y-7995888D02*
X5439229Y-7957793D01*
X5439229Y-7957793D02*
X5439229Y-7910174D01*
X5439229Y-7910174D02*
X5448753Y-7872079D01*
X5448753Y-7872079D02*
X5458277Y-7853031D01*
X5458277Y-7853031D02*
X5467801Y-7843508D01*
X5467801Y-7843508D02*
X5486848Y-7833984D01*
X5629706Y-7853031D02*
X5639229Y-7843508D01*
X5639229Y-7843508D02*
X5658277Y-7833984D01*
X5658277Y-7833984D02*
X5705896Y-7833984D01*
X5705896Y-7833984D02*
X5724944Y-7843508D01*
X5724944Y-7843508D02*
X5734467Y-7853031D01*
X5734467Y-7853031D02*
X5743991Y-7872079D01*
X5743991Y-7872079D02*
X5743991Y-7891127D01*
X5743991Y-7891127D02*
X5734467Y-7919698D01*
X5734467Y-7919698D02*
X5620182Y-8033984D01*
X5620182Y-8033984D02*
X5743991Y-8033984D01*
X5924944Y-7833984D02*
X5829706Y-7833984D01*
X5829706Y-7833984D02*
X5820182Y-7929222D01*
X5820182Y-7929222D02*
X5829706Y-7919698D01*
X5829706Y-7919698D02*
X5848753Y-7910174D01*
X5848753Y-7910174D02*
X5896372Y-7910174D01*
X5896372Y-7910174D02*
X5915420Y-7919698D01*
X5915420Y-7919698D02*
X5924944Y-7929222D01*
X5924944Y-7929222D02*
X5934467Y-7948269D01*
X5934467Y-7948269D02*
X5934467Y-7995888D01*
X5934467Y-7995888D02*
X5924944Y-8014936D01*
X5924944Y-8014936D02*
X5915420Y-8024460D01*
X5915420Y-8024460D02*
X5896372Y-8033984D01*
X5896372Y-8033984D02*
X5848753Y-8033984D01*
X5848753Y-8033984D02*
X5829706Y-8024460D01*
X5829706Y-8024460D02*
X5820182Y-8014936D01*
X6105896Y-7833984D02*
X6067801Y-7833984D01*
X6067801Y-7833984D02*
X6048753Y-7843508D01*
X6048753Y-7843508D02*
X6039229Y-7853031D01*
X6039229Y-7853031D02*
X6020182Y-7881603D01*
X6020182Y-7881603D02*
X6010658Y-7919698D01*
X6010658Y-7919698D02*
X6010658Y-7995888D01*
X6010658Y-7995888D02*
X6020182Y-8014936D01*
X6020182Y-8014936D02*
X6029706Y-8024460D01*
X6029706Y-8024460D02*
X6048753Y-8033984D01*
X6048753Y-8033984D02*
X6086848Y-8033984D01*
X6086848Y-8033984D02*
X6105896Y-8024460D01*
X6105896Y-8024460D02*
X6115420Y-8014936D01*
X6115420Y-8014936D02*
X6124944Y-7995888D01*
X6124944Y-7995888D02*
X6124944Y-7948269D01*
X6124944Y-7948269D02*
X6115420Y-7929222D01*
X6115420Y-7929222D02*
X6105896Y-7919698D01*
X6105896Y-7919698D02*
X6086848Y-7910174D01*
X6086848Y-7910174D02*
X6048753Y-7910174D01*
X6048753Y-7910174D02*
X6029706Y-7919698D01*
X6029706Y-7919698D02*
X6020182Y-7929222D01*
X6020182Y-7929222D02*
X6010658Y-7948269D01*
X6201134Y-7833984D02*
X6201134Y-7872079D01*
X6277325Y-7833984D02*
X6277325Y-7872079D01*
X6572563Y-8110174D02*
X6563039Y-8100650D01*
X6563039Y-8100650D02*
X6543991Y-8072079D01*
X6543991Y-8072079D02*
X6534468Y-8053031D01*
X6534468Y-8053031D02*
X6524944Y-8024460D01*
X6524944Y-8024460D02*
X6515420Y-7976841D01*
X6515420Y-7976841D02*
X6515420Y-7938746D01*
X6515420Y-7938746D02*
X6524944Y-7891127D01*
X6524944Y-7891127D02*
X6534468Y-7862555D01*
X6534468Y-7862555D02*
X6543991Y-7843508D01*
X6543991Y-7843508D02*
X6563039Y-7814936D01*
X6563039Y-7814936D02*
X6572563Y-7805412D01*
X6639229Y-7853031D02*
X6648753Y-7843508D01*
X6648753Y-7843508D02*
X6667801Y-7833984D01*
X6667801Y-7833984D02*
X6715420Y-7833984D01*
X6715420Y-7833984D02*
X6734468Y-7843508D01*
X6734468Y-7843508D02*
X6743991Y-7853031D01*
X6743991Y-7853031D02*
X6753515Y-7872079D01*
X6753515Y-7872079D02*
X6753515Y-7891127D01*
X6753515Y-7891127D02*
X6743991Y-7919698D01*
X6743991Y-7919698D02*
X6629706Y-8033984D01*
X6629706Y-8033984D02*
X6753515Y-8033984D01*
X6991610Y-8033984D02*
X6991610Y-7833984D01*
X7077325Y-8033984D02*
X7077325Y-7929222D01*
X7077325Y-7929222D02*
X7067801Y-7910174D01*
X7067801Y-7910174D02*
X7048753Y-7900650D01*
X7048753Y-7900650D02*
X7020182Y-7900650D01*
X7020182Y-7900650D02*
X7001134Y-7910174D01*
X7001134Y-7910174D02*
X6991610Y-7919698D01*
X7201134Y-8033984D02*
X7182087Y-8024460D01*
X7182087Y-8024460D02*
X7172563Y-8014936D01*
X7172563Y-8014936D02*
X7163039Y-7995888D01*
X7163039Y-7995888D02*
X7163039Y-7938746D01*
X7163039Y-7938746D02*
X7172563Y-7919698D01*
X7172563Y-7919698D02*
X7182087Y-7910174D01*
X7182087Y-7910174D02*
X7201134Y-7900650D01*
X7201134Y-7900650D02*
X7229706Y-7900650D01*
X7229706Y-7900650D02*
X7248753Y-7910174D01*
X7248753Y-7910174D02*
X7258277Y-7919698D01*
X7258277Y-7919698D02*
X7267801Y-7938746D01*
X7267801Y-7938746D02*
X7267801Y-7995888D01*
X7267801Y-7995888D02*
X7258277Y-8014936D01*
X7258277Y-8014936D02*
X7248753Y-8024460D01*
X7248753Y-8024460D02*
X7229706Y-8033984D01*
X7229706Y-8033984D02*
X7201134Y-8033984D01*
X7382087Y-8033984D02*
X7363039Y-8024460D01*
X7363039Y-8024460D02*
X7353515Y-8005412D01*
X7353515Y-8005412D02*
X7353515Y-7833984D01*
X7534468Y-8024460D02*
X7515420Y-8033984D01*
X7515420Y-8033984D02*
X7477325Y-8033984D01*
X7477325Y-8033984D02*
X7458277Y-8024460D01*
X7458277Y-8024460D02*
X7448753Y-8005412D01*
X7448753Y-8005412D02*
X7448753Y-7929222D01*
X7448753Y-7929222D02*
X7458277Y-7910174D01*
X7458277Y-7910174D02*
X7477325Y-7900650D01*
X7477325Y-7900650D02*
X7515420Y-7900650D01*
X7515420Y-7900650D02*
X7534468Y-7910174D01*
X7534468Y-7910174D02*
X7543991Y-7929222D01*
X7543991Y-7929222D02*
X7543991Y-7948269D01*
X7543991Y-7948269D02*
X7448753Y-7967317D01*
X7620182Y-8024460D02*
X7639230Y-8033984D01*
X7639230Y-8033984D02*
X7677325Y-8033984D01*
X7677325Y-8033984D02*
X7696372Y-8024460D01*
X7696372Y-8024460D02*
X7705896Y-8005412D01*
X7705896Y-8005412D02*
X7705896Y-7995888D01*
X7705896Y-7995888D02*
X7696372Y-7976841D01*
X7696372Y-7976841D02*
X7677325Y-7967317D01*
X7677325Y-7967317D02*
X7648753Y-7967317D01*
X7648753Y-7967317D02*
X7629706Y-7957793D01*
X7629706Y-7957793D02*
X7620182Y-7938746D01*
X7620182Y-7938746D02*
X7620182Y-7929222D01*
X7620182Y-7929222D02*
X7629706Y-7910174D01*
X7629706Y-7910174D02*
X7648753Y-7900650D01*
X7648753Y-7900650D02*
X7677325Y-7900650D01*
X7677325Y-7900650D02*
X7696372Y-7910174D01*
X7772563Y-8110174D02*
X7782087Y-8100650D01*
X7782087Y-8100650D02*
X7801134Y-8072079D01*
X7801134Y-8072079D02*
X7810658Y-8053031D01*
X7810658Y-8053031D02*
X7820182Y-8024460D01*
X7820182Y-8024460D02*
X7829706Y-7976841D01*
X7829706Y-7976841D02*
X7829706Y-7938746D01*
X7829706Y-7938746D02*
X7820182Y-7891127D01*
X7820182Y-7891127D02*
X7810658Y-7862555D01*
X7810658Y-7862555D02*
X7801134Y-7843508D01*
X7801134Y-7843508D02*
X7782087Y-7814936D01*
X7782087Y-7814936D02*
X7772563Y-7805412D01*
X8134468Y-8110174D02*
X8124944Y-8100650D01*
X8124944Y-8100650D02*
X8105896Y-8072079D01*
X8105896Y-8072079D02*
X8096372Y-8053031D01*
X8096372Y-8053031D02*
X8086849Y-8024460D01*
X8086849Y-8024460D02*
X8077325Y-7976841D01*
X8077325Y-7976841D02*
X8077325Y-7938746D01*
X8077325Y-7938746D02*
X8086849Y-7891127D01*
X8086849Y-7891127D02*
X8096372Y-7862555D01*
X8096372Y-7862555D02*
X8105896Y-7843508D01*
X8105896Y-7843508D02*
X8124944Y-7814936D01*
X8124944Y-7814936D02*
X8134468Y-7805412D01*
X8210658Y-7900650D02*
X8210658Y-8033984D01*
X8210658Y-7919698D02*
X8220182Y-7910174D01*
X8220182Y-7910174D02*
X8239230Y-7900650D01*
X8239230Y-7900650D02*
X8267801Y-7900650D01*
X8267801Y-7900650D02*
X8286849Y-7910174D01*
X8286849Y-7910174D02*
X8296372Y-7929222D01*
X8296372Y-7929222D02*
X8296372Y-8033984D01*
X8420182Y-8033984D02*
X8401134Y-8024460D01*
X8401134Y-8024460D02*
X8391611Y-8014936D01*
X8391611Y-8014936D02*
X8382087Y-7995888D01*
X8382087Y-7995888D02*
X8382087Y-7938746D01*
X8382087Y-7938746D02*
X8391611Y-7919698D01*
X8391611Y-7919698D02*
X8401134Y-7910174D01*
X8401134Y-7910174D02*
X8420182Y-7900650D01*
X8420182Y-7900650D02*
X8448754Y-7900650D01*
X8448754Y-7900650D02*
X8467801Y-7910174D01*
X8467801Y-7910174D02*
X8477325Y-7919698D01*
X8477325Y-7919698D02*
X8486849Y-7938746D01*
X8486849Y-7938746D02*
X8486849Y-7995888D01*
X8486849Y-7995888D02*
X8477325Y-8014936D01*
X8477325Y-8014936D02*
X8467801Y-8024460D01*
X8467801Y-8024460D02*
X8448754Y-8033984D01*
X8448754Y-8033984D02*
X8420182Y-8033984D01*
X8543992Y-7900650D02*
X8620182Y-7900650D01*
X8572563Y-7833984D02*
X8572563Y-8005412D01*
X8572563Y-8005412D02*
X8582087Y-8024460D01*
X8582087Y-8024460D02*
X8601134Y-8033984D01*
X8601134Y-8033984D02*
X8620182Y-8033984D01*
X8839230Y-7900650D02*
X8839230Y-8100650D01*
X8839230Y-7910174D02*
X8858277Y-7900650D01*
X8858277Y-7900650D02*
X8896373Y-7900650D01*
X8896373Y-7900650D02*
X8915420Y-7910174D01*
X8915420Y-7910174D02*
X8924944Y-7919698D01*
X8924944Y-7919698D02*
X8934468Y-7938746D01*
X8934468Y-7938746D02*
X8934468Y-7995888D01*
X8934468Y-7995888D02*
X8924944Y-8014936D01*
X8924944Y-8014936D02*
X8915420Y-8024460D01*
X8915420Y-8024460D02*
X8896373Y-8033984D01*
X8896373Y-8033984D02*
X8858277Y-8033984D01*
X8858277Y-8033984D02*
X8839230Y-8024460D01*
X9048754Y-8033984D02*
X9029706Y-8024460D01*
X9029706Y-8024460D02*
X9020182Y-8005412D01*
X9020182Y-8005412D02*
X9020182Y-7833984D01*
X9210658Y-8033984D02*
X9210658Y-7929222D01*
X9210658Y-7929222D02*
X9201135Y-7910174D01*
X9201135Y-7910174D02*
X9182087Y-7900650D01*
X9182087Y-7900650D02*
X9143992Y-7900650D01*
X9143992Y-7900650D02*
X9124944Y-7910174D01*
X9210658Y-8024460D02*
X9191611Y-8033984D01*
X9191611Y-8033984D02*
X9143992Y-8033984D01*
X9143992Y-8033984D02*
X9124944Y-8024460D01*
X9124944Y-8024460D02*
X9115420Y-8005412D01*
X9115420Y-8005412D02*
X9115420Y-7986365D01*
X9115420Y-7986365D02*
X9124944Y-7967317D01*
X9124944Y-7967317D02*
X9143992Y-7957793D01*
X9143992Y-7957793D02*
X9191611Y-7957793D01*
X9191611Y-7957793D02*
X9210658Y-7948269D01*
X9277325Y-7900650D02*
X9353515Y-7900650D01*
X9305896Y-7833984D02*
X9305896Y-8005412D01*
X9305896Y-8005412D02*
X9315420Y-8024460D01*
X9315420Y-8024460D02*
X9334468Y-8033984D01*
X9334468Y-8033984D02*
X9353515Y-8033984D01*
X9496373Y-8024460D02*
X9477325Y-8033984D01*
X9477325Y-8033984D02*
X9439230Y-8033984D01*
X9439230Y-8033984D02*
X9420182Y-8024460D01*
X9420182Y-8024460D02*
X9410658Y-8005412D01*
X9410658Y-8005412D02*
X9410658Y-7929222D01*
X9410658Y-7929222D02*
X9420182Y-7910174D01*
X9420182Y-7910174D02*
X9439230Y-7900650D01*
X9439230Y-7900650D02*
X9477325Y-7900650D01*
X9477325Y-7900650D02*
X9496373Y-7910174D01*
X9496373Y-7910174D02*
X9505896Y-7929222D01*
X9505896Y-7929222D02*
X9505896Y-7948269D01*
X9505896Y-7948269D02*
X9410658Y-7967317D01*
X9677325Y-8033984D02*
X9677325Y-7833984D01*
X9677325Y-8024460D02*
X9658277Y-8033984D01*
X9658277Y-8033984D02*
X9620182Y-8033984D01*
X9620182Y-8033984D02*
X9601135Y-8024460D01*
X9601135Y-8024460D02*
X9591611Y-8014936D01*
X9591611Y-8014936D02*
X9582087Y-7995888D01*
X9582087Y-7995888D02*
X9582087Y-7938746D01*
X9582087Y-7938746D02*
X9591611Y-7919698D01*
X9591611Y-7919698D02*
X9601135Y-7910174D01*
X9601135Y-7910174D02*
X9620182Y-7900650D01*
X9620182Y-7900650D02*
X9658277Y-7900650D01*
X9658277Y-7900650D02*
X9677325Y-7910174D01*
X9753516Y-8110174D02*
X9763039Y-8100650D01*
X9763039Y-8100650D02*
X9782087Y-8072079D01*
X9782087Y-8072079D02*
X9791611Y-8053031D01*
X9791611Y-8053031D02*
X9801135Y-8024460D01*
X9801135Y-8024460D02*
X9810658Y-7976841D01*
X9810658Y-7976841D02*
X9810658Y-7938746D01*
X9810658Y-7938746D02*
X9801135Y-7891127D01*
X9801135Y-7891127D02*
X9791611Y-7862555D01*
X9791611Y-7862555D02*
X9782087Y-7843508D01*
X9782087Y-7843508D02*
X9763039Y-7814936D01*
X9763039Y-7814936D02*
X9753516Y-7805412D01*
M02*
