%TF.GenerationSoftware,KiCad,Pcbnew,8.0.9-8.0.9-0~ubuntu22.04.1*%
%TF.CreationDate,2025-11-15T02:19:11+01:00*%
%TF.ProjectId,GLITCHING_FMAW,474c4954-4348-4494-9e47-5f464d41572e,rev?*%
%TF.SameCoordinates,Original*%
%TF.FileFunction,Soldermask,Top*%
%TF.FilePolarity,Negative*%
%FSLAX46Y46*%
G04 Gerber Fmt 4.6, Leading zero omitted, Abs format (unit mm)*
G04 Created by KiCad (PCBNEW 8.0.9-8.0.9-0~ubuntu22.04.1) date 2025-11-15 02:19:11*
%MOMM*%
%LPD*%
G01*
G04 APERTURE LIST*
G04 Aperture macros list*
%AMRoundRect*
0 Rectangle with rounded corners*
0 $1 Rounding radius*
0 $2 $3 $4 $5 $6 $7 $8 $9 X,Y pos of 4 corners*
0 Add a 4 corners polygon primitive as box body*
4,1,4,$2,$3,$4,$5,$6,$7,$8,$9,$2,$3,0*
0 Add four circle primitives for the rounded corners*
1,1,$1+$1,$2,$3*
1,1,$1+$1,$4,$5*
1,1,$1+$1,$6,$7*
1,1,$1+$1,$8,$9*
0 Add four rect primitives between the rounded corners*
20,1,$1+$1,$2,$3,$4,$5,0*
20,1,$1+$1,$4,$5,$6,$7,0*
20,1,$1+$1,$6,$7,$8,$9,0*
20,1,$1+$1,$8,$9,$2,$3,0*%
G04 Aperture macros list end*
%ADD10RoundRect,0.150000X-0.587500X-0.150000X0.587500X-0.150000X0.587500X0.150000X-0.587500X0.150000X0*%
%ADD11RoundRect,0.200000X-0.200000X-0.275000X0.200000X-0.275000X0.200000X0.275000X-0.200000X0.275000X0*%
%ADD12RoundRect,0.250000X0.650000X-0.325000X0.650000X0.325000X-0.650000X0.325000X-0.650000X-0.325000X0*%
%ADD13RoundRect,0.225000X0.250000X-0.225000X0.250000X0.225000X-0.250000X0.225000X-0.250000X-0.225000X0*%
%ADD14RoundRect,0.225000X-0.225000X-0.250000X0.225000X-0.250000X0.225000X0.250000X-0.225000X0.250000X0*%
%ADD15R,1.700000X1.700000*%
%ADD16O,1.700000X1.700000*%
%ADD17RoundRect,0.175000X-0.325000X0.175000X-0.325000X-0.175000X0.325000X-0.175000X0.325000X0.175000X0*%
%ADD18RoundRect,0.150000X-0.150000X0.200000X-0.150000X-0.200000X0.150000X-0.200000X0.150000X0.200000X0*%
%ADD19RoundRect,0.225000X-0.250000X0.225000X-0.250000X-0.225000X0.250000X-0.225000X0.250000X0.225000X0*%
%ADD20RoundRect,0.200000X0.275000X-0.200000X0.275000X0.200000X-0.275000X0.200000X-0.275000X-0.200000X0*%
%ADD21RoundRect,0.250000X-0.650000X0.325000X-0.650000X-0.325000X0.650000X-0.325000X0.650000X0.325000X0*%
%ADD22RoundRect,0.225000X0.225000X0.250000X-0.225000X0.250000X-0.225000X-0.250000X0.225000X-0.250000X0*%
%ADD23R,2.950000X3.500000*%
%ADD24R,0.320000X0.500000*%
%ADD25RoundRect,0.375000X0.375000X-0.625000X0.375000X0.625000X-0.375000X0.625000X-0.375000X-0.625000X0*%
%ADD26RoundRect,0.500000X1.400000X-0.500000X1.400000X0.500000X-1.400000X0.500000X-1.400000X-0.500000X0*%
%ADD27RoundRect,0.150000X0.150000X-0.650000X0.150000X0.650000X-0.150000X0.650000X-0.150000X-0.650000X0*%
%ADD28RoundRect,0.150000X0.150000X-0.725000X0.150000X0.725000X-0.150000X0.725000X-0.150000X-0.725000X0*%
%ADD29RoundRect,0.200000X0.200000X0.275000X-0.200000X0.275000X-0.200000X-0.275000X0.200000X-0.275000X0*%
%ADD30RoundRect,0.218750X0.218750X0.256250X-0.218750X0.256250X-0.218750X-0.256250X0.218750X-0.256250X0*%
%ADD31RoundRect,0.218750X0.256250X-0.218750X0.256250X0.218750X-0.256250X0.218750X-0.256250X-0.218750X0*%
%ADD32R,0.900000X0.800000*%
%ADD33C,3.800000*%
%ADD34R,0.450000X1.750000*%
%ADD35RoundRect,0.050000X-0.387500X-0.050000X0.387500X-0.050000X0.387500X0.050000X-0.387500X0.050000X0*%
%ADD36RoundRect,0.050000X-0.050000X-0.387500X0.050000X-0.387500X0.050000X0.387500X-0.050000X0.387500X0*%
%ADD37R,3.200000X3.200000*%
%ADD38C,0.650000*%
%ADD39RoundRect,0.150000X-0.425000X0.150000X-0.425000X-0.150000X0.425000X-0.150000X0.425000X0.150000X0*%
%ADD40RoundRect,0.075000X-0.500000X0.075000X-0.500000X-0.075000X0.500000X-0.075000X0.500000X0.075000X0*%
%ADD41O,2.100000X1.000000*%
%ADD42O,1.800000X1.000000*%
%ADD43RoundRect,0.250000X-0.312500X-1.450000X0.312500X-1.450000X0.312500X1.450000X-0.312500X1.450000X0*%
G04 APERTURE END LIST*
D10*
%TO.C,Q1*%
X68125000Y-60050000D03*
X68125000Y-61950000D03*
X70000000Y-61000000D03*
%TD*%
D11*
%TO.C,R5*%
X66175000Y-34850000D03*
X67825000Y-34850000D03*
%TD*%
D12*
%TO.C,C5*%
X67050000Y-28125001D03*
X67050000Y-25174999D03*
%TD*%
D13*
%TO.C,C14*%
X72450000Y-39775000D03*
X72450000Y-38225000D03*
%TD*%
D14*
%TO.C,C21*%
X65050000Y-43600000D03*
X66600000Y-43600000D03*
%TD*%
D15*
%TO.C,J3*%
X77000000Y-59920000D03*
D16*
X77000000Y-62460000D03*
X77000000Y-65000000D03*
%TD*%
D11*
%TO.C,R3*%
X68600000Y-36500000D03*
X70250000Y-36500000D03*
%TD*%
D17*
%TO.C,D4*%
X41650000Y-44480000D03*
D18*
X39950000Y-44480000D03*
X39950000Y-46480000D03*
X41850000Y-46480000D03*
%TD*%
D14*
%TO.C,C15*%
X69500000Y-51700000D03*
X71050000Y-51700000D03*
%TD*%
D19*
%TO.C,C17*%
X60120710Y-52895711D03*
X60120710Y-54445711D03*
%TD*%
D15*
%TO.C,J5*%
X50380000Y-70700000D03*
D16*
X52920000Y-70700000D03*
X55459999Y-70700000D03*
X58000000Y-70700000D03*
%TD*%
D20*
%TO.C,R14*%
X58700000Y-63050000D03*
X58700000Y-61400000D03*
%TD*%
%TO.C,R13*%
X60400000Y-63050000D03*
X60400000Y-61400000D03*
%TD*%
D11*
%TO.C,R4*%
X71750000Y-36500000D03*
X73400000Y-36500000D03*
%TD*%
D21*
%TO.C,C4*%
X44500000Y-25650000D03*
X44500000Y-28600002D03*
%TD*%
D19*
%TO.C,C26*%
X61650000Y-52000000D03*
X61650000Y-53550000D03*
%TD*%
%TO.C,C20*%
X63200000Y-52000000D03*
X63200000Y-53550000D03*
%TD*%
D13*
%TO.C,C27*%
X61200000Y-40000000D03*
X61200000Y-38450000D03*
%TD*%
D22*
%TO.C,C25*%
X52175000Y-47600000D03*
X50625000Y-47600000D03*
%TD*%
D13*
%TO.C,C12*%
X77050000Y-40550000D03*
X77050000Y-39000000D03*
%TD*%
D15*
%TO.C,J2*%
X77000000Y-31320001D03*
D16*
X77000000Y-33860001D03*
X77000000Y-36400000D03*
%TD*%
D15*
%TO.C,J6*%
X62380000Y-70700000D03*
D16*
X64920000Y-70700000D03*
X67459999Y-70700000D03*
X70000000Y-70700000D03*
%TD*%
D12*
%TO.C,C3*%
X54575000Y-32225002D03*
X54575000Y-29275000D03*
%TD*%
D21*
%TO.C,C2*%
X34400000Y-30224999D03*
X34400000Y-33175001D03*
%TD*%
D23*
%TO.C,L1*%
X58350000Y-27875000D03*
X63800000Y-27875000D03*
%TD*%
D19*
%TO.C,C16*%
X38550000Y-53375000D03*
X38550000Y-54925000D03*
%TD*%
D24*
%TO.C,RN2*%
X52350000Y-59300001D03*
X51850000Y-59300000D03*
X51350000Y-59300000D03*
X50850000Y-59300001D03*
X50850000Y-60299999D03*
X51350000Y-60300000D03*
X51850000Y-60300000D03*
X52350000Y-60299999D03*
%TD*%
D12*
%TO.C,C1*%
X44475000Y-33895002D03*
X44475000Y-30945000D03*
%TD*%
D25*
%TO.C,U2*%
X47170000Y-31860001D03*
X49470000Y-31860000D03*
D26*
X49470000Y-25560002D03*
D25*
X51770000Y-31860001D03*
%TD*%
D27*
%TO.C,U5*%
X40395000Y-57600000D03*
X41665000Y-57600000D03*
X42935000Y-57600000D03*
X44205000Y-57600000D03*
X44205000Y-50400000D03*
X42935000Y-50400000D03*
X41665000Y-50400000D03*
X40395000Y-50400000D03*
%TD*%
D28*
%TO.C,U3*%
X69445002Y-34475000D03*
X70715001Y-34475000D03*
X71985001Y-34475000D03*
X73255000Y-34475000D03*
X73255000Y-29325000D03*
X71985001Y-29325000D03*
X70715001Y-29325000D03*
X69445002Y-29325000D03*
%TD*%
D20*
%TO.C,R8*%
X59200000Y-36800000D03*
X59200000Y-35150000D03*
%TD*%
D22*
%TO.C,C24*%
X52525000Y-42450000D03*
X50975000Y-42450000D03*
%TD*%
D20*
%TO.C,R10*%
X67700000Y-57250000D03*
X67700000Y-55600000D03*
%TD*%
D29*
%TO.C,R6*%
X67825000Y-33200000D03*
X66175000Y-33200000D03*
%TD*%
D19*
%TO.C,C18*%
X54970711Y-52920710D03*
X54970711Y-54470710D03*
%TD*%
D30*
%TO.C,D5*%
X46000000Y-36500000D03*
X44424998Y-36500000D03*
%TD*%
D13*
%TO.C,C22*%
X58800000Y-39975000D03*
X58800000Y-38425000D03*
%TD*%
D29*
%TO.C,R27*%
X49325000Y-36500000D03*
X47675000Y-36500000D03*
%TD*%
D31*
%TO.C,D2*%
X60400000Y-59800000D03*
X60400000Y-58224998D03*
%TD*%
D13*
%TO.C,C8*%
X66250000Y-39800000D03*
X66250000Y-38250000D03*
%TD*%
D20*
%TO.C,R9*%
X60725000Y-36800000D03*
X60725000Y-35150000D03*
%TD*%
D13*
%TO.C,C6*%
X67775000Y-39775000D03*
X67775000Y-38225000D03*
%TD*%
D29*
%TO.C,R1*%
X41825000Y-41000000D03*
X40175000Y-41000000D03*
%TD*%
D13*
%TO.C,C9*%
X64700000Y-39800000D03*
X64700000Y-38250000D03*
%TD*%
D32*
%TO.C,Y1*%
X58370711Y-52995710D03*
X56720711Y-52995710D03*
X56720711Y-54245710D03*
X58370711Y-54245710D03*
%TD*%
D19*
%TO.C,C19*%
X64750000Y-52025000D03*
X64750000Y-53575000D03*
%TD*%
D33*
%TO.C,H1*%
X33000000Y-27000000D03*
%TD*%
D34*
%TO.C,U6*%
X68765000Y-49730000D03*
X69415000Y-49730000D03*
X70065000Y-49730000D03*
X70715000Y-49729999D03*
X71365000Y-49730000D03*
X72014999Y-49730000D03*
X72665000Y-49730000D03*
X73315000Y-49730000D03*
X73965001Y-49730000D03*
X74615000Y-49730000D03*
X75265000Y-49729999D03*
X75915000Y-49730000D03*
X76565000Y-49730000D03*
X77215000Y-49730000D03*
X77215000Y-42530000D03*
X76565000Y-42530000D03*
X75915000Y-42530000D03*
X75265000Y-42530001D03*
X74615000Y-42530000D03*
X73965001Y-42530000D03*
X73315000Y-42530000D03*
X72665000Y-42530000D03*
X72014999Y-42530000D03*
X71365000Y-42530000D03*
X70715000Y-42530001D03*
X70065000Y-42530000D03*
X69415000Y-42530000D03*
X68765000Y-42530000D03*
%TD*%
D22*
%TO.C,C7*%
X67750000Y-31600000D03*
X66200000Y-31600000D03*
%TD*%
D35*
%TO.C,U4*%
X55152500Y-43860000D03*
X55152500Y-44260001D03*
X55152500Y-44660000D03*
X55152500Y-45060000D03*
X55152500Y-45460000D03*
X55152500Y-45859999D03*
X55152500Y-46260000D03*
X55152500Y-46660000D03*
X55152500Y-47060001D03*
X55152500Y-47460000D03*
X55152500Y-47860000D03*
X55152500Y-48260000D03*
X55152500Y-48659999D03*
X55152500Y-49060000D03*
D36*
X55990000Y-49897500D03*
X56390001Y-49897500D03*
X56790000Y-49897500D03*
X57190000Y-49897500D03*
X57590000Y-49897500D03*
X57989999Y-49897500D03*
X58390000Y-49897500D03*
X58790000Y-49897500D03*
X59190001Y-49897500D03*
X59590000Y-49897500D03*
X59990000Y-49897500D03*
X60390000Y-49897500D03*
X60789999Y-49897500D03*
X61190000Y-49897500D03*
D35*
X62027500Y-49060000D03*
X62027500Y-48659999D03*
X62027500Y-48260000D03*
X62027500Y-47860000D03*
X62027500Y-47460000D03*
X62027500Y-47060001D03*
X62027500Y-46660000D03*
X62027500Y-46260000D03*
X62027500Y-45859999D03*
X62027500Y-45460000D03*
X62027500Y-45060000D03*
X62027500Y-44660000D03*
X62027500Y-44260001D03*
X62027500Y-43860000D03*
D36*
X61190000Y-43022500D03*
X60789999Y-43022500D03*
X60390000Y-43022500D03*
X59990000Y-43022500D03*
X59590000Y-43022500D03*
X59190001Y-43022500D03*
X58790000Y-43022500D03*
X58390000Y-43022500D03*
X57989999Y-43022500D03*
X57590000Y-43022500D03*
X57190000Y-43022500D03*
X56790000Y-43022500D03*
X56390001Y-43022500D03*
X55990000Y-43022500D03*
D37*
X58590000Y-46460000D03*
%TD*%
D33*
%TO.C,H2*%
X33000000Y-70000000D03*
%TD*%
D13*
%TO.C,C28*%
X62700000Y-40000000D03*
X62700000Y-38450000D03*
%TD*%
D29*
%TO.C,R2*%
X41875000Y-47925000D03*
X40225000Y-47925000D03*
%TD*%
D15*
%TO.C,J4*%
X38380000Y-70700000D03*
D16*
X40920000Y-70700000D03*
X43459999Y-70700000D03*
X46000000Y-70700000D03*
%TD*%
D24*
%TO.C,RN3*%
X55200000Y-59300002D03*
X54700000Y-59300001D03*
X54200000Y-59300001D03*
X53700000Y-59300002D03*
X53700000Y-60300000D03*
X54200000Y-60300001D03*
X54700000Y-60300001D03*
X55200000Y-60300000D03*
%TD*%
D13*
%TO.C,C11*%
X75500000Y-40550000D03*
X75500000Y-39000000D03*
%TD*%
D38*
%TO.C,J1*%
X36380000Y-42970000D03*
X36380000Y-48750000D03*
D39*
X37455000Y-42660000D03*
X37455000Y-43460000D03*
D40*
X37454999Y-44610000D03*
X37455000Y-45610000D03*
X37455000Y-46110000D03*
X37454999Y-47110000D03*
D39*
X37455000Y-48260000D03*
X37455000Y-49060000D03*
X37455000Y-49060000D03*
X37455000Y-48260000D03*
D40*
X37455000Y-47610000D03*
X37455000Y-46610000D03*
X37455000Y-45110000D03*
X37455000Y-44110000D03*
D39*
X37455000Y-43460000D03*
X37455000Y-42660000D03*
D41*
X36880000Y-41540000D03*
D42*
X32700000Y-41540000D03*
D41*
X36880000Y-50180000D03*
D42*
X32700000Y-50180000D03*
%TD*%
D20*
%TO.C,R12*%
X57000000Y-63000000D03*
X57000000Y-61350000D03*
%TD*%
D14*
%TO.C,C23*%
X64500000Y-42000000D03*
X66050000Y-42000000D03*
%TD*%
D31*
%TO.C,D3*%
X58700000Y-59800000D03*
X58700000Y-58224998D03*
%TD*%
D43*
%TO.C,F1*%
X37175000Y-37975000D03*
X41450000Y-37975000D03*
%TD*%
D13*
%TO.C,C13*%
X70925000Y-39775000D03*
X70925000Y-38225000D03*
%TD*%
D24*
%TO.C,RN1*%
X49500000Y-59300002D03*
X49000000Y-59300001D03*
X48500000Y-59300001D03*
X48000000Y-59300002D03*
X48000000Y-60300000D03*
X48500000Y-60300001D03*
X49000000Y-60300001D03*
X49500000Y-60300000D03*
%TD*%
D13*
%TO.C,C10*%
X73975000Y-39775000D03*
X73975000Y-38225000D03*
%TD*%
D33*
%TO.C,H4*%
X76000000Y-27000000D03*
%TD*%
D25*
%TO.C,U1*%
X37042500Y-34515001D03*
X39342500Y-34515000D03*
D26*
X39342500Y-28215002D03*
D25*
X41642500Y-34515001D03*
%TD*%
D15*
%TO.C,J7*%
X31900000Y-65540000D03*
D16*
X31900000Y-63000000D03*
X31900000Y-60460001D03*
X31900000Y-57920000D03*
%TD*%
D20*
%TO.C,R7*%
X69300000Y-39825000D03*
X69300000Y-38175000D03*
%TD*%
%TO.C,R11*%
X69250000Y-57250000D03*
X69250000Y-55600000D03*
%TD*%
D33*
%TO.C,H3*%
X76000000Y-70000000D03*
%TD*%
D31*
%TO.C,D1*%
X57000000Y-59787501D03*
X57000000Y-58212499D03*
%TD*%
M02*
