%TF.GenerationSoftware,KiCad,Pcbnew,8.0.9-8.0.9-0~ubuntu22.04.1*%
%TF.CreationDate,2025-11-15T02:19:11+01:00*%
%TF.ProjectId,GLITCHING_FMAW,474c4954-4348-4494-9e47-5f464d41572e,rev?*%
%TF.SameCoordinates,Original*%
%TF.FileFunction,Copper,L2,Inr*%
%TF.FilePolarity,Positive*%
%FSLAX46Y46*%
G04 Gerber Fmt 4.6, Leading zero omitted, Abs format (unit mm)*
G04 Created by KiCad (PCBNEW 8.0.9-8.0.9-0~ubuntu22.04.1) date 2025-11-15 02:19:11*
%MOMM*%
%LPD*%
G01*
G04 APERTURE LIST*
%TA.AperFunction,ComponentPad*%
%ADD10R,1.700000X1.700000*%
%TD*%
%TA.AperFunction,ComponentPad*%
%ADD11O,1.700000X1.700000*%
%TD*%
%TA.AperFunction,ComponentPad*%
%ADD12C,3.800000*%
%TD*%
%TA.AperFunction,ComponentPad*%
%ADD13O,2.100000X1.000000*%
%TD*%
%TA.AperFunction,ComponentPad*%
%ADD14O,1.800000X1.000000*%
%TD*%
%TA.AperFunction,ViaPad*%
%ADD15C,0.600000*%
%TD*%
G04 APERTURE END LIST*
D10*
%TO.N,+3.3VA*%
%TO.C,J3*%
X77000000Y-59920000D03*
D11*
%TO.N,Net-(J3-Pin_2)*%
X77000000Y-62460000D03*
%TO.N,GND*%
X77000000Y-65000000D03*
%TD*%
D10*
%TO.N,Net-(J5-Pin_1)*%
%TO.C,J5*%
X50380000Y-70700000D03*
D11*
%TO.N,Net-(J5-Pin_2)*%
X52920000Y-70700000D03*
%TO.N,Net-(J5-Pin_3)*%
X55459999Y-70700000D03*
%TO.N,Net-(J5-Pin_4)*%
X58000000Y-70700000D03*
%TD*%
D10*
%TO.N,GND*%
%TO.C,J2*%
X77000000Y-31320001D03*
D11*
%TO.N,Net-(J2-Pin_2)*%
X77000000Y-33860001D03*
%TO.N,GND*%
X77000000Y-36400000D03*
%TD*%
D10*
%TO.N,Net-(J6-Pin_1)*%
%TO.C,J6*%
X62380000Y-70700000D03*
D11*
%TO.N,Net-(J6-Pin_2)*%
X64920000Y-70700000D03*
%TO.N,Net-(J6-Pin_3)*%
X67459999Y-70700000D03*
%TO.N,Net-(J6-Pin_4)*%
X70000000Y-70700000D03*
%TD*%
D12*
%TO.N,N/C*%
%TO.C,H1*%
X33000000Y-27000000D03*
%TD*%
%TO.N,N/C*%
%TO.C,H2*%
X33000000Y-70000000D03*
%TD*%
D10*
%TO.N,Net-(J4-Pin_1)*%
%TO.C,J4*%
X38380000Y-70700000D03*
D11*
%TO.N,Net-(J4-Pin_2)*%
X40920000Y-70700000D03*
%TO.N,Net-(J4-Pin_3)*%
X43459999Y-70700000D03*
%TO.N,Net-(J4-Pin_4)*%
X46000000Y-70700000D03*
%TD*%
D13*
%TO.N,GND*%
%TO.C,J1*%
X36880000Y-41540000D03*
D14*
X32700000Y-41540000D03*
D13*
X36880000Y-50180000D03*
D14*
X32700000Y-50180000D03*
%TD*%
D12*
%TO.N,N/C*%
%TO.C,H4*%
X76000000Y-27000000D03*
%TD*%
D10*
%TO.N,GND*%
%TO.C,J7*%
X31900000Y-65540000D03*
D11*
X31900000Y-63000000D03*
X31900000Y-60460001D03*
X31900000Y-57920000D03*
%TD*%
D12*
%TO.N,N/C*%
%TO.C,H3*%
X76000000Y-70000000D03*
%TD*%
D15*
%TO.N,+3.3VA*%
X72014999Y-42530000D03*
%TO.N,GND*%
X67250000Y-42500000D03*
X72250000Y-51250000D03*
X49750000Y-41750000D03*
X57100000Y-37100000D03*
X70750000Y-41200000D03*
X62800000Y-36800000D03*
X65500000Y-40750000D03*
X56500000Y-35400000D03*
X75500000Y-45500000D03*
X54600000Y-30400000D03*
X62000000Y-56000000D03*
X67070000Y-49580000D03*
X69000000Y-54000000D03*
X42750000Y-41250000D03*
X50250000Y-49250000D03*
X47250000Y-34750000D03*
X57500000Y-38700000D03*
X63500000Y-50800000D03*
X73250000Y-53500000D03*
X46716003Y-38122809D03*
X53250000Y-53000000D03*
%TO.N,VBUS*%
X44475000Y-33895002D03*
X41500000Y-38000000D03*
X41900000Y-46500000D03*
X51750000Y-32000000D03*
%TO.N,+3.3V*%
X41750000Y-28250000D03*
X39255469Y-30742294D03*
X39250000Y-29750000D03*
X36750000Y-28250000D03*
X62206250Y-42006250D03*
X61000000Y-47500000D03*
X53875000Y-42525000D03*
X60424403Y-49059399D03*
X63300000Y-43600000D03*
X35500000Y-28250000D03*
X58630602Y-48993034D03*
X52875000Y-47460000D03*
X68700000Y-51675000D03*
X40337500Y-51587500D03*
X58725000Y-41475000D03*
X39250000Y-32750000D03*
X39250000Y-31750000D03*
%TO.N,+3.3VA*%
X66000000Y-30000000D03*
X68000000Y-30000000D03*
X67000000Y-30000000D03*
X68550000Y-41050000D03*
%TO.N,+1V1*%
X59500000Y-48900000D03*
X59228225Y-43960000D03*
%TO.N,+3.3VA*%
X72450000Y-39775000D03*
%TD*%
%TA.AperFunction,Conductor*%
%TO.N,+3.3V*%
G36*
X76001470Y-24500589D02*
G01*
X76062476Y-24504279D01*
X76298332Y-24518545D01*
X76304199Y-24519258D01*
X76595259Y-24572597D01*
X76600990Y-24574009D01*
X76883505Y-24662045D01*
X76889035Y-24664142D01*
X77158878Y-24785589D01*
X77164105Y-24788331D01*
X77369074Y-24912240D01*
X77417342Y-24941419D01*
X77422211Y-24944780D01*
X77655142Y-25127269D01*
X77659571Y-25131193D01*
X77868806Y-25340428D01*
X77872730Y-25344857D01*
X78055219Y-25577788D01*
X78058580Y-25582657D01*
X78211664Y-25835888D01*
X78214414Y-25841128D01*
X78335856Y-26110962D01*
X78337954Y-26116494D01*
X78425987Y-26399000D01*
X78427403Y-26404746D01*
X78480740Y-26695798D01*
X78481454Y-26701671D01*
X78499411Y-26998528D01*
X78499500Y-27001487D01*
X78499500Y-69998512D01*
X78499411Y-70001471D01*
X78481454Y-70298328D01*
X78480740Y-70304201D01*
X78427403Y-70595253D01*
X78425987Y-70600999D01*
X78337954Y-70883505D01*
X78335856Y-70889037D01*
X78214414Y-71158871D01*
X78211664Y-71164111D01*
X78058580Y-71417342D01*
X78055219Y-71422211D01*
X77872730Y-71655142D01*
X77868806Y-71659571D01*
X77659571Y-71868806D01*
X77655142Y-71872730D01*
X77422211Y-72055219D01*
X77417342Y-72058580D01*
X77164111Y-72211664D01*
X77158871Y-72214414D01*
X76889037Y-72335856D01*
X76883505Y-72337954D01*
X76600999Y-72425987D01*
X76595253Y-72427403D01*
X76304201Y-72480740D01*
X76298328Y-72481454D01*
X76001471Y-72499411D01*
X75998512Y-72499500D01*
X33001488Y-72499500D01*
X32998529Y-72499411D01*
X32701671Y-72481454D01*
X32695798Y-72480740D01*
X32404746Y-72427403D01*
X32399000Y-72425987D01*
X32116494Y-72337954D01*
X32110962Y-72335856D01*
X31841128Y-72214414D01*
X31835888Y-72211664D01*
X31582657Y-72058580D01*
X31577788Y-72055219D01*
X31344857Y-71872730D01*
X31340428Y-71868806D01*
X31131193Y-71659571D01*
X31127269Y-71655142D01*
X31064744Y-71575335D01*
X30944780Y-71422211D01*
X30941419Y-71417342D01*
X30859494Y-71281822D01*
X30788331Y-71164105D01*
X30785589Y-71158878D01*
X30664142Y-70889035D01*
X30662045Y-70883505D01*
X30654338Y-70858771D01*
X30574009Y-70600990D01*
X30572596Y-70595253D01*
X30570084Y-70581546D01*
X30519258Y-70304199D01*
X30518545Y-70298327D01*
X30500589Y-70001470D01*
X30500545Y-70000000D01*
X30844475Y-70000000D01*
X30864551Y-70293512D01*
X30924405Y-70581546D01*
X30930313Y-70598170D01*
X31022928Y-70858764D01*
X31147538Y-71099248D01*
X31158276Y-71119972D01*
X31158280Y-71119980D01*
X31201145Y-71180705D01*
X31327935Y-71360326D01*
X31528740Y-71575335D01*
X31756951Y-71760999D01*
X32008318Y-71913859D01*
X32278159Y-72031067D01*
X32561445Y-72110440D01*
X32812841Y-72144993D01*
X32852901Y-72150500D01*
X32852902Y-72150500D01*
X33147099Y-72150500D01*
X33182318Y-72145659D01*
X33438555Y-72110440D01*
X33721841Y-72031067D01*
X33991682Y-71913859D01*
X34243049Y-71760999D01*
X34471260Y-71575335D01*
X34672065Y-71360326D01*
X34841722Y-71119976D01*
X34977072Y-70858764D01*
X35075592Y-70581554D01*
X35093181Y-70496914D01*
X35135448Y-70293512D01*
X35136733Y-70274720D01*
X35155525Y-70000000D01*
X35143577Y-69825322D01*
X37279500Y-69825322D01*
X37279500Y-71574677D01*
X37294033Y-71647739D01*
X37349398Y-71730601D01*
X37397924Y-71763024D01*
X37432260Y-71785966D01*
X37505326Y-71800500D01*
X39254674Y-71800500D01*
X39327740Y-71785966D01*
X39410601Y-71730601D01*
X39465966Y-71647740D01*
X39480500Y-71574674D01*
X39480500Y-70700000D01*
X39814785Y-70700000D01*
X39833602Y-70903079D01*
X39833603Y-70903085D01*
X39889417Y-71099248D01*
X39889420Y-71099255D01*
X39980325Y-71281818D01*
X39980328Y-71281822D01*
X40103233Y-71444576D01*
X40103236Y-71444579D01*
X40253954Y-71581977D01*
X40253955Y-71581978D01*
X40253959Y-71581981D01*
X40427363Y-71689348D01*
X40617544Y-71763024D01*
X40818024Y-71800500D01*
X40818026Y-71800500D01*
X41021974Y-71800500D01*
X41021976Y-71800500D01*
X41222456Y-71763024D01*
X41412637Y-71689348D01*
X41586041Y-71581981D01*
X41736764Y-71444579D01*
X41859673Y-71281821D01*
X41950582Y-71099250D01*
X42006397Y-70903083D01*
X42025215Y-70700000D01*
X42354784Y-70700000D01*
X42373601Y-70903079D01*
X42373602Y-70903085D01*
X42429416Y-71099248D01*
X42429419Y-71099255D01*
X42520324Y-71281818D01*
X42520327Y-71281822D01*
X42643232Y-71444576D01*
X42643235Y-71444579D01*
X42793953Y-71581977D01*
X42793954Y-71581978D01*
X42793958Y-71581981D01*
X42967362Y-71689348D01*
X43157543Y-71763024D01*
X43358023Y-71800500D01*
X43358025Y-71800500D01*
X43561973Y-71800500D01*
X43561975Y-71800500D01*
X43762455Y-71763024D01*
X43952636Y-71689348D01*
X44126040Y-71581981D01*
X44276763Y-71444579D01*
X44399672Y-71281821D01*
X44490581Y-71099250D01*
X44546396Y-70903083D01*
X44565214Y-70700000D01*
X44894785Y-70700000D01*
X44913602Y-70903079D01*
X44913603Y-70903085D01*
X44969417Y-71099248D01*
X44969420Y-71099255D01*
X45060325Y-71281818D01*
X45060328Y-71281822D01*
X45183233Y-71444576D01*
X45183236Y-71444579D01*
X45333954Y-71581977D01*
X45333955Y-71581978D01*
X45333959Y-71581981D01*
X45507363Y-71689348D01*
X45697544Y-71763024D01*
X45898024Y-71800500D01*
X45898026Y-71800500D01*
X46101974Y-71800500D01*
X46101976Y-71800500D01*
X46302456Y-71763024D01*
X46492637Y-71689348D01*
X46666041Y-71581981D01*
X46816764Y-71444579D01*
X46939673Y-71281821D01*
X47030582Y-71099250D01*
X47086397Y-70903083D01*
X47105215Y-70700000D01*
X47086397Y-70496917D01*
X47030582Y-70300750D01*
X46939673Y-70118179D01*
X46878218Y-70036800D01*
X46816766Y-69955423D01*
X46816763Y-69955420D01*
X46674053Y-69825322D01*
X49279500Y-69825322D01*
X49279500Y-71574677D01*
X49294033Y-71647739D01*
X49349398Y-71730601D01*
X49397924Y-71763024D01*
X49432260Y-71785966D01*
X49505326Y-71800500D01*
X51254674Y-71800500D01*
X51327740Y-71785966D01*
X51410601Y-71730601D01*
X51465966Y-71647740D01*
X51480500Y-71574674D01*
X51480500Y-70700000D01*
X51814785Y-70700000D01*
X51833602Y-70903079D01*
X51833603Y-70903085D01*
X51889417Y-71099248D01*
X51889420Y-71099255D01*
X51980325Y-71281818D01*
X51980328Y-71281822D01*
X52103233Y-71444576D01*
X52103236Y-71444579D01*
X52253954Y-71581977D01*
X52253955Y-71581978D01*
X52253959Y-71581981D01*
X52427363Y-71689348D01*
X52617544Y-71763024D01*
X52818024Y-71800500D01*
X52818026Y-71800500D01*
X53021974Y-71800500D01*
X53021976Y-71800500D01*
X53222456Y-71763024D01*
X53412637Y-71689348D01*
X53586041Y-71581981D01*
X53736764Y-71444579D01*
X53859673Y-71281821D01*
X53950582Y-71099250D01*
X54006397Y-70903083D01*
X54025215Y-70700000D01*
X54354784Y-70700000D01*
X54373601Y-70903079D01*
X54373602Y-70903085D01*
X54429416Y-71099248D01*
X54429419Y-71099255D01*
X54520324Y-71281818D01*
X54520327Y-71281822D01*
X54643232Y-71444576D01*
X54643235Y-71444579D01*
X54793953Y-71581977D01*
X54793954Y-71581978D01*
X54793958Y-71581981D01*
X54967362Y-71689348D01*
X55157543Y-71763024D01*
X55358023Y-71800500D01*
X55358025Y-71800500D01*
X55561973Y-71800500D01*
X55561975Y-71800500D01*
X55762455Y-71763024D01*
X55952636Y-71689348D01*
X56126040Y-71581981D01*
X56276763Y-71444579D01*
X56399672Y-71281821D01*
X56490581Y-71099250D01*
X56546396Y-70903083D01*
X56565214Y-70700000D01*
X56894785Y-70700000D01*
X56913602Y-70903079D01*
X56913603Y-70903085D01*
X56969417Y-71099248D01*
X56969420Y-71099255D01*
X57060325Y-71281818D01*
X57060328Y-71281822D01*
X57183233Y-71444576D01*
X57183236Y-71444579D01*
X57333954Y-71581977D01*
X57333955Y-71581978D01*
X57333959Y-71581981D01*
X57507363Y-71689348D01*
X57697544Y-71763024D01*
X57898024Y-71800500D01*
X57898026Y-71800500D01*
X58101974Y-71800500D01*
X58101976Y-71800500D01*
X58302456Y-71763024D01*
X58492637Y-71689348D01*
X58666041Y-71581981D01*
X58816764Y-71444579D01*
X58939673Y-71281821D01*
X59030582Y-71099250D01*
X59086397Y-70903083D01*
X59105215Y-70700000D01*
X59086397Y-70496917D01*
X59030582Y-70300750D01*
X58939673Y-70118179D01*
X58878218Y-70036800D01*
X58816766Y-69955423D01*
X58816763Y-69955420D01*
X58674053Y-69825322D01*
X61279500Y-69825322D01*
X61279500Y-71574677D01*
X61294033Y-71647739D01*
X61349398Y-71730601D01*
X61397924Y-71763024D01*
X61432260Y-71785966D01*
X61505326Y-71800500D01*
X63254674Y-71800500D01*
X63327740Y-71785966D01*
X63410601Y-71730601D01*
X63465966Y-71647740D01*
X63480500Y-71574674D01*
X63480500Y-70700000D01*
X63814785Y-70700000D01*
X63833602Y-70903079D01*
X63833603Y-70903085D01*
X63889417Y-71099248D01*
X63889420Y-71099255D01*
X63980325Y-71281818D01*
X63980328Y-71281822D01*
X64103233Y-71444576D01*
X64103236Y-71444579D01*
X64253954Y-71581977D01*
X64253955Y-71581978D01*
X64253959Y-71581981D01*
X64427363Y-71689348D01*
X64617544Y-71763024D01*
X64818024Y-71800500D01*
X64818026Y-71800500D01*
X65021974Y-71800500D01*
X65021976Y-71800500D01*
X65222456Y-71763024D01*
X65412637Y-71689348D01*
X65586041Y-71581981D01*
X65736764Y-71444579D01*
X65859673Y-71281821D01*
X65950582Y-71099250D01*
X66006397Y-70903083D01*
X66025215Y-70700000D01*
X66354784Y-70700000D01*
X66373601Y-70903079D01*
X66373602Y-70903085D01*
X66429416Y-71099248D01*
X66429419Y-71099255D01*
X66520324Y-71281818D01*
X66520327Y-71281822D01*
X66643232Y-71444576D01*
X66643235Y-71444579D01*
X66793953Y-71581977D01*
X66793954Y-71581978D01*
X66793958Y-71581981D01*
X66967362Y-71689348D01*
X67157543Y-71763024D01*
X67358023Y-71800500D01*
X67358025Y-71800500D01*
X67561973Y-71800500D01*
X67561975Y-71800500D01*
X67762455Y-71763024D01*
X67952636Y-71689348D01*
X68126040Y-71581981D01*
X68276763Y-71444579D01*
X68399672Y-71281821D01*
X68490581Y-71099250D01*
X68546396Y-70903083D01*
X68565214Y-70700000D01*
X68894785Y-70700000D01*
X68913602Y-70903079D01*
X68913603Y-70903085D01*
X68969417Y-71099248D01*
X68969420Y-71099255D01*
X69060325Y-71281818D01*
X69060328Y-71281822D01*
X69183233Y-71444576D01*
X69183236Y-71444579D01*
X69333954Y-71581977D01*
X69333955Y-71581978D01*
X69333959Y-71581981D01*
X69507363Y-71689348D01*
X69697544Y-71763024D01*
X69898024Y-71800500D01*
X69898026Y-71800500D01*
X70101974Y-71800500D01*
X70101976Y-71800500D01*
X70302456Y-71763024D01*
X70492637Y-71689348D01*
X70666041Y-71581981D01*
X70816764Y-71444579D01*
X70939673Y-71281821D01*
X71030582Y-71099250D01*
X71086397Y-70903083D01*
X71105215Y-70700000D01*
X71086397Y-70496917D01*
X71030582Y-70300750D01*
X70939673Y-70118179D01*
X70878218Y-70036800D01*
X70850428Y-70000000D01*
X73844475Y-70000000D01*
X73864551Y-70293512D01*
X73924405Y-70581546D01*
X73930313Y-70598170D01*
X74022928Y-70858764D01*
X74147538Y-71099248D01*
X74158276Y-71119972D01*
X74158280Y-71119980D01*
X74201145Y-71180705D01*
X74327935Y-71360326D01*
X74528740Y-71575335D01*
X74756951Y-71760999D01*
X75008318Y-71913859D01*
X75278159Y-72031067D01*
X75561445Y-72110440D01*
X75812841Y-72144993D01*
X75852901Y-72150500D01*
X75852902Y-72150500D01*
X76147099Y-72150500D01*
X76182318Y-72145659D01*
X76438555Y-72110440D01*
X76721841Y-72031067D01*
X76991682Y-71913859D01*
X77243049Y-71760999D01*
X77471260Y-71575335D01*
X77672065Y-71360326D01*
X77841722Y-71119976D01*
X77977072Y-70858764D01*
X78075592Y-70581554D01*
X78093181Y-70496914D01*
X78135448Y-70293512D01*
X78136733Y-70274720D01*
X78155525Y-70000000D01*
X78135448Y-69706489D01*
X78127741Y-69669399D01*
X78075594Y-69418453D01*
X78075592Y-69418446D01*
X77977072Y-69141236D01*
X77841722Y-68880024D01*
X77841720Y-68880021D01*
X77841719Y-68880019D01*
X77787189Y-68802768D01*
X77672065Y-68639674D01*
X77471260Y-68424665D01*
X77243049Y-68239001D01*
X76991682Y-68086141D01*
X76991678Y-68086139D01*
X76991676Y-68086138D01*
X76721842Y-67968933D01*
X76438560Y-67889561D01*
X76438555Y-67889560D01*
X76147099Y-67849500D01*
X76147098Y-67849500D01*
X75852902Y-67849500D01*
X75852901Y-67849500D01*
X75561444Y-67889560D01*
X75561439Y-67889561D01*
X75278157Y-67968933D01*
X75008323Y-68086138D01*
X74756949Y-68239002D01*
X74528748Y-68424658D01*
X74528737Y-68424668D01*
X74327939Y-68639669D01*
X74327933Y-68639677D01*
X74158280Y-68880019D01*
X74158276Y-68880027D01*
X74022932Y-69141228D01*
X74022928Y-69141237D01*
X73924405Y-69418453D01*
X73864551Y-69706487D01*
X73844475Y-70000000D01*
X70850428Y-70000000D01*
X70816766Y-69955423D01*
X70816763Y-69955420D01*
X70666045Y-69818022D01*
X70666042Y-69818020D01*
X70666041Y-69818019D01*
X70492637Y-69710652D01*
X70492634Y-69710651D01*
X70492633Y-69710650D01*
X70302462Y-69636978D01*
X70302460Y-69636977D01*
X70302456Y-69636976D01*
X70101976Y-69599500D01*
X69898024Y-69599500D01*
X69697544Y-69636976D01*
X69697540Y-69636977D01*
X69697537Y-69636978D01*
X69507366Y-69710650D01*
X69333954Y-69818022D01*
X69183236Y-69955420D01*
X69183233Y-69955423D01*
X69060328Y-70118177D01*
X69060325Y-70118181D01*
X68969420Y-70300744D01*
X68969417Y-70300751D01*
X68913603Y-70496914D01*
X68913602Y-70496920D01*
X68894785Y-70700000D01*
X68565214Y-70700000D01*
X68546396Y-70496917D01*
X68490581Y-70300750D01*
X68399672Y-70118179D01*
X68338217Y-70036800D01*
X68276765Y-69955423D01*
X68276762Y-69955420D01*
X68126044Y-69818022D01*
X68126041Y-69818020D01*
X68126040Y-69818019D01*
X67952636Y-69710652D01*
X67952633Y-69710651D01*
X67952632Y-69710650D01*
X67762461Y-69636978D01*
X67762459Y-69636977D01*
X67762455Y-69636976D01*
X67561975Y-69599500D01*
X67358023Y-69599500D01*
X67157543Y-69636976D01*
X67157539Y-69636977D01*
X67157536Y-69636978D01*
X66967365Y-69710650D01*
X66793953Y-69818022D01*
X66643235Y-69955420D01*
X66643232Y-69955423D01*
X66520327Y-70118177D01*
X66520324Y-70118181D01*
X66429419Y-70300744D01*
X66429416Y-70300751D01*
X66373602Y-70496914D01*
X66373601Y-70496920D01*
X66354784Y-70700000D01*
X66025215Y-70700000D01*
X66006397Y-70496917D01*
X65950582Y-70300750D01*
X65859673Y-70118179D01*
X65798218Y-70036800D01*
X65736766Y-69955423D01*
X65736763Y-69955420D01*
X65586045Y-69818022D01*
X65586042Y-69818020D01*
X65586041Y-69818019D01*
X65412637Y-69710652D01*
X65412634Y-69710651D01*
X65412633Y-69710650D01*
X65222462Y-69636978D01*
X65222460Y-69636977D01*
X65222456Y-69636976D01*
X65021976Y-69599500D01*
X64818024Y-69599500D01*
X64617544Y-69636976D01*
X64617540Y-69636977D01*
X64617537Y-69636978D01*
X64427366Y-69710650D01*
X64253954Y-69818022D01*
X64103236Y-69955420D01*
X64103233Y-69955423D01*
X63980328Y-70118177D01*
X63980325Y-70118181D01*
X63889420Y-70300744D01*
X63889417Y-70300751D01*
X63833603Y-70496914D01*
X63833602Y-70496920D01*
X63814785Y-70700000D01*
X63480500Y-70700000D01*
X63480500Y-69825326D01*
X63465966Y-69752260D01*
X63438164Y-69710650D01*
X63410601Y-69669398D01*
X63327739Y-69614033D01*
X63254677Y-69599500D01*
X63254674Y-69599500D01*
X61505326Y-69599500D01*
X61505322Y-69599500D01*
X61432260Y-69614033D01*
X61349398Y-69669398D01*
X61294033Y-69752260D01*
X61279500Y-69825322D01*
X58674053Y-69825322D01*
X58666045Y-69818022D01*
X58666042Y-69818020D01*
X58666041Y-69818019D01*
X58492637Y-69710652D01*
X58492634Y-69710651D01*
X58492633Y-69710650D01*
X58302462Y-69636978D01*
X58302460Y-69636977D01*
X58302456Y-69636976D01*
X58101976Y-69599500D01*
X57898024Y-69599500D01*
X57697544Y-69636976D01*
X57697540Y-69636977D01*
X57697537Y-69636978D01*
X57507366Y-69710650D01*
X57333954Y-69818022D01*
X57183236Y-69955420D01*
X57183233Y-69955423D01*
X57060328Y-70118177D01*
X57060325Y-70118181D01*
X56969420Y-70300744D01*
X56969417Y-70300751D01*
X56913603Y-70496914D01*
X56913602Y-70496920D01*
X56894785Y-70700000D01*
X56565214Y-70700000D01*
X56546396Y-70496917D01*
X56490581Y-70300750D01*
X56399672Y-70118179D01*
X56338217Y-70036800D01*
X56276765Y-69955423D01*
X56276762Y-69955420D01*
X56126044Y-69818022D01*
X56126041Y-69818020D01*
X56126040Y-69818019D01*
X55952636Y-69710652D01*
X55952633Y-69710651D01*
X55952632Y-69710650D01*
X55762461Y-69636978D01*
X55762459Y-69636977D01*
X55762455Y-69636976D01*
X55561975Y-69599500D01*
X55358023Y-69599500D01*
X55157543Y-69636976D01*
X55157539Y-69636977D01*
X55157536Y-69636978D01*
X54967365Y-69710650D01*
X54793953Y-69818022D01*
X54643235Y-69955420D01*
X54643232Y-69955423D01*
X54520327Y-70118177D01*
X54520324Y-70118181D01*
X54429419Y-70300744D01*
X54429416Y-70300751D01*
X54373602Y-70496914D01*
X54373601Y-70496920D01*
X54354784Y-70700000D01*
X54025215Y-70700000D01*
X54006397Y-70496917D01*
X53950582Y-70300750D01*
X53859673Y-70118179D01*
X53798218Y-70036800D01*
X53736766Y-69955423D01*
X53736763Y-69955420D01*
X53586045Y-69818022D01*
X53586042Y-69818020D01*
X53586041Y-69818019D01*
X53412637Y-69710652D01*
X53412634Y-69710651D01*
X53412633Y-69710650D01*
X53222462Y-69636978D01*
X53222460Y-69636977D01*
X53222456Y-69636976D01*
X53021976Y-69599500D01*
X52818024Y-69599500D01*
X52617544Y-69636976D01*
X52617540Y-69636977D01*
X52617537Y-69636978D01*
X52427366Y-69710650D01*
X52253954Y-69818022D01*
X52103236Y-69955420D01*
X52103233Y-69955423D01*
X51980328Y-70118177D01*
X51980325Y-70118181D01*
X51889420Y-70300744D01*
X51889417Y-70300751D01*
X51833603Y-70496914D01*
X51833602Y-70496920D01*
X51814785Y-70700000D01*
X51480500Y-70700000D01*
X51480500Y-69825326D01*
X51465966Y-69752260D01*
X51438164Y-69710650D01*
X51410601Y-69669398D01*
X51327739Y-69614033D01*
X51254677Y-69599500D01*
X51254674Y-69599500D01*
X49505326Y-69599500D01*
X49505322Y-69599500D01*
X49432260Y-69614033D01*
X49349398Y-69669398D01*
X49294033Y-69752260D01*
X49279500Y-69825322D01*
X46674053Y-69825322D01*
X46666045Y-69818022D01*
X46666042Y-69818020D01*
X46666041Y-69818019D01*
X46492637Y-69710652D01*
X46492634Y-69710651D01*
X46492633Y-69710650D01*
X46302462Y-69636978D01*
X46302460Y-69636977D01*
X46302456Y-69636976D01*
X46101976Y-69599500D01*
X45898024Y-69599500D01*
X45697544Y-69636976D01*
X45697540Y-69636977D01*
X45697537Y-69636978D01*
X45507366Y-69710650D01*
X45333954Y-69818022D01*
X45183236Y-69955420D01*
X45183233Y-69955423D01*
X45060328Y-70118177D01*
X45060325Y-70118181D01*
X44969420Y-70300744D01*
X44969417Y-70300751D01*
X44913603Y-70496914D01*
X44913602Y-70496920D01*
X44894785Y-70700000D01*
X44565214Y-70700000D01*
X44546396Y-70496917D01*
X44490581Y-70300750D01*
X44399672Y-70118179D01*
X44338217Y-70036800D01*
X44276765Y-69955423D01*
X44276762Y-69955420D01*
X44126044Y-69818022D01*
X44126041Y-69818020D01*
X44126040Y-69818019D01*
X43952636Y-69710652D01*
X43952633Y-69710651D01*
X43952632Y-69710650D01*
X43762461Y-69636978D01*
X43762459Y-69636977D01*
X43762455Y-69636976D01*
X43561975Y-69599500D01*
X43358023Y-69599500D01*
X43157543Y-69636976D01*
X43157539Y-69636977D01*
X43157536Y-69636978D01*
X42967365Y-69710650D01*
X42793953Y-69818022D01*
X42643235Y-69955420D01*
X42643232Y-69955423D01*
X42520327Y-70118177D01*
X42520324Y-70118181D01*
X42429419Y-70300744D01*
X42429416Y-70300751D01*
X42373602Y-70496914D01*
X42373601Y-70496920D01*
X42354784Y-70700000D01*
X42025215Y-70700000D01*
X42006397Y-70496917D01*
X41950582Y-70300750D01*
X41859673Y-70118179D01*
X41798218Y-70036800D01*
X41736766Y-69955423D01*
X41736763Y-69955420D01*
X41586045Y-69818022D01*
X41586042Y-69818020D01*
X41586041Y-69818019D01*
X41412637Y-69710652D01*
X41412634Y-69710651D01*
X41412633Y-69710650D01*
X41222462Y-69636978D01*
X41222460Y-69636977D01*
X41222456Y-69636976D01*
X41021976Y-69599500D01*
X40818024Y-69599500D01*
X40617544Y-69636976D01*
X40617540Y-69636977D01*
X40617537Y-69636978D01*
X40427366Y-69710650D01*
X40253954Y-69818022D01*
X40103236Y-69955420D01*
X40103233Y-69955423D01*
X39980328Y-70118177D01*
X39980325Y-70118181D01*
X39889420Y-70300744D01*
X39889417Y-70300751D01*
X39833603Y-70496914D01*
X39833602Y-70496920D01*
X39814785Y-70700000D01*
X39480500Y-70700000D01*
X39480500Y-69825326D01*
X39465966Y-69752260D01*
X39438164Y-69710650D01*
X39410601Y-69669398D01*
X39327739Y-69614033D01*
X39254677Y-69599500D01*
X39254674Y-69599500D01*
X37505326Y-69599500D01*
X37505322Y-69599500D01*
X37432260Y-69614033D01*
X37349398Y-69669398D01*
X37294033Y-69752260D01*
X37279500Y-69825322D01*
X35143577Y-69825322D01*
X35135448Y-69706489D01*
X35127741Y-69669399D01*
X35075594Y-69418453D01*
X35075592Y-69418446D01*
X34977072Y-69141236D01*
X34841722Y-68880024D01*
X34841720Y-68880021D01*
X34841719Y-68880019D01*
X34787189Y-68802768D01*
X34672065Y-68639674D01*
X34471260Y-68424665D01*
X34243049Y-68239001D01*
X33991682Y-68086141D01*
X33991678Y-68086139D01*
X33991676Y-68086138D01*
X33721842Y-67968933D01*
X33438560Y-67889561D01*
X33438555Y-67889560D01*
X33147099Y-67849500D01*
X33147098Y-67849500D01*
X32852902Y-67849500D01*
X32852901Y-67849500D01*
X32561444Y-67889560D01*
X32561439Y-67889561D01*
X32278157Y-67968933D01*
X32008323Y-68086138D01*
X31756949Y-68239002D01*
X31528748Y-68424658D01*
X31528737Y-68424668D01*
X31327939Y-68639669D01*
X31327933Y-68639677D01*
X31158280Y-68880019D01*
X31158276Y-68880027D01*
X31022932Y-69141228D01*
X31022928Y-69141237D01*
X30924405Y-69418453D01*
X30864551Y-69706487D01*
X30844475Y-70000000D01*
X30500545Y-70000000D01*
X30500500Y-69998512D01*
X30500500Y-64665322D01*
X30799500Y-64665322D01*
X30799500Y-66414677D01*
X30814033Y-66487739D01*
X30869398Y-66570601D01*
X30952260Y-66625966D01*
X31025326Y-66640500D01*
X32774674Y-66640500D01*
X32847740Y-66625966D01*
X32930601Y-66570601D01*
X32985966Y-66487740D01*
X33000500Y-66414674D01*
X33000500Y-65000000D01*
X75894785Y-65000000D01*
X75913602Y-65203079D01*
X75913603Y-65203085D01*
X75969417Y-65399248D01*
X75969420Y-65399255D01*
X76060325Y-65581818D01*
X76060328Y-65581822D01*
X76183233Y-65744576D01*
X76183236Y-65744579D01*
X76333954Y-65881977D01*
X76333955Y-65881978D01*
X76333959Y-65881981D01*
X76507363Y-65989348D01*
X76697544Y-66063024D01*
X76898024Y-66100500D01*
X76898026Y-66100500D01*
X77101974Y-66100500D01*
X77101976Y-66100500D01*
X77302456Y-66063024D01*
X77492637Y-65989348D01*
X77666041Y-65881981D01*
X77816764Y-65744579D01*
X77939673Y-65581821D01*
X78030582Y-65399250D01*
X78086397Y-65203083D01*
X78105215Y-65000000D01*
X78086397Y-64796917D01*
X78030582Y-64600750D01*
X77939673Y-64418179D01*
X77816764Y-64255421D01*
X77816763Y-64255420D01*
X77666045Y-64118022D01*
X77666042Y-64118020D01*
X77666041Y-64118019D01*
X77492637Y-64010652D01*
X77492634Y-64010651D01*
X77492633Y-64010650D01*
X77302462Y-63936978D01*
X77302460Y-63936977D01*
X77302456Y-63936976D01*
X77101976Y-63899500D01*
X76898024Y-63899500D01*
X76697544Y-63936976D01*
X76697540Y-63936977D01*
X76697537Y-63936978D01*
X76507366Y-64010650D01*
X76333954Y-64118022D01*
X76183236Y-64255420D01*
X76183233Y-64255423D01*
X76060328Y-64418177D01*
X76060325Y-64418181D01*
X75969420Y-64600744D01*
X75969417Y-64600751D01*
X75913603Y-64796914D01*
X75913602Y-64796920D01*
X75894785Y-65000000D01*
X33000500Y-65000000D01*
X33000500Y-64665326D01*
X32985966Y-64592260D01*
X32930601Y-64509398D01*
X32847739Y-64454033D01*
X32774677Y-64439500D01*
X32774674Y-64439500D01*
X31025326Y-64439500D01*
X31025322Y-64439500D01*
X30952260Y-64454033D01*
X30869398Y-64509398D01*
X30814033Y-64592260D01*
X30799500Y-64665322D01*
X30500500Y-64665322D01*
X30500500Y-63000000D01*
X30794785Y-63000000D01*
X30813602Y-63203079D01*
X30813603Y-63203085D01*
X30869417Y-63399248D01*
X30869420Y-63399255D01*
X30960325Y-63581818D01*
X30960328Y-63581822D01*
X31083233Y-63744576D01*
X31083236Y-63744579D01*
X31233954Y-63881977D01*
X31233955Y-63881978D01*
X31233959Y-63881981D01*
X31407363Y-63989348D01*
X31597544Y-64063024D01*
X31798024Y-64100500D01*
X31798026Y-64100500D01*
X32001974Y-64100500D01*
X32001976Y-64100500D01*
X32202456Y-64063024D01*
X32392637Y-63989348D01*
X32566041Y-63881981D01*
X32716764Y-63744579D01*
X32839673Y-63581821D01*
X32930582Y-63399250D01*
X32986397Y-63203083D01*
X33005215Y-63000000D01*
X32986397Y-62796917D01*
X32930582Y-62600750D01*
X32860497Y-62460000D01*
X75894785Y-62460000D01*
X75913602Y-62663079D01*
X75913603Y-62663085D01*
X75969417Y-62859248D01*
X75969420Y-62859255D01*
X76060325Y-63041818D01*
X76060328Y-63041822D01*
X76183233Y-63204576D01*
X76183236Y-63204579D01*
X76333954Y-63341977D01*
X76333955Y-63341978D01*
X76333959Y-63341981D01*
X76507363Y-63449348D01*
X76697544Y-63523024D01*
X76898024Y-63560500D01*
X76898026Y-63560500D01*
X77101974Y-63560500D01*
X77101976Y-63560500D01*
X77302456Y-63523024D01*
X77492637Y-63449348D01*
X77666041Y-63341981D01*
X77816764Y-63204579D01*
X77939673Y-63041821D01*
X78030582Y-62859250D01*
X78086397Y-62663083D01*
X78105215Y-62460000D01*
X78086397Y-62256917D01*
X78030582Y-62060750D01*
X77939673Y-61878179D01*
X77816764Y-61715421D01*
X77816763Y-61715420D01*
X77666045Y-61578022D01*
X77666042Y-61578020D01*
X77666041Y-61578019D01*
X77492637Y-61470652D01*
X77492634Y-61470651D01*
X77492633Y-61470650D01*
X77302462Y-61396978D01*
X77302460Y-61396977D01*
X77302456Y-61396976D01*
X77101976Y-61359500D01*
X76898024Y-61359500D01*
X76697544Y-61396976D01*
X76697540Y-61396977D01*
X76697537Y-61396978D01*
X76507366Y-61470650D01*
X76333954Y-61578022D01*
X76183236Y-61715420D01*
X76183233Y-61715423D01*
X76060328Y-61878177D01*
X76060325Y-61878181D01*
X75969420Y-62060744D01*
X75969417Y-62060751D01*
X75913603Y-62256914D01*
X75913602Y-62256920D01*
X75894785Y-62460000D01*
X32860497Y-62460000D01*
X32839673Y-62418179D01*
X32717894Y-62256917D01*
X32716766Y-62255423D01*
X32716763Y-62255420D01*
X32566045Y-62118022D01*
X32566042Y-62118020D01*
X32566041Y-62118019D01*
X32392637Y-62010652D01*
X32392634Y-62010651D01*
X32392633Y-62010650D01*
X32202462Y-61936978D01*
X32202460Y-61936977D01*
X32202456Y-61936976D01*
X32001976Y-61899500D01*
X31798024Y-61899500D01*
X31597544Y-61936976D01*
X31597540Y-61936977D01*
X31597537Y-61936978D01*
X31407366Y-62010650D01*
X31233954Y-62118022D01*
X31083236Y-62255420D01*
X31083233Y-62255423D01*
X30960328Y-62418177D01*
X30960325Y-62418181D01*
X30869420Y-62600744D01*
X30869417Y-62600751D01*
X30813603Y-62796914D01*
X30813602Y-62796920D01*
X30794785Y-63000000D01*
X30500500Y-63000000D01*
X30500500Y-60460001D01*
X30794785Y-60460001D01*
X30813602Y-60663080D01*
X30813603Y-60663086D01*
X30869417Y-60859249D01*
X30869420Y-60859256D01*
X30960325Y-61041819D01*
X30960328Y-61041823D01*
X31083233Y-61204577D01*
X31083236Y-61204580D01*
X31233954Y-61341978D01*
X31233955Y-61341979D01*
X31233959Y-61341982D01*
X31407363Y-61449349D01*
X31597544Y-61523025D01*
X31798024Y-61560501D01*
X31798026Y-61560501D01*
X32001974Y-61560501D01*
X32001976Y-61560501D01*
X32202456Y-61523025D01*
X32392637Y-61449349D01*
X32566041Y-61341982D01*
X32716764Y-61204580D01*
X32839673Y-61041822D01*
X32930582Y-60859251D01*
X32986397Y-60663084D01*
X33005215Y-60460001D01*
X32986397Y-60256918D01*
X32930582Y-60060751D01*
X32839673Y-59878180D01*
X32716764Y-59715422D01*
X32716763Y-59715421D01*
X32566045Y-59578023D01*
X32566042Y-59578021D01*
X32566041Y-59578020D01*
X32392637Y-59470653D01*
X32392634Y-59470652D01*
X32392633Y-59470651D01*
X32202462Y-59396979D01*
X32202460Y-59396978D01*
X32202456Y-59396977D01*
X32001976Y-59359501D01*
X31798024Y-59359501D01*
X31597544Y-59396977D01*
X31597540Y-59396978D01*
X31597537Y-59396979D01*
X31407366Y-59470651D01*
X31233954Y-59578023D01*
X31083236Y-59715421D01*
X31083233Y-59715424D01*
X30960328Y-59878178D01*
X30960325Y-59878182D01*
X30869420Y-60060745D01*
X30869417Y-60060752D01*
X30813603Y-60256915D01*
X30813602Y-60256921D01*
X30794785Y-60460001D01*
X30500500Y-60460001D01*
X30500500Y-59045322D01*
X75899500Y-59045322D01*
X75899500Y-60794677D01*
X75914033Y-60867739D01*
X75969398Y-60950601D01*
X76052260Y-61005966D01*
X76125326Y-61020500D01*
X77874674Y-61020500D01*
X77947740Y-61005966D01*
X78030601Y-60950601D01*
X78085966Y-60867740D01*
X78100500Y-60794674D01*
X78100500Y-59045326D01*
X78085966Y-58972260D01*
X78043931Y-58909349D01*
X78030601Y-58889398D01*
X77947739Y-58834033D01*
X77874677Y-58819500D01*
X77874674Y-58819500D01*
X76125326Y-58819500D01*
X76125322Y-58819500D01*
X76052260Y-58834033D01*
X75969398Y-58889398D01*
X75914033Y-58972260D01*
X75899500Y-59045322D01*
X30500500Y-59045322D01*
X30500500Y-57920000D01*
X30794785Y-57920000D01*
X30813602Y-58123079D01*
X30813603Y-58123085D01*
X30869417Y-58319248D01*
X30869420Y-58319255D01*
X30960325Y-58501818D01*
X30960328Y-58501822D01*
X31083233Y-58664576D01*
X31083236Y-58664579D01*
X31233954Y-58801977D01*
X31233955Y-58801978D01*
X31233959Y-58801981D01*
X31407363Y-58909348D01*
X31597544Y-58983024D01*
X31798024Y-59020500D01*
X31798026Y-59020500D01*
X32001974Y-59020500D01*
X32001976Y-59020500D01*
X32202456Y-58983024D01*
X32392637Y-58909348D01*
X32566041Y-58801981D01*
X32716764Y-58664579D01*
X32839673Y-58501821D01*
X32930582Y-58319250D01*
X32986397Y-58123083D01*
X33005215Y-57920000D01*
X32986397Y-57716917D01*
X32930582Y-57520750D01*
X32839673Y-57338179D01*
X32716764Y-57175421D01*
X32716763Y-57175420D01*
X32566045Y-57038022D01*
X32566042Y-57038020D01*
X32566041Y-57038019D01*
X32392637Y-56930652D01*
X32392634Y-56930651D01*
X32392633Y-56930650D01*
X32202462Y-56856978D01*
X32202460Y-56856977D01*
X32202456Y-56856976D01*
X32001976Y-56819500D01*
X31798024Y-56819500D01*
X31597544Y-56856976D01*
X31597540Y-56856977D01*
X31597537Y-56856978D01*
X31407366Y-56930650D01*
X31233954Y-57038022D01*
X31083236Y-57175420D01*
X31083233Y-57175423D01*
X30960328Y-57338177D01*
X30960325Y-57338181D01*
X30869420Y-57520744D01*
X30869417Y-57520751D01*
X30813603Y-57716914D01*
X30813602Y-57716920D01*
X30794785Y-57920000D01*
X30500500Y-57920000D01*
X30500500Y-56000000D01*
X61444750Y-56000000D01*
X61463669Y-56143708D01*
X61519136Y-56277620D01*
X61519139Y-56277625D01*
X61607379Y-56392621D01*
X61722375Y-56480861D01*
X61722377Y-56480861D01*
X61722379Y-56480863D01*
X61856291Y-56536330D01*
X62000000Y-56555250D01*
X62143709Y-56536330D01*
X62277625Y-56480861D01*
X62392621Y-56392621D01*
X62480861Y-56277625D01*
X62536330Y-56143709D01*
X62555250Y-56000000D01*
X62536330Y-55856291D01*
X62480861Y-55722375D01*
X62392621Y-55607379D01*
X62277625Y-55519139D01*
X62277620Y-55519136D01*
X62143708Y-55463669D01*
X62000000Y-55444750D01*
X61856291Y-55463669D01*
X61722379Y-55519136D01*
X61722374Y-55519139D01*
X61607379Y-55607378D01*
X61607378Y-55607379D01*
X61519139Y-55722374D01*
X61519136Y-55722379D01*
X61463669Y-55856291D01*
X61444750Y-56000000D01*
X30500500Y-56000000D01*
X30500500Y-54000000D01*
X68444750Y-54000000D01*
X68463669Y-54143708D01*
X68519136Y-54277620D01*
X68519139Y-54277625D01*
X68607379Y-54392621D01*
X68722375Y-54480861D01*
X68722377Y-54480861D01*
X68722379Y-54480863D01*
X68856291Y-54536330D01*
X69000000Y-54555250D01*
X69143709Y-54536330D01*
X69277625Y-54480861D01*
X69392621Y-54392621D01*
X69480861Y-54277625D01*
X69536330Y-54143709D01*
X69555250Y-54000000D01*
X69536330Y-53856291D01*
X69480861Y-53722375D01*
X69392621Y-53607379D01*
X69277625Y-53519139D01*
X69277620Y-53519136D01*
X69231421Y-53500000D01*
X72694750Y-53500000D01*
X72713669Y-53643708D01*
X72769136Y-53777620D01*
X72769139Y-53777625D01*
X72857379Y-53892621D01*
X72972375Y-53980861D01*
X72972377Y-53980861D01*
X72972379Y-53980863D01*
X73018581Y-54000000D01*
X73106291Y-54036330D01*
X73250000Y-54055250D01*
X73393709Y-54036330D01*
X73527625Y-53980861D01*
X73642621Y-53892621D01*
X73730861Y-53777625D01*
X73786330Y-53643709D01*
X73805250Y-53500000D01*
X73786330Y-53356291D01*
X73730861Y-53222375D01*
X73642621Y-53107379D01*
X73527625Y-53019139D01*
X73527620Y-53019136D01*
X73393708Y-52963669D01*
X73250000Y-52944750D01*
X73106291Y-52963669D01*
X72972379Y-53019136D01*
X72972374Y-53019139D01*
X72857379Y-53107378D01*
X72857378Y-53107379D01*
X72769139Y-53222374D01*
X72769136Y-53222379D01*
X72713669Y-53356291D01*
X72694750Y-53500000D01*
X69231421Y-53500000D01*
X69143708Y-53463669D01*
X69000000Y-53444750D01*
X68856291Y-53463669D01*
X68722379Y-53519136D01*
X68722374Y-53519139D01*
X68607379Y-53607378D01*
X68607378Y-53607379D01*
X68519139Y-53722374D01*
X68519136Y-53722379D01*
X68463669Y-53856291D01*
X68444750Y-54000000D01*
X30500500Y-54000000D01*
X30500500Y-53000000D01*
X52694750Y-53000000D01*
X52713669Y-53143708D01*
X52769136Y-53277620D01*
X52769139Y-53277625D01*
X52857379Y-53392621D01*
X52972375Y-53480861D01*
X52972377Y-53480861D01*
X52972379Y-53480863D01*
X53106291Y-53536330D01*
X53250000Y-53555250D01*
X53393709Y-53536330D01*
X53527625Y-53480861D01*
X53642621Y-53392621D01*
X53730861Y-53277625D01*
X53786330Y-53143709D01*
X53805250Y-53000000D01*
X53786330Y-52856291D01*
X53730861Y-52722375D01*
X53642621Y-52607379D01*
X53527625Y-52519139D01*
X53527620Y-52519136D01*
X53393708Y-52463669D01*
X53250000Y-52444750D01*
X53106291Y-52463669D01*
X52972379Y-52519136D01*
X52972374Y-52519139D01*
X52857379Y-52607378D01*
X52857378Y-52607379D01*
X52769139Y-52722374D01*
X52769136Y-52722379D01*
X52713669Y-52856291D01*
X52694750Y-53000000D01*
X30500500Y-53000000D01*
X30500500Y-50106078D01*
X31549500Y-50106078D01*
X31549500Y-50253921D01*
X31578340Y-50398906D01*
X31578342Y-50398915D01*
X31629483Y-50522379D01*
X31634916Y-50535495D01*
X31717049Y-50658416D01*
X31821584Y-50762951D01*
X31944505Y-50845084D01*
X31974188Y-50857379D01*
X32081084Y-50901657D01*
X32081085Y-50901657D01*
X32081087Y-50901658D01*
X32226082Y-50930500D01*
X33173918Y-50930500D01*
X33318913Y-50901658D01*
X33455495Y-50845084D01*
X33578416Y-50762951D01*
X33682951Y-50658416D01*
X33765084Y-50535495D01*
X33821658Y-50398913D01*
X33850500Y-50253918D01*
X33850500Y-50106082D01*
X33850499Y-50106078D01*
X35579500Y-50106078D01*
X35579500Y-50253921D01*
X35608340Y-50398906D01*
X35608342Y-50398915D01*
X35659483Y-50522379D01*
X35664916Y-50535495D01*
X35747049Y-50658416D01*
X35851584Y-50762951D01*
X35974505Y-50845084D01*
X36004188Y-50857379D01*
X36111084Y-50901657D01*
X36111085Y-50901657D01*
X36111087Y-50901658D01*
X36256082Y-50930500D01*
X37503918Y-50930500D01*
X37648913Y-50901658D01*
X37785495Y-50845084D01*
X37852968Y-50800000D01*
X62944750Y-50800000D01*
X62963669Y-50943708D01*
X63019136Y-51077620D01*
X63019139Y-51077625D01*
X63107379Y-51192621D01*
X63222375Y-51280861D01*
X63222377Y-51280861D01*
X63222379Y-51280863D01*
X63356291Y-51336330D01*
X63500000Y-51355250D01*
X63643709Y-51336330D01*
X63777625Y-51280861D01*
X63817844Y-51250000D01*
X71694750Y-51250000D01*
X71713669Y-51393708D01*
X71769136Y-51527620D01*
X71769139Y-51527625D01*
X71857379Y-51642621D01*
X71972375Y-51730861D01*
X71972377Y-51730861D01*
X71972379Y-51730863D01*
X72106291Y-51786330D01*
X72250000Y-51805250D01*
X72393709Y-51786330D01*
X72527625Y-51730861D01*
X72642621Y-51642621D01*
X72730861Y-51527625D01*
X72786330Y-51393709D01*
X72805250Y-51250000D01*
X72786330Y-51106291D01*
X72730861Y-50972375D01*
X72642621Y-50857379D01*
X72527625Y-50769139D01*
X72527620Y-50769136D01*
X72393708Y-50713669D01*
X72250000Y-50694750D01*
X72106291Y-50713669D01*
X71972379Y-50769136D01*
X71972374Y-50769139D01*
X71857379Y-50857378D01*
X71857378Y-50857379D01*
X71769139Y-50972374D01*
X71769136Y-50972379D01*
X71713669Y-51106291D01*
X71694750Y-51250000D01*
X63817844Y-51250000D01*
X63892621Y-51192621D01*
X63980861Y-51077625D01*
X64036330Y-50943709D01*
X64055250Y-50800000D01*
X64036330Y-50656291D01*
X63980863Y-50522379D01*
X63980860Y-50522374D01*
X63892621Y-50407379D01*
X63892620Y-50407378D01*
X63777625Y-50319139D01*
X63777620Y-50319136D01*
X63643708Y-50263669D01*
X63500000Y-50244750D01*
X63356291Y-50263669D01*
X63222379Y-50319136D01*
X63222374Y-50319139D01*
X63107379Y-50407378D01*
X63107378Y-50407379D01*
X63019139Y-50522374D01*
X63019136Y-50522379D01*
X62963669Y-50656291D01*
X62944750Y-50800000D01*
X37852968Y-50800000D01*
X37908416Y-50762951D01*
X38012951Y-50658416D01*
X38095084Y-50535495D01*
X38151658Y-50398913D01*
X38180500Y-50253918D01*
X38180500Y-50106082D01*
X38151658Y-49961087D01*
X38095084Y-49824505D01*
X38012951Y-49701584D01*
X37908416Y-49597049D01*
X37785495Y-49514916D01*
X37785492Y-49514914D01*
X37785491Y-49514914D01*
X37648915Y-49458342D01*
X37648906Y-49458340D01*
X37503921Y-49429500D01*
X37503918Y-49429500D01*
X36256082Y-49429500D01*
X36256078Y-49429500D01*
X36111093Y-49458340D01*
X36111084Y-49458342D01*
X35974508Y-49514914D01*
X35851584Y-49597048D01*
X35747048Y-49701584D01*
X35664914Y-49824508D01*
X35608342Y-49961084D01*
X35608340Y-49961093D01*
X35579500Y-50106078D01*
X33850499Y-50106078D01*
X33821658Y-49961087D01*
X33765084Y-49824505D01*
X33682951Y-49701584D01*
X33578416Y-49597049D01*
X33455495Y-49514916D01*
X33455492Y-49514914D01*
X33455491Y-49514914D01*
X33318915Y-49458342D01*
X33318906Y-49458340D01*
X33173921Y-49429500D01*
X33173918Y-49429500D01*
X32226082Y-49429500D01*
X32226078Y-49429500D01*
X32081093Y-49458340D01*
X32081084Y-49458342D01*
X31944508Y-49514914D01*
X31821584Y-49597048D01*
X31717048Y-49701584D01*
X31634914Y-49824508D01*
X31578342Y-49961084D01*
X31578340Y-49961093D01*
X31549500Y-50106078D01*
X30500500Y-50106078D01*
X30500500Y-48674230D01*
X35804500Y-48674230D01*
X35804500Y-48825769D01*
X35843718Y-48972133D01*
X35843719Y-48972137D01*
X35885042Y-49043709D01*
X35919485Y-49103365D01*
X36026635Y-49210515D01*
X36074666Y-49238246D01*
X36157862Y-49286280D01*
X36157864Y-49286280D01*
X36157865Y-49286281D01*
X36273303Y-49317212D01*
X36304230Y-49325499D01*
X36304231Y-49325500D01*
X36304234Y-49325500D01*
X36455769Y-49325500D01*
X36455769Y-49325499D01*
X36602135Y-49286281D01*
X36664975Y-49250000D01*
X49694750Y-49250000D01*
X49713669Y-49393708D01*
X49769136Y-49527620D01*
X49769139Y-49527625D01*
X49857379Y-49642621D01*
X49972375Y-49730861D01*
X49972377Y-49730861D01*
X49972379Y-49730863D01*
X50106291Y-49786330D01*
X50250000Y-49805250D01*
X50393709Y-49786330D01*
X50527625Y-49730861D01*
X50642621Y-49642621D01*
X50690672Y-49580000D01*
X66514750Y-49580000D01*
X66533669Y-49723708D01*
X66589136Y-49857620D01*
X66589139Y-49857625D01*
X66668528Y-49961087D01*
X66677379Y-49972621D01*
X66792375Y-50060861D01*
X66792377Y-50060861D01*
X66792379Y-50060863D01*
X66901540Y-50106078D01*
X66926291Y-50116330D01*
X67070000Y-50135250D01*
X67213709Y-50116330D01*
X67347625Y-50060861D01*
X67462621Y-49972621D01*
X67550861Y-49857625D01*
X67606330Y-49723709D01*
X67625250Y-49580000D01*
X67606330Y-49436291D01*
X67583371Y-49380863D01*
X67550863Y-49302379D01*
X67550860Y-49302374D01*
X67543375Y-49292620D01*
X67462621Y-49187379D01*
X67449909Y-49177625D01*
X67347625Y-49099139D01*
X67347620Y-49099136D01*
X67213708Y-49043669D01*
X67070000Y-49024750D01*
X66926291Y-49043669D01*
X66792379Y-49099136D01*
X66792374Y-49099139D01*
X66677379Y-49187378D01*
X66677378Y-49187379D01*
X66589139Y-49302374D01*
X66589136Y-49302379D01*
X66533669Y-49436291D01*
X66514750Y-49580000D01*
X50690672Y-49580000D01*
X50730861Y-49527625D01*
X50786330Y-49393709D01*
X50805250Y-49250000D01*
X50786330Y-49106291D01*
X50730861Y-48972375D01*
X50675325Y-48900000D01*
X58944750Y-48900000D01*
X58963669Y-49043708D01*
X59019136Y-49177620D01*
X59019139Y-49177625D01*
X59074674Y-49250000D01*
X59107379Y-49292621D01*
X59222375Y-49380861D01*
X59222377Y-49380861D01*
X59222379Y-49380863D01*
X59253393Y-49393709D01*
X59356291Y-49436330D01*
X59500000Y-49455250D01*
X59643709Y-49436330D01*
X59777625Y-49380861D01*
X59892621Y-49292621D01*
X59980861Y-49177625D01*
X60036330Y-49043709D01*
X60055250Y-48900000D01*
X60036330Y-48756291D01*
X60010839Y-48694750D01*
X59980863Y-48622379D01*
X59980860Y-48622374D01*
X59892621Y-48507379D01*
X59892620Y-48507378D01*
X59777625Y-48419139D01*
X59777620Y-48419136D01*
X59643708Y-48363669D01*
X59500000Y-48344750D01*
X59356291Y-48363669D01*
X59222379Y-48419136D01*
X59222374Y-48419139D01*
X59107379Y-48507378D01*
X59107378Y-48507379D01*
X59019139Y-48622374D01*
X59019136Y-48622379D01*
X58963669Y-48756291D01*
X58944750Y-48900000D01*
X50675325Y-48900000D01*
X50642621Y-48857379D01*
X50601422Y-48825766D01*
X50527625Y-48769139D01*
X50527620Y-48769136D01*
X50393708Y-48713669D01*
X50250000Y-48694750D01*
X50106291Y-48713669D01*
X49972379Y-48769136D01*
X49972374Y-48769139D01*
X49857379Y-48857378D01*
X49857378Y-48857379D01*
X49769139Y-48972374D01*
X49769136Y-48972379D01*
X49713669Y-49106291D01*
X49694750Y-49250000D01*
X36664975Y-49250000D01*
X36733365Y-49210515D01*
X36840515Y-49103365D01*
X36916140Y-48972379D01*
X36916280Y-48972137D01*
X36916280Y-48972136D01*
X36916281Y-48972135D01*
X36955499Y-48825769D01*
X36955500Y-48825769D01*
X36955500Y-48674231D01*
X36955499Y-48674230D01*
X36916281Y-48527866D01*
X36916280Y-48527862D01*
X36840514Y-48396634D01*
X36733365Y-48289485D01*
X36602137Y-48213719D01*
X36602133Y-48213718D01*
X36455769Y-48174500D01*
X36455766Y-48174500D01*
X36304234Y-48174500D01*
X36304231Y-48174500D01*
X36157866Y-48213718D01*
X36157862Y-48213719D01*
X36026634Y-48289485D01*
X36026634Y-48289486D01*
X35919486Y-48396634D01*
X35919485Y-48396634D01*
X35843719Y-48527862D01*
X35843718Y-48527866D01*
X35804500Y-48674230D01*
X30500500Y-48674230D01*
X30500500Y-46500000D01*
X41344750Y-46500000D01*
X41363669Y-46643708D01*
X41419136Y-46777620D01*
X41419139Y-46777625D01*
X41507379Y-46892621D01*
X41622375Y-46980861D01*
X41622377Y-46980861D01*
X41622379Y-46980863D01*
X41756291Y-47036330D01*
X41900000Y-47055250D01*
X42043709Y-47036330D01*
X42177625Y-46980861D01*
X42292621Y-46892621D01*
X42380861Y-46777625D01*
X42436330Y-46643709D01*
X42455250Y-46500000D01*
X42436330Y-46356291D01*
X42380861Y-46222375D01*
X42292621Y-46107379D01*
X42177625Y-46019139D01*
X42177620Y-46019136D01*
X42043708Y-45963669D01*
X41900000Y-45944750D01*
X41756291Y-45963669D01*
X41622379Y-46019136D01*
X41622374Y-46019139D01*
X41507379Y-46107378D01*
X41507378Y-46107379D01*
X41419139Y-46222374D01*
X41419136Y-46222379D01*
X41363669Y-46356291D01*
X41344750Y-46500000D01*
X30500500Y-46500000D01*
X30500500Y-45500000D01*
X74944750Y-45500000D01*
X74963669Y-45643708D01*
X75019136Y-45777620D01*
X75019139Y-45777625D01*
X75107379Y-45892621D01*
X75222375Y-45980861D01*
X75222377Y-45980861D01*
X75222379Y-45980863D01*
X75356291Y-46036330D01*
X75500000Y-46055250D01*
X75643709Y-46036330D01*
X75777625Y-45980861D01*
X75892621Y-45892621D01*
X75980861Y-45777625D01*
X76036330Y-45643709D01*
X76055250Y-45500000D01*
X76036330Y-45356291D01*
X75980861Y-45222375D01*
X75892621Y-45107379D01*
X75777625Y-45019139D01*
X75777620Y-45019136D01*
X75643708Y-44963669D01*
X75500000Y-44944750D01*
X75356291Y-44963669D01*
X75222379Y-45019136D01*
X75222374Y-45019139D01*
X75107379Y-45107378D01*
X75107378Y-45107379D01*
X75019139Y-45222374D01*
X75019136Y-45222379D01*
X74963669Y-45356291D01*
X74944750Y-45500000D01*
X30500500Y-45500000D01*
X30500500Y-43960000D01*
X58672975Y-43960000D01*
X58691894Y-44103708D01*
X58747361Y-44237620D01*
X58747364Y-44237625D01*
X58835604Y-44352621D01*
X58950600Y-44440861D01*
X58950602Y-44440861D01*
X58950604Y-44440863D01*
X59084516Y-44496330D01*
X59228225Y-44515250D01*
X59371934Y-44496330D01*
X59505850Y-44440861D01*
X59620846Y-44352621D01*
X59709086Y-44237625D01*
X59764555Y-44103709D01*
X59783475Y-43960000D01*
X59764555Y-43816291D01*
X59709086Y-43682375D01*
X59620846Y-43567379D01*
X59505850Y-43479139D01*
X59505845Y-43479136D01*
X59371933Y-43423669D01*
X59228225Y-43404750D01*
X59084516Y-43423669D01*
X58950604Y-43479136D01*
X58950599Y-43479139D01*
X58835604Y-43567378D01*
X58835603Y-43567379D01*
X58747364Y-43682374D01*
X58747361Y-43682379D01*
X58691894Y-43816291D01*
X58672975Y-43960000D01*
X30500500Y-43960000D01*
X30500500Y-42894230D01*
X35804500Y-42894230D01*
X35804500Y-43045769D01*
X35843718Y-43192133D01*
X35843719Y-43192137D01*
X35919485Y-43323365D01*
X36026635Y-43430515D01*
X36074666Y-43458246D01*
X36157862Y-43506280D01*
X36157864Y-43506280D01*
X36157865Y-43506281D01*
X36273303Y-43537212D01*
X36304230Y-43545499D01*
X36304231Y-43545500D01*
X36304234Y-43545500D01*
X36455769Y-43545500D01*
X36455769Y-43545499D01*
X36602135Y-43506281D01*
X36733365Y-43430515D01*
X36840515Y-43323365D01*
X36916281Y-43192135D01*
X36955499Y-43045769D01*
X36955500Y-43045769D01*
X36955500Y-42894231D01*
X36955499Y-42894230D01*
X36916281Y-42747866D01*
X36916280Y-42747862D01*
X36856146Y-42643709D01*
X36840515Y-42616635D01*
X36733365Y-42509485D01*
X36716937Y-42500000D01*
X66694750Y-42500000D01*
X66713669Y-42643708D01*
X66769136Y-42777620D01*
X66769139Y-42777625D01*
X66857379Y-42892621D01*
X66972375Y-42980861D01*
X66972377Y-42980861D01*
X66972379Y-42980863D01*
X67044800Y-43010860D01*
X67106291Y-43036330D01*
X67250000Y-43055250D01*
X67393709Y-43036330D01*
X67527625Y-42980861D01*
X67642621Y-42892621D01*
X67730861Y-42777625D01*
X67786330Y-42643709D01*
X67801300Y-42530000D01*
X71459749Y-42530000D01*
X71478668Y-42673708D01*
X71534135Y-42807620D01*
X71534138Y-42807625D01*
X71622378Y-42922621D01*
X71737374Y-43010861D01*
X71737376Y-43010861D01*
X71737378Y-43010863D01*
X71844538Y-43055249D01*
X71871290Y-43066330D01*
X72014999Y-43085250D01*
X72158708Y-43066330D01*
X72292624Y-43010861D01*
X72407620Y-42922621D01*
X72495860Y-42807625D01*
X72551329Y-42673709D01*
X72570249Y-42530000D01*
X72551329Y-42386291D01*
X72511651Y-42290499D01*
X72495862Y-42252379D01*
X72495859Y-42252374D01*
X72479351Y-42230861D01*
X72407620Y-42137379D01*
X72368523Y-42107379D01*
X72292624Y-42049139D01*
X72292619Y-42049136D01*
X72158707Y-41993669D01*
X72014999Y-41974750D01*
X71871290Y-41993669D01*
X71737378Y-42049136D01*
X71737373Y-42049139D01*
X71622378Y-42137378D01*
X71622377Y-42137379D01*
X71534138Y-42252374D01*
X71534135Y-42252379D01*
X71478668Y-42386291D01*
X71459749Y-42530000D01*
X67801300Y-42530000D01*
X67805250Y-42500000D01*
X67786330Y-42356291D01*
X67730863Y-42222379D01*
X67730860Y-42222374D01*
X67669662Y-42142620D01*
X67642621Y-42107379D01*
X67527625Y-42019139D01*
X67527620Y-42019136D01*
X67393708Y-41963669D01*
X67250000Y-41944750D01*
X67106291Y-41963669D01*
X66972379Y-42019136D01*
X66972374Y-42019139D01*
X66857379Y-42107378D01*
X66857378Y-42107379D01*
X66769139Y-42222374D01*
X66769136Y-42222379D01*
X66713669Y-42356291D01*
X66694750Y-42500000D01*
X36716937Y-42500000D01*
X36602137Y-42433719D01*
X36602133Y-42433718D01*
X36455769Y-42394500D01*
X36455766Y-42394500D01*
X36304234Y-42394500D01*
X36304231Y-42394500D01*
X36157866Y-42433718D01*
X36157862Y-42433719D01*
X36026634Y-42509485D01*
X36026634Y-42509486D01*
X35919486Y-42616634D01*
X35919485Y-42616634D01*
X35843719Y-42747862D01*
X35843718Y-42747866D01*
X35804500Y-42894230D01*
X30500500Y-42894230D01*
X30500500Y-41466078D01*
X31549500Y-41466078D01*
X31549500Y-41613921D01*
X31578340Y-41758906D01*
X31578342Y-41758915D01*
X31634176Y-41893709D01*
X31634916Y-41895495D01*
X31667827Y-41944750D01*
X31700513Y-41993669D01*
X31717049Y-42018416D01*
X31821584Y-42122951D01*
X31944505Y-42205084D01*
X31986247Y-42222374D01*
X32081084Y-42261657D01*
X32081085Y-42261657D01*
X32081087Y-42261658D01*
X32226082Y-42290500D01*
X33173918Y-42290500D01*
X33318913Y-42261658D01*
X33455495Y-42205084D01*
X33578416Y-42122951D01*
X33682951Y-42018416D01*
X33765084Y-41895495D01*
X33821658Y-41758913D01*
X33850500Y-41613918D01*
X33850500Y-41466082D01*
X33850499Y-41466078D01*
X35579500Y-41466078D01*
X35579500Y-41613921D01*
X35608340Y-41758906D01*
X35608342Y-41758915D01*
X35664176Y-41893709D01*
X35664916Y-41895495D01*
X35697827Y-41944750D01*
X35730513Y-41993669D01*
X35747049Y-42018416D01*
X35851584Y-42122951D01*
X35974505Y-42205084D01*
X36016247Y-42222374D01*
X36111084Y-42261657D01*
X36111085Y-42261657D01*
X36111087Y-42261658D01*
X36256082Y-42290500D01*
X37503918Y-42290500D01*
X37648913Y-42261658D01*
X37785495Y-42205084D01*
X37908416Y-42122951D01*
X38012951Y-42018416D01*
X38095084Y-41895495D01*
X38151658Y-41758913D01*
X38180500Y-41613918D01*
X38180500Y-41466082D01*
X38151658Y-41321087D01*
X38130140Y-41269139D01*
X38122213Y-41250000D01*
X42194750Y-41250000D01*
X42213669Y-41393708D01*
X42269136Y-41527620D01*
X42269139Y-41527625D01*
X42335356Y-41613921D01*
X42357379Y-41642621D01*
X42472375Y-41730861D01*
X42472377Y-41730861D01*
X42472379Y-41730863D01*
X42540104Y-41758915D01*
X42606291Y-41786330D01*
X42750000Y-41805250D01*
X42893709Y-41786330D01*
X42981419Y-41750000D01*
X49194750Y-41750000D01*
X49213669Y-41893708D01*
X49269136Y-42027620D01*
X49269139Y-42027625D01*
X49353356Y-42137379D01*
X49357379Y-42142621D01*
X49472375Y-42230861D01*
X49472377Y-42230861D01*
X49472379Y-42230863D01*
X49546729Y-42261659D01*
X49606291Y-42286330D01*
X49750000Y-42305250D01*
X49893709Y-42286330D01*
X50027625Y-42230861D01*
X50142621Y-42142621D01*
X50230861Y-42027625D01*
X50286330Y-41893709D01*
X50305250Y-41750000D01*
X50286330Y-41606291D01*
X50255087Y-41530863D01*
X50230863Y-41472379D01*
X50230860Y-41472374D01*
X50142621Y-41357379D01*
X50142620Y-41357378D01*
X50027625Y-41269139D01*
X50027620Y-41269136D01*
X49893708Y-41213669D01*
X49750000Y-41194750D01*
X49606291Y-41213669D01*
X49472379Y-41269136D01*
X49472374Y-41269139D01*
X49357379Y-41357378D01*
X49357378Y-41357379D01*
X49269139Y-41472374D01*
X49269136Y-41472379D01*
X49213669Y-41606291D01*
X49194750Y-41750000D01*
X42981419Y-41750000D01*
X43027625Y-41730861D01*
X43142621Y-41642621D01*
X43230861Y-41527625D01*
X43286330Y-41393709D01*
X43305250Y-41250000D01*
X43286330Y-41106291D01*
X43230861Y-40972375D01*
X43142621Y-40857379D01*
X43027625Y-40769139D01*
X43027620Y-40769136D01*
X42981421Y-40750000D01*
X64944750Y-40750000D01*
X64963669Y-40893708D01*
X65019136Y-41027620D01*
X65019139Y-41027625D01*
X65107379Y-41142621D01*
X65222375Y-41230861D01*
X65222377Y-41230861D01*
X65222379Y-41230863D01*
X65356291Y-41286330D01*
X65500000Y-41305250D01*
X65643709Y-41286330D01*
X65777625Y-41230861D01*
X65892621Y-41142621D01*
X65963692Y-41050000D01*
X67994750Y-41050000D01*
X68013669Y-41193708D01*
X68069136Y-41327620D01*
X68069139Y-41327625D01*
X68119846Y-41393708D01*
X68157379Y-41442621D01*
X68272375Y-41530861D01*
X68272377Y-41530861D01*
X68272379Y-41530863D01*
X68406291Y-41586330D01*
X68550000Y-41605250D01*
X68693709Y-41586330D01*
X68827625Y-41530861D01*
X68942621Y-41442621D01*
X69030861Y-41327625D01*
X69083724Y-41200000D01*
X70194750Y-41200000D01*
X70213669Y-41343708D01*
X70269136Y-41477620D01*
X70269139Y-41477625D01*
X70307505Y-41527625D01*
X70357379Y-41592621D01*
X70472375Y-41680861D01*
X70472377Y-41680861D01*
X70472379Y-41680863D01*
X70593085Y-41730860D01*
X70606291Y-41736330D01*
X70750000Y-41755250D01*
X70893709Y-41736330D01*
X71027625Y-41680861D01*
X71142621Y-41592621D01*
X71230861Y-41477625D01*
X71286330Y-41343709D01*
X71305250Y-41200000D01*
X71286330Y-41056291D01*
X71251573Y-40972379D01*
X71230863Y-40922379D01*
X71230860Y-40922374D01*
X71180987Y-40857379D01*
X71142621Y-40807379D01*
X71097008Y-40772379D01*
X71027625Y-40719139D01*
X71027620Y-40719136D01*
X70893708Y-40663669D01*
X70750000Y-40644750D01*
X70606291Y-40663669D01*
X70472379Y-40719136D01*
X70472374Y-40719139D01*
X70357379Y-40807378D01*
X70357378Y-40807379D01*
X70269139Y-40922374D01*
X70269136Y-40922379D01*
X70213669Y-41056291D01*
X70194750Y-41200000D01*
X69083724Y-41200000D01*
X69086330Y-41193709D01*
X69105250Y-41050000D01*
X69086330Y-40906291D01*
X69045360Y-40807378D01*
X69030863Y-40772379D01*
X69030860Y-40772374D01*
X69028375Y-40769136D01*
X68942621Y-40657379D01*
X68827625Y-40569139D01*
X68827620Y-40569136D01*
X68693708Y-40513669D01*
X68550000Y-40494750D01*
X68406291Y-40513669D01*
X68272379Y-40569136D01*
X68272374Y-40569139D01*
X68157379Y-40657378D01*
X68157378Y-40657379D01*
X68069139Y-40772374D01*
X68069136Y-40772379D01*
X68013669Y-40906291D01*
X67994750Y-41050000D01*
X65963692Y-41050000D01*
X65980861Y-41027625D01*
X66036330Y-40893709D01*
X66055250Y-40750000D01*
X66036330Y-40606291D01*
X65997966Y-40513670D01*
X65980863Y-40472379D01*
X65980860Y-40472374D01*
X65892621Y-40357379D01*
X65892620Y-40357378D01*
X65777625Y-40269139D01*
X65777620Y-40269136D01*
X65643708Y-40213669D01*
X65500000Y-40194750D01*
X65356291Y-40213669D01*
X65222379Y-40269136D01*
X65222374Y-40269139D01*
X65107379Y-40357378D01*
X65107378Y-40357379D01*
X65019139Y-40472374D01*
X65019136Y-40472379D01*
X64963669Y-40606291D01*
X64944750Y-40750000D01*
X42981421Y-40750000D01*
X42893708Y-40713669D01*
X42750000Y-40694750D01*
X42606291Y-40713669D01*
X42472379Y-40769136D01*
X42472374Y-40769139D01*
X42357379Y-40857378D01*
X42357378Y-40857379D01*
X42269139Y-40972374D01*
X42269136Y-40972379D01*
X42213669Y-41106291D01*
X42194750Y-41250000D01*
X38122213Y-41250000D01*
X38114285Y-41230860D01*
X38095084Y-41184505D01*
X38012951Y-41061584D01*
X37908416Y-40957049D01*
X37785495Y-40874916D01*
X37785492Y-40874914D01*
X37785491Y-40874914D01*
X37648915Y-40818342D01*
X37648906Y-40818340D01*
X37503921Y-40789500D01*
X37503918Y-40789500D01*
X36256082Y-40789500D01*
X36256078Y-40789500D01*
X36111093Y-40818340D01*
X36111084Y-40818342D01*
X35974508Y-40874914D01*
X35851584Y-40957048D01*
X35747048Y-41061584D01*
X35664914Y-41184508D01*
X35608342Y-41321084D01*
X35608340Y-41321093D01*
X35579500Y-41466078D01*
X33850499Y-41466078D01*
X33821658Y-41321087D01*
X33800140Y-41269139D01*
X33784285Y-41230860D01*
X33765084Y-41184505D01*
X33682951Y-41061584D01*
X33578416Y-40957049D01*
X33455495Y-40874916D01*
X33455492Y-40874914D01*
X33455491Y-40874914D01*
X33318915Y-40818342D01*
X33318906Y-40818340D01*
X33173921Y-40789500D01*
X33173918Y-40789500D01*
X32226082Y-40789500D01*
X32226078Y-40789500D01*
X32081093Y-40818340D01*
X32081084Y-40818342D01*
X31944508Y-40874914D01*
X31821584Y-40957048D01*
X31717048Y-41061584D01*
X31634914Y-41184508D01*
X31578342Y-41321084D01*
X31578340Y-41321093D01*
X31549500Y-41466078D01*
X30500500Y-41466078D01*
X30500500Y-39775000D01*
X71894750Y-39775000D01*
X71913669Y-39918708D01*
X71969136Y-40052620D01*
X71969139Y-40052625D01*
X72057379Y-40167621D01*
X72172375Y-40255861D01*
X72172377Y-40255861D01*
X72172379Y-40255863D01*
X72204424Y-40269136D01*
X72306291Y-40311330D01*
X72450000Y-40330250D01*
X72593709Y-40311330D01*
X72727625Y-40255861D01*
X72842621Y-40167621D01*
X72930861Y-40052625D01*
X72986330Y-39918709D01*
X73005250Y-39775000D01*
X72986330Y-39631291D01*
X72930861Y-39497375D01*
X72842621Y-39382379D01*
X72727625Y-39294139D01*
X72727620Y-39294136D01*
X72593708Y-39238669D01*
X72450000Y-39219750D01*
X72306291Y-39238669D01*
X72172379Y-39294136D01*
X72172374Y-39294139D01*
X72057379Y-39382378D01*
X72057378Y-39382379D01*
X71969139Y-39497374D01*
X71969136Y-39497379D01*
X71913669Y-39631291D01*
X71894750Y-39775000D01*
X30500500Y-39775000D01*
X30500500Y-38700000D01*
X56944750Y-38700000D01*
X56963669Y-38843708D01*
X57019136Y-38977620D01*
X57019139Y-38977625D01*
X57107379Y-39092621D01*
X57222375Y-39180861D01*
X57222377Y-39180861D01*
X57222379Y-39180863D01*
X57356291Y-39236330D01*
X57500000Y-39255250D01*
X57643709Y-39236330D01*
X57777625Y-39180861D01*
X57892621Y-39092621D01*
X57980861Y-38977625D01*
X58036330Y-38843709D01*
X58055250Y-38700000D01*
X58036330Y-38556291D01*
X58005087Y-38480863D01*
X57980863Y-38422379D01*
X57980860Y-38422374D01*
X57892621Y-38307379D01*
X57892620Y-38307378D01*
X57777625Y-38219139D01*
X57777620Y-38219136D01*
X57643708Y-38163669D01*
X57500000Y-38144750D01*
X57356291Y-38163669D01*
X57222379Y-38219136D01*
X57222374Y-38219139D01*
X57107379Y-38307378D01*
X57107378Y-38307379D01*
X57019139Y-38422374D01*
X57019136Y-38422379D01*
X56963669Y-38556291D01*
X56944750Y-38700000D01*
X30500500Y-38700000D01*
X30500500Y-38000000D01*
X40944750Y-38000000D01*
X40963669Y-38143708D01*
X41019136Y-38277620D01*
X41019139Y-38277625D01*
X41107379Y-38392621D01*
X41222375Y-38480861D01*
X41222377Y-38480861D01*
X41222379Y-38480863D01*
X41305833Y-38515430D01*
X41356291Y-38536330D01*
X41500000Y-38555250D01*
X41643709Y-38536330D01*
X41777625Y-38480861D01*
X41892621Y-38392621D01*
X41980861Y-38277625D01*
X42036330Y-38143709D01*
X42039082Y-38122809D01*
X46160753Y-38122809D01*
X46179672Y-38266517D01*
X46235139Y-38400429D01*
X46235142Y-38400434D01*
X46323382Y-38515430D01*
X46438378Y-38603670D01*
X46438380Y-38603670D01*
X46438382Y-38603672D01*
X46572294Y-38659139D01*
X46716003Y-38678059D01*
X46859712Y-38659139D01*
X46993628Y-38603670D01*
X47108624Y-38515430D01*
X47196864Y-38400434D01*
X47252333Y-38266518D01*
X47271253Y-38122809D01*
X47252333Y-37979100D01*
X47196864Y-37845184D01*
X47108624Y-37730188D01*
X46993628Y-37641948D01*
X46993623Y-37641945D01*
X46859711Y-37586478D01*
X46716003Y-37567559D01*
X46572294Y-37586478D01*
X46438382Y-37641945D01*
X46438377Y-37641948D01*
X46323382Y-37730187D01*
X46323381Y-37730188D01*
X46235142Y-37845183D01*
X46235139Y-37845188D01*
X46179672Y-37979100D01*
X46160753Y-38122809D01*
X42039082Y-38122809D01*
X42055250Y-38000000D01*
X42036330Y-37856291D01*
X42031729Y-37845183D01*
X41980863Y-37722379D01*
X41980860Y-37722374D01*
X41919144Y-37641945D01*
X41892621Y-37607379D01*
X41865382Y-37586478D01*
X41777625Y-37519139D01*
X41777620Y-37519136D01*
X41643708Y-37463669D01*
X41500000Y-37444750D01*
X41356291Y-37463669D01*
X41222379Y-37519136D01*
X41222374Y-37519139D01*
X41107379Y-37607378D01*
X41107378Y-37607379D01*
X41019139Y-37722374D01*
X41019136Y-37722379D01*
X40963669Y-37856291D01*
X40944750Y-38000000D01*
X30500500Y-38000000D01*
X30500500Y-37100000D01*
X56544750Y-37100000D01*
X56563669Y-37243708D01*
X56619136Y-37377620D01*
X56619139Y-37377625D01*
X56707379Y-37492621D01*
X56822375Y-37580861D01*
X56822377Y-37580861D01*
X56822379Y-37580863D01*
X56886396Y-37607379D01*
X56956291Y-37636330D01*
X57100000Y-37655250D01*
X57243709Y-37636330D01*
X57377625Y-37580861D01*
X57492621Y-37492621D01*
X57580861Y-37377625D01*
X57636330Y-37243709D01*
X57655250Y-37100000D01*
X57636330Y-36956291D01*
X57580861Y-36822375D01*
X57563692Y-36800000D01*
X62244750Y-36800000D01*
X62263669Y-36943708D01*
X62319136Y-37077620D01*
X62319139Y-37077625D01*
X62370512Y-37144576D01*
X62407379Y-37192621D01*
X62522375Y-37280861D01*
X62522377Y-37280861D01*
X62522379Y-37280863D01*
X62656291Y-37336330D01*
X62800000Y-37355250D01*
X62943709Y-37336330D01*
X63077625Y-37280861D01*
X63192621Y-37192621D01*
X63280861Y-37077625D01*
X63336330Y-36943709D01*
X63355250Y-36800000D01*
X63336330Y-36656291D01*
X63297966Y-36563670D01*
X63280863Y-36522379D01*
X63280860Y-36522374D01*
X63192621Y-36407379D01*
X63192620Y-36407378D01*
X63183005Y-36400000D01*
X75894785Y-36400000D01*
X75913602Y-36603079D01*
X75913603Y-36603085D01*
X75969417Y-36799248D01*
X75969420Y-36799255D01*
X76060325Y-36981818D01*
X76060328Y-36981822D01*
X76183233Y-37144576D01*
X76183236Y-37144579D01*
X76333954Y-37281977D01*
X76333955Y-37281978D01*
X76333959Y-37281981D01*
X76507363Y-37389348D01*
X76697544Y-37463024D01*
X76898024Y-37500500D01*
X76898026Y-37500500D01*
X77101974Y-37500500D01*
X77101976Y-37500500D01*
X77302456Y-37463024D01*
X77492637Y-37389348D01*
X77666041Y-37281981D01*
X77816764Y-37144579D01*
X77939673Y-36981821D01*
X78030582Y-36799250D01*
X78086397Y-36603083D01*
X78105215Y-36400000D01*
X78086397Y-36196917D01*
X78030582Y-36000750D01*
X77939673Y-35818179D01*
X77816764Y-35655421D01*
X77694221Y-35543708D01*
X77666045Y-35518022D01*
X77666042Y-35518020D01*
X77666041Y-35518019D01*
X77492637Y-35410652D01*
X77492634Y-35410651D01*
X77492633Y-35410650D01*
X77302462Y-35336978D01*
X77302460Y-35336977D01*
X77302456Y-35336976D01*
X77101976Y-35299500D01*
X76898024Y-35299500D01*
X76697544Y-35336976D01*
X76697540Y-35336977D01*
X76697537Y-35336978D01*
X76507366Y-35410650D01*
X76333954Y-35518022D01*
X76183236Y-35655420D01*
X76183233Y-35655423D01*
X76060328Y-35818177D01*
X76060325Y-35818181D01*
X75969420Y-36000744D01*
X75969417Y-36000751D01*
X75913603Y-36196914D01*
X75913602Y-36196920D01*
X75894785Y-36400000D01*
X63183005Y-36400000D01*
X63077625Y-36319139D01*
X63077620Y-36319136D01*
X62943708Y-36263669D01*
X62800000Y-36244750D01*
X62656291Y-36263669D01*
X62522379Y-36319136D01*
X62522374Y-36319139D01*
X62407379Y-36407378D01*
X62407378Y-36407379D01*
X62319139Y-36522374D01*
X62319136Y-36522379D01*
X62263669Y-36656291D01*
X62244750Y-36800000D01*
X57563692Y-36800000D01*
X57492621Y-36707379D01*
X57377625Y-36619139D01*
X57377620Y-36619136D01*
X57243708Y-36563669D01*
X57100000Y-36544750D01*
X56956291Y-36563669D01*
X56822379Y-36619136D01*
X56822374Y-36619139D01*
X56707379Y-36707378D01*
X56707378Y-36707379D01*
X56619139Y-36822374D01*
X56619136Y-36822379D01*
X56563669Y-36956291D01*
X56544750Y-37100000D01*
X30500500Y-37100000D01*
X30500500Y-35400000D01*
X55944750Y-35400000D01*
X55963669Y-35543708D01*
X56019136Y-35677620D01*
X56019139Y-35677625D01*
X56107379Y-35792621D01*
X56222375Y-35880861D01*
X56222377Y-35880861D01*
X56222379Y-35880863D01*
X56356291Y-35936330D01*
X56500000Y-35955250D01*
X56643709Y-35936330D01*
X56777625Y-35880861D01*
X56892621Y-35792621D01*
X56980861Y-35677625D01*
X57036330Y-35543709D01*
X57055250Y-35400000D01*
X57036330Y-35256291D01*
X56980861Y-35122375D01*
X56892621Y-35007379D01*
X56777625Y-34919139D01*
X56777620Y-34919136D01*
X56643708Y-34863669D01*
X56500000Y-34844750D01*
X56356291Y-34863669D01*
X56222379Y-34919136D01*
X56222374Y-34919139D01*
X56107379Y-35007378D01*
X56107378Y-35007379D01*
X56019139Y-35122374D01*
X56019136Y-35122379D01*
X55963669Y-35256291D01*
X55944750Y-35400000D01*
X30500500Y-35400000D01*
X30500500Y-34750000D01*
X46694750Y-34750000D01*
X46713669Y-34893708D01*
X46769136Y-35027620D01*
X46769139Y-35027625D01*
X46841846Y-35122379D01*
X46857379Y-35142621D01*
X46972375Y-35230861D01*
X46972377Y-35230861D01*
X46972379Y-35230863D01*
X47033769Y-35256291D01*
X47106291Y-35286330D01*
X47250000Y-35305250D01*
X47393709Y-35286330D01*
X47527625Y-35230861D01*
X47642621Y-35142621D01*
X47730861Y-35027625D01*
X47786330Y-34893709D01*
X47805250Y-34750000D01*
X47786330Y-34606291D01*
X47730861Y-34472375D01*
X47642621Y-34357379D01*
X47527625Y-34269139D01*
X47527620Y-34269136D01*
X47393708Y-34213669D01*
X47250000Y-34194750D01*
X47106291Y-34213669D01*
X46972379Y-34269136D01*
X46972374Y-34269139D01*
X46857379Y-34357378D01*
X46857378Y-34357379D01*
X46769139Y-34472374D01*
X46769136Y-34472379D01*
X46713669Y-34606291D01*
X46694750Y-34750000D01*
X30500500Y-34750000D01*
X30500500Y-33895002D01*
X43919750Y-33895002D01*
X43938669Y-34038710D01*
X43994136Y-34172622D01*
X43994139Y-34172627D01*
X44068195Y-34269139D01*
X44082379Y-34287623D01*
X44197375Y-34375863D01*
X44197377Y-34375863D01*
X44197379Y-34375865D01*
X44331291Y-34431332D01*
X44475000Y-34450252D01*
X44618709Y-34431332D01*
X44752625Y-34375863D01*
X44867621Y-34287623D01*
X44955861Y-34172627D01*
X45011330Y-34038711D01*
X45030250Y-33895002D01*
X45025642Y-33860001D01*
X75894785Y-33860001D01*
X75913602Y-34063080D01*
X75913603Y-34063086D01*
X75969417Y-34259249D01*
X75969420Y-34259256D01*
X76060325Y-34441819D01*
X76060328Y-34441823D01*
X76183233Y-34604577D01*
X76183236Y-34604580D01*
X76333954Y-34741978D01*
X76333955Y-34741979D01*
X76333959Y-34741982D01*
X76507363Y-34849349D01*
X76697544Y-34923025D01*
X76898024Y-34960501D01*
X76898026Y-34960501D01*
X77101974Y-34960501D01*
X77101976Y-34960501D01*
X77302456Y-34923025D01*
X77492637Y-34849349D01*
X77666041Y-34741982D01*
X77816764Y-34604580D01*
X77939673Y-34441822D01*
X78030582Y-34259251D01*
X78086397Y-34063084D01*
X78105215Y-33860001D01*
X78086397Y-33656918D01*
X78030582Y-33460751D01*
X77939673Y-33278180D01*
X77816764Y-33115422D01*
X77816763Y-33115421D01*
X77666045Y-32978023D01*
X77666042Y-32978021D01*
X77666041Y-32978020D01*
X77492637Y-32870653D01*
X77492634Y-32870652D01*
X77492633Y-32870651D01*
X77302462Y-32796979D01*
X77302460Y-32796978D01*
X77302456Y-32796977D01*
X77101976Y-32759501D01*
X76898024Y-32759501D01*
X76697544Y-32796977D01*
X76697540Y-32796978D01*
X76697537Y-32796979D01*
X76507366Y-32870651D01*
X76333954Y-32978023D01*
X76183236Y-33115421D01*
X76183233Y-33115424D01*
X76060328Y-33278178D01*
X76060325Y-33278182D01*
X75969420Y-33460745D01*
X75969417Y-33460752D01*
X75913603Y-33656915D01*
X75913602Y-33656921D01*
X75894785Y-33860001D01*
X45025642Y-33860001D01*
X45011330Y-33751293D01*
X44955863Y-33617381D01*
X44955860Y-33617376D01*
X44867621Y-33502381D01*
X44867620Y-33502380D01*
X44752625Y-33414141D01*
X44752620Y-33414138D01*
X44618708Y-33358671D01*
X44475000Y-33339752D01*
X44331291Y-33358671D01*
X44197379Y-33414138D01*
X44197374Y-33414141D01*
X44082379Y-33502380D01*
X44082378Y-33502381D01*
X43994139Y-33617376D01*
X43994136Y-33617381D01*
X43938669Y-33751293D01*
X43919750Y-33895002D01*
X30500500Y-33895002D01*
X30500500Y-32000000D01*
X51194750Y-32000000D01*
X51213669Y-32143708D01*
X51269136Y-32277620D01*
X51269139Y-32277625D01*
X51325136Y-32350602D01*
X51357379Y-32392621D01*
X51472375Y-32480861D01*
X51472377Y-32480861D01*
X51472379Y-32480863D01*
X51606291Y-32536330D01*
X51750000Y-32555250D01*
X51893709Y-32536330D01*
X52027625Y-32480861D01*
X52142621Y-32392621D01*
X52230861Y-32277625D01*
X52286330Y-32143709D01*
X52305250Y-32000000D01*
X52286330Y-31856291D01*
X52230861Y-31722375D01*
X52142621Y-31607379D01*
X52027625Y-31519139D01*
X52027620Y-31519136D01*
X51893708Y-31463669D01*
X51750000Y-31444750D01*
X51606291Y-31463669D01*
X51472379Y-31519136D01*
X51472374Y-31519139D01*
X51357379Y-31607378D01*
X51357378Y-31607379D01*
X51269139Y-31722374D01*
X51269136Y-31722379D01*
X51213669Y-31856291D01*
X51194750Y-32000000D01*
X30500500Y-32000000D01*
X30500500Y-30400000D01*
X54044750Y-30400000D01*
X54063669Y-30543708D01*
X54119136Y-30677620D01*
X54119139Y-30677625D01*
X54207379Y-30792621D01*
X54322375Y-30880861D01*
X54322377Y-30880861D01*
X54322379Y-30880863D01*
X54456291Y-30936330D01*
X54600000Y-30955250D01*
X54743709Y-30936330D01*
X54877625Y-30880861D01*
X54992621Y-30792621D01*
X55080861Y-30677625D01*
X55136330Y-30543709D01*
X55155250Y-30400000D01*
X55136330Y-30256291D01*
X55089698Y-30143709D01*
X55080863Y-30122379D01*
X55080860Y-30122374D01*
X54992621Y-30007379D01*
X54992620Y-30007378D01*
X54983005Y-30000000D01*
X65444750Y-30000000D01*
X65463669Y-30143708D01*
X65519136Y-30277620D01*
X65519139Y-30277625D01*
X65607379Y-30392621D01*
X65722375Y-30480861D01*
X65722377Y-30480861D01*
X65722379Y-30480863D01*
X65856291Y-30536330D01*
X66000000Y-30555250D01*
X66143709Y-30536330D01*
X66277625Y-30480861D01*
X66392621Y-30392621D01*
X66461127Y-30303342D01*
X66493604Y-30284591D01*
X66529829Y-30294298D01*
X66538870Y-30303339D01*
X66607379Y-30392621D01*
X66722375Y-30480861D01*
X66722377Y-30480861D01*
X66722379Y-30480863D01*
X66856291Y-30536330D01*
X67000000Y-30555250D01*
X67143709Y-30536330D01*
X67277625Y-30480861D01*
X67392621Y-30392621D01*
X67461127Y-30303342D01*
X67493604Y-30284591D01*
X67529829Y-30294298D01*
X67538870Y-30303339D01*
X67607379Y-30392621D01*
X67722375Y-30480861D01*
X67722377Y-30480861D01*
X67722379Y-30480863D01*
X67856291Y-30536330D01*
X68000000Y-30555250D01*
X68143709Y-30536330D01*
X68277625Y-30480861D01*
X68323939Y-30445323D01*
X75899500Y-30445323D01*
X75899500Y-32194678D01*
X75914033Y-32267740D01*
X75969398Y-32350602D01*
X76032284Y-32392620D01*
X76052260Y-32405967D01*
X76125326Y-32420501D01*
X77874674Y-32420501D01*
X77947740Y-32405967D01*
X78030601Y-32350602D01*
X78085966Y-32267741D01*
X78100500Y-32194675D01*
X78100500Y-30445327D01*
X78085966Y-30372261D01*
X78030601Y-30289399D01*
X77947739Y-30234034D01*
X77874677Y-30219501D01*
X77874674Y-30219501D01*
X76125326Y-30219501D01*
X76125322Y-30219501D01*
X76052260Y-30234034D01*
X75969398Y-30289399D01*
X75914033Y-30372261D01*
X75899500Y-30445323D01*
X68323939Y-30445323D01*
X68392621Y-30392621D01*
X68480861Y-30277625D01*
X68536330Y-30143709D01*
X68555250Y-30000000D01*
X68536330Y-29856291D01*
X68480861Y-29722375D01*
X68392621Y-29607379D01*
X68277625Y-29519139D01*
X68277620Y-29519136D01*
X68143708Y-29463669D01*
X68000000Y-29444750D01*
X67856291Y-29463669D01*
X67722379Y-29519136D01*
X67722374Y-29519139D01*
X67607379Y-29607378D01*
X67607378Y-29607379D01*
X67538874Y-29696656D01*
X67506396Y-29715408D01*
X67470171Y-29705701D01*
X67461126Y-29696656D01*
X67392621Y-29607379D01*
X67392620Y-29607378D01*
X67277625Y-29519139D01*
X67277620Y-29519136D01*
X67143708Y-29463669D01*
X67000000Y-29444750D01*
X66856291Y-29463669D01*
X66722379Y-29519136D01*
X66722374Y-29519139D01*
X66607379Y-29607378D01*
X66607378Y-29607379D01*
X66538874Y-29696656D01*
X66506396Y-29715408D01*
X66470171Y-29705701D01*
X66461126Y-29696656D01*
X66392621Y-29607379D01*
X66392620Y-29607378D01*
X66277625Y-29519139D01*
X66277620Y-29519136D01*
X66143708Y-29463669D01*
X66000000Y-29444750D01*
X65856291Y-29463669D01*
X65722379Y-29519136D01*
X65722374Y-29519139D01*
X65607379Y-29607378D01*
X65607378Y-29607379D01*
X65519139Y-29722374D01*
X65519136Y-29722379D01*
X65463669Y-29856291D01*
X65444750Y-30000000D01*
X54983005Y-30000000D01*
X54877625Y-29919139D01*
X54877620Y-29919136D01*
X54743708Y-29863669D01*
X54600000Y-29844750D01*
X54456291Y-29863669D01*
X54322379Y-29919136D01*
X54322374Y-29919139D01*
X54207379Y-30007378D01*
X54207378Y-30007379D01*
X54119139Y-30122374D01*
X54119136Y-30122379D01*
X54063669Y-30256291D01*
X54044750Y-30400000D01*
X30500500Y-30400000D01*
X30500500Y-27001487D01*
X30500545Y-27000000D01*
X30844475Y-27000000D01*
X30864551Y-27293512D01*
X30924405Y-27581546D01*
X30924408Y-27581554D01*
X31022928Y-27858764D01*
X31022932Y-27858771D01*
X31158276Y-28119972D01*
X31158280Y-28119980D01*
X31243106Y-28240151D01*
X31327935Y-28360326D01*
X31528740Y-28575335D01*
X31756951Y-28760999D01*
X32008318Y-28913859D01*
X32278159Y-29031067D01*
X32561445Y-29110440D01*
X32812841Y-29144993D01*
X32852901Y-29150500D01*
X32852902Y-29150500D01*
X33147099Y-29150500D01*
X33182318Y-29145659D01*
X33438555Y-29110440D01*
X33721841Y-29031067D01*
X33991682Y-28913859D01*
X34243049Y-28760999D01*
X34471260Y-28575335D01*
X34672065Y-28360326D01*
X34841722Y-28119976D01*
X34977072Y-27858764D01*
X35075592Y-27581554D01*
X35135448Y-27293511D01*
X35155525Y-27000000D01*
X73844475Y-27000000D01*
X73864551Y-27293512D01*
X73924405Y-27581546D01*
X73924408Y-27581554D01*
X74022928Y-27858764D01*
X74022932Y-27858771D01*
X74158276Y-28119972D01*
X74158280Y-28119980D01*
X74243106Y-28240151D01*
X74327935Y-28360326D01*
X74528740Y-28575335D01*
X74756951Y-28760999D01*
X75008318Y-28913859D01*
X75278159Y-29031067D01*
X75561445Y-29110440D01*
X75812841Y-29144993D01*
X75852901Y-29150500D01*
X75852902Y-29150500D01*
X76147099Y-29150500D01*
X76182318Y-29145659D01*
X76438555Y-29110440D01*
X76721841Y-29031067D01*
X76991682Y-28913859D01*
X77243049Y-28760999D01*
X77471260Y-28575335D01*
X77672065Y-28360326D01*
X77841722Y-28119976D01*
X77977072Y-27858764D01*
X78075592Y-27581554D01*
X78135448Y-27293511D01*
X78155525Y-27000000D01*
X78135448Y-26706489D01*
X78134447Y-26701671D01*
X78075594Y-26418453D01*
X78070723Y-26404746D01*
X77977072Y-26141236D01*
X77841722Y-25880024D01*
X77841720Y-25880021D01*
X77841719Y-25880019D01*
X77787189Y-25802768D01*
X77672065Y-25639674D01*
X77471260Y-25424665D01*
X77243049Y-25239001D01*
X76991682Y-25086141D01*
X76991678Y-25086139D01*
X76991676Y-25086138D01*
X76721842Y-24968933D01*
X76438560Y-24889561D01*
X76438555Y-24889560D01*
X76147099Y-24849500D01*
X76147098Y-24849500D01*
X75852902Y-24849500D01*
X75852901Y-24849500D01*
X75561444Y-24889560D01*
X75561439Y-24889561D01*
X75278157Y-24968933D01*
X75008323Y-25086138D01*
X74756949Y-25239002D01*
X74528748Y-25424658D01*
X74528737Y-25424668D01*
X74327939Y-25639669D01*
X74327933Y-25639677D01*
X74158280Y-25880019D01*
X74158276Y-25880027D01*
X74022932Y-26141228D01*
X74022928Y-26141237D01*
X73924405Y-26418453D01*
X73864551Y-26706487D01*
X73844475Y-27000000D01*
X35155525Y-27000000D01*
X35135448Y-26706489D01*
X35134447Y-26701671D01*
X35075594Y-26418453D01*
X35070723Y-26404746D01*
X34977072Y-26141236D01*
X34841722Y-25880024D01*
X34841720Y-25880021D01*
X34841719Y-25880019D01*
X34787189Y-25802768D01*
X34672065Y-25639674D01*
X34471260Y-25424665D01*
X34243049Y-25239001D01*
X33991682Y-25086141D01*
X33991678Y-25086139D01*
X33991676Y-25086138D01*
X33721842Y-24968933D01*
X33438560Y-24889561D01*
X33438555Y-24889560D01*
X33147099Y-24849500D01*
X33147098Y-24849500D01*
X32852902Y-24849500D01*
X32852901Y-24849500D01*
X32561444Y-24889560D01*
X32561439Y-24889561D01*
X32278157Y-24968933D01*
X32008323Y-25086138D01*
X31756949Y-25239002D01*
X31528748Y-25424658D01*
X31528737Y-25424668D01*
X31327939Y-25639669D01*
X31327933Y-25639677D01*
X31158280Y-25880019D01*
X31158276Y-25880027D01*
X31022932Y-26141228D01*
X31022928Y-26141237D01*
X30924405Y-26418453D01*
X30864551Y-26706487D01*
X30844475Y-27000000D01*
X30500545Y-27000000D01*
X30500589Y-26998529D01*
X30518545Y-26701672D01*
X30519259Y-26695798D01*
X30557752Y-26485750D01*
X30572598Y-26404736D01*
X30574008Y-26399013D01*
X30662047Y-26116487D01*
X30664140Y-26110969D01*
X30785592Y-25841114D01*
X30788327Y-25835901D01*
X30941423Y-25582650D01*
X30944775Y-25577794D01*
X31127277Y-25344847D01*
X31131185Y-25340436D01*
X31340436Y-25131185D01*
X31344847Y-25127277D01*
X31577794Y-24944775D01*
X31582650Y-24941423D01*
X31835901Y-24788327D01*
X31841114Y-24785592D01*
X32110969Y-24664140D01*
X32116487Y-24662047D01*
X32399013Y-24574008D01*
X32404736Y-24572598D01*
X32695802Y-24519258D01*
X32701665Y-24518545D01*
X32945547Y-24503793D01*
X32998530Y-24500589D01*
X33001488Y-24500500D01*
X33065892Y-24500500D01*
X75934108Y-24500500D01*
X75998512Y-24500500D01*
X76001470Y-24500589D01*
G37*
%TD.AperFunction*%
%TD*%
M02*
